<svg xmlns="http://www.w3.org/2000/svg" width="160" height="160" viewBox="0 0 160 160"><defs><style>.a{fill:none;}.b{fill:#0e1013;}</style></defs><g transform="translate(-937.937 -1458.937)"><rect class="a" width="160" height="160" transform="translate(937.937 1458.937)"/><g transform="translate(954.008 1480.328)"><g transform="translate(0 0)"><g transform="translate(0 0)"><path class="b" d="M127.842,42.486c-.043-3.959-.323-7.947-.554-11.9-.135-2.307-.275-5.134-2.09-6.831-2.242-2.1-6.13-2.983-9.051-3.264-3.654-.351-7.392-.592-11.065-.636-6.6-.078-13.2.255-19.793.221-6.562-.034-13.125-.37-19.691-.37-14.522,0-28.946.39-43.444,1.1-5.421.265-11.506,1.026-13.487,6.809-1.017,2.969-1.143,6.713-1.428,9.844-.292,3.209-.61,6.4-.727,9.622-.155,4.287-.167,8.574-.121,12.86-.315.082-.627.173-.935.278-3.374,1.154-4.051,3.559-4.415,6.828C.5,71.854.212,76.7.031,81.531c-.175,4.656.448,9.334.282,14-.173,4.859-.121,9.723-.054,14.588.063,4.565.3,9.135.281,13.7-.011,3.188-.823,8.464,1.944,10.825,2.654,2.265,7.736,1.868,10.984,2.108,4.81.355,9.692.58,14.518.66,4.391.073,8.937.456,13.312.238,2.2-.109,4.4-.074,6.6-.207,1.62-.1,3.518.034,5-.716,3.306-1.671,4.059-6.183,4.545-9.463.1-.648.176-1.3.247-1.958,3-.044,6-.1,8.994-.135.225,3.9.81,7.388,5.491,8.44,5.3,1.193,11.437,2.043,16.855,1.417,5.4-.623,5.49-5.664,6.042-10.162a179.214,179.214,0,0,0,.95-20c0-.15,0-.3,0-.449.4.01.8.02,1.192.034,5.9.211,13.444,1.433,18.979-1.1,5.844-2.677,7.28-9.023,8.554-14.737a128.4,128.4,0,0,0,2.5-21.63C127.633,58.871,127.93,50.612,127.842,42.486ZM54.669,128.01c-.332,1.742-.725,4.322-2.017,5.628-1.356,1.371-4.19,1.2-6.032,1.274-3.757.158-7.555.163-11.311-.025-8.057-.4-16.123-.393-24.181-.888-1.707-.1-4.205-.065-5.793-.824-2.52-1.2-2.193-4.413-2.185-6.8.012-3.761-.175-7.5-.15-11.261.027-4.05.006-8.195-.186-12.243-.181-3.827.072-7.634.027-11.465C2.791,87.2,2.646,83.03,2.7,78.83c.03-2.322.275-4.636.446-6.952a34.877,34.877,0,0,1,.729-6.851c1.262-4.4,9.862-3.03,13.415-3.088,2.248-.036,4.485-.212,6.729-.327.32-.016.657-.044,1-.075,2.153.078,4.309.135,6.437.2,4.035.128,8.088.085,12.125.086,3.327,0,10.472-.9,11.688,2.934.532,1.68.21,3.968.191,5.7-.025,2.237-.137,4.465-.138,6.7-.006,8.648-.167,17.3-.167,25.947C55.155,111.281,56.205,119.954,54.669,128.01ZM25.632,52.061c-.039-1.72-.555-3.721.081-5.384.989-2.588,4.457-1.721,6.684-1.645,4.037.138,5.052,2.486,5.078,6.259.014,2.029.5,5.338-.16,7.207a2.609,2.609,0,0,1-.526.884c-.378,0-.755.011-1.132.014-2.549.025-5.062-.028-7.607-.131a18.279,18.279,0,0,0-1.965.035,2.64,2.64,0,0,1-.2-.4C25.192,57.054,25.678,54.046,25.632,52.061ZM57.608,104.09q4.317.061,8.635.115-.015.565-.036,1.13c-.158,4.083-.065,8.172.107,12.254a73.274,73.274,0,0,1-8.282-.209c-.017-1.38-.063-2.756-.139-4.116C57.725,110.222,57.643,107.159,57.608,104.09Zm5.969,18.851q-2.846,0-5.687.029.1-1.558.135-3.125a77.107,77.107,0,0,0,8.4.264q.069,1.412.141,2.823C65.572,122.936,64.575,122.941,63.577,122.941Zm3.016-26.878c-.092.856-.152,1.715-.2,2.576h0a5.122,5.122,0,0,1-2.971-2.067c-1.135-1.867.1-3.478,1.692-4.528A6.748,6.748,0,0,1,67.3,91.5C67.023,93.013,66.759,94.527,66.593,96.063Zm.739-6.123a4.52,4.52,0,0,0-2.685,1.038,5,5,0,0,0-1.253.807c-.008.008-.018.014-.025.022a4.673,4.673,0,0,0-1.506,4.481,5.617,5.617,0,0,0,4.473,3.925q-.025.861-.043,1.722-4.352-.085-8.707-.218c-.013-4.669.082-9.347.19-14,2.5.165,5,.34,7.5.393.717.015,1.434.026,2.151.038A8.48,8.48,0,0,0,67.332,89.94Zm26.219,15.4c-.045,5-.057,9.965-.46,14.959-.209,2.593-.443,5.228-.9,7.79a8.016,8.016,0,0,1-1.051,3.253c-1.037,1.5-2.807,1.359-4.538,1.357-4.57-.005-9.849-.138-14.239-1.516-2.911-.914-3.028-2.921-3.209-5.527-.179-2.589-.414-5.182-.421-7.779-.012-4.778-.157-9.541-.018-14.324.083-2.87.01-5.708.224-8.578.1-1.318.24-2.632.353-3.949.093-1.095-.165-2.068.9-2.614,1.409-.723,3.388-.424,4.908-.35,2.1.1,4.2.158,6.307.191,1.961.03,4.317-.329,6.227.12,2.455.577,5.4,1.191,5.608,4.189C93.533,96.791,93.59,101.1,93.551,105.344ZM78.411,85.905c-1.476-.048-20.6.354-20.585-.37q.035-1.453.069-2.9.027-1.167.063-2.345a6.776,6.776,0,0,0,2.888-.593.454.454,0,0,0-.107-.822,16.521,16.521,0,0,0-2.728-.314q.026-.863.05-1.729a6.657,6.657,0,0,0,2.785-.593.454.454,0,0,0-.107-.822A16.363,16.363,0,0,0,58.1,75.1q.025-1.147.036-2.292a6.574,6.574,0,0,0,2.707-.587.454.454,0,0,0-.107-.822,16.19,16.19,0,0,0-2.6-.309q-.006-1.149-.037-2.291a6.6,6.6,0,0,0,2.742-.589.454.454,0,0,0-.107-.822,16.5,16.5,0,0,0-2.705-.318c-.015-.3-.026-.609-.045-.911-.272-4.218-2.541-6.365-6.823-6.662-4.108-.285-8.258-.215-12.389-.149A7.053,7.053,0,0,0,39,57.842c.2-3.5.408-7.492-.421-10.918-.632-2.608-2.392-3.347-4.924-3.377-2.071-.024-6.507-.943-8.279.186-1.72,1.1-1.188,3.948-1.149,5.625.064,2.746.025,5.494.088,8.239a14.806,14.806,0,0,0,.117,1.771c-1.9.011-3.793.092-5.689.125-.8.014-1.615,0-2.439-.027.08-5.589.411-11.167.372-16.774,0-.482-.024-1.069-.042-1.709a41.671,41.671,0,0,1,4.169.511c2.355.057,4.717.037,7.071-.026,4.576-.122,9.133-.1,13.711-.092,8.807.006,17.6-.3,26.407-.353,7.839-.05,15.789-.662,23.607-.289,7.84.374,15.772.668,23.608.681-.023,2.84-.033,5.684.089,8.515.322,7.456-.31,14.895-.268,22.324a59.489,59.489,0,0,1-.653,9.723,25.061,25.061,0,0,0-.628,4.367c-1.361,0-2.722,0-4.083.03-2.731.068-5.462.125-8.194.125-2.447,0-4.8.268-7.249.209C88.948,86.581,83.688,86.077,78.411,85.905ZM19.069,31.821c1.4-.732,3.611-.541,5.175-.685,1.895-.175,3.751-.18,5.649-.259,6.75-.284,13.547-.534,20.3-.717,6.957-.189,13.948.092,20.9-.274,6.892-.363,13.89-.51,20.789-.456,3.46.027,6.907-.165,10.363-.182,3.382-.017,7.352-.5,10.651.378,2.2.584,1.988,2.228,2.157,4.086.134,1.474.2,2.9.186,4.379,0,.52-.008,1.042-.013,1.564-7.836,0-15.784-.282-23.621-.655-4.058-.193-8.205,0-12.265.138-4.105.141-8.2.111-12.313.187-9.219.17-18.426.4-27.648.376-4.382-.01-8.74.088-13.119.182-2.512.054-5.062.161-7.568,0-.638-.041-1.386-.213-2.077-.193C16.586,36.652,16.853,32.975,19.069,31.821ZM121.787,89.985c-.726,3.107-1.467,6.533-3.724,8.939-4.509,4.806-12.594,3.008-18.454,3.016-1.2,0-2.4-.009-3.607-.023-.029-1.578-.077-3.156-.106-4.736-.041-2.227.3-5.553-.7-7.658a3.921,3.921,0,0,0-.651-.958l.323.01c4.934.173,9.865.148,14.8.041,4.147-.089,8.307.16,12.44-.125C122,88.989,121.9,89.486,121.787,89.985Zm3.06-29.813a187.78,187.78,0,0,1-1.274,19.147c-.192,1.809-.016,6.16-1.735,7.011-1.487.736-3.876.011-5.471.017-.278,0-.556,0-.834,0a23.864,23.864,0,0,1,.513-2.794c.172-1.237.457-2.5.559-3.742.255-3.118.076-6.251.286-9.369.48-7.121.359-14.359.137-21.5-.12-3.873-.02-7.763-.015-11.638,0-2.293.177-5.9-1.092-7.96-1.281-2.08-3.7-1.584-5.856-1.719-4.03-.253-8.05-.132-12.089.016-3.645.134-7.3-.14-10.943.008-4,.163-8.019.42-12.026.415-7.591-.01-15.2.395-22.792.369-7.553-.025-15.2.483-22.755.712-4.542.138-12.882-.982-13.972,4.937-.733,3.982-.548,8.079-.548,12.105,0,4.227-.324,8.394-.419,12.606,0,.2,0,.4-.006.607a39.327,39.327,0,0,0-5.749.1c-.071-2.005-.129-4.011-.129-6.019A160.926,160.926,0,0,1,9.614,36.5c.311-2.934.418-7.347,2.209-9.815,2.082-2.869,7.073-3.158,10.331-3.343,14.483-.821,28.931-1.351,43.444-1.46,12.208-.092,24.355.725,36.57.333,5.809.277,12.241-.275,17.752,1.662,1.333.469,3.274,1.226,4.044,2.546a9.512,9.512,0,0,1,.746,4.162c.175,3.291.329,6.573.524,9.859C125.622,46.994,124.871,53.615,124.847,60.171Z" transform="translate(0 -19.703)"/></g></g><g transform="translate(41.656 24.844)"><path class="b" d="M185.892,119.909c-2.514-.543-5.47-.279-8.059-.376-3.46-.128-7.007-.042-10.454-.341-.772-.067-.748,1.106,0,1.193,3.6.419,7.3.38,10.915.6,2.343.146,5.554.82,7.705-.259A.454.454,0,0,0,185.892,119.909Z" transform="translate(-166.809 -119.19)"/></g><g transform="translate(41.656 29.961)"><path class="b" d="M185.892,140.4c-2.514-.543-5.47-.28-8.059-.375-3.46-.128-7.007-.042-10.454-.341-.772-.067-.748,1.106,0,1.193,3.6.419,7.3.38,10.915.6,2.343.146,5.554.821,7.705-.26A.454.454,0,0,0,185.892,140.4Z" transform="translate(-166.809 -139.681)"/></g><g transform="translate(41.656 33.972)"><path class="b" d="M185.892,156.461c-2.514-.543-5.47-.28-8.059-.375-3.46-.128-7.007-.042-10.454-.341-.772-.067-.748,1.106,0,1.193,3.6.419,7.3.38,10.915.6,2.343.146,5.554.821,7.705-.259A.454.454,0,0,0,185.892,156.461Z" transform="translate(-166.809 -155.742)"/></g><g transform="translate(69.855 23.468)"><g transform="translate(0 0)"><path class="b" d="M294.19,117.433c-.631-2.608-2.392-3.347-4.924-3.377-2.071-.024-6.507-.943-8.279.186-1.72,1.1-1.188,3.948-1.148,5.625.064,2.746.025,5.494.087,8.239.04,1.747.047,3.78,2.1,4.3a21.012,21.012,0,0,0,8.4.04c2.831-.444,4.008-1.14,4.178-4.092C294.813,124.848,295.019,120.859,294.19,117.433Zm-1.268,11.574c-.779,2.208-3.636,2.083-5.562,2.224-1.89.139-5.013.442-5.867-1.825-.695-1.843-.208-4.851-.254-6.836-.039-1.72-.555-3.72.081-5.384.989-2.588,4.457-1.721,6.684-1.645,4.037.138,5.052,2.486,5.078,6.259C293.1,123.829,293.581,127.138,292.922,129.007Z" transform="translate(-279.731 -113.68)"/></g></g><g transform="translate(87.386 29.961)"><path class="b" d="M369.017,140.4c-2.514-.543-5.47-.28-8.059-.375-3.46-.128-7.007-.042-10.454-.341-.772-.067-.748,1.106,0,1.193,3.6.419,7.3.38,10.915.6,2.343.146,5.554.821,7.705-.26A.454.454,0,0,0,369.017,140.4Z" transform="translate(-349.934 -139.681)"/></g><g transform="translate(87.386 33.972)"><path class="b" d="M369.017,156.461c-2.514-.543-5.47-.28-8.059-.375-3.46-.128-7.007-.042-10.454-.341-.772-.067-.748,1.106,0,1.193,3.6.419,7.3.38,10.915.6,2.343.146,5.554.821,7.705-.259A.454.454,0,0,0,369.017,156.461Z" transform="translate(-349.934 -155.742)"/></g><g transform="translate(87.386 37.983)"><path class="b" d="M369.017,172.521c-2.514-.543-5.47-.279-8.059-.375-3.46-.128-7.007-.042-10.454-.341-.772-.067-.748,1.106,0,1.193,3.6.419,7.3.38,10.915.6,2.343.146,5.554.82,7.705-.26A.454.454,0,0,0,369.017,172.521Z" transform="translate(-349.934 -171.802)"/></g><g transform="translate(69.855 44.49)"><g transform="translate(0 0)"><path class="b" d="M294.19,201.612c-.631-2.608-2.392-3.347-4.924-3.377-2.071-.025-6.507-.943-8.279.186-1.72,1.1-1.188,3.948-1.148,5.625.064,2.746.025,5.494.087,8.239.04,1.747.047,3.78,2.1,4.3a21.012,21.012,0,0,0,8.4.04c2.831-.445,4.008-1.14,4.178-4.092C294.813,209.027,295.019,205.038,294.19,201.612Zm-1.268,11.574c-.779,2.208-3.636,2.083-5.562,2.224-1.89.139-5.013.442-5.867-1.825-.695-1.843-.208-4.851-.254-6.836-.039-1.72-.555-3.72.081-5.384.989-2.588,4.457-1.721,6.684-1.645,4.037.138,5.052,2.486,5.078,6.259C293.1,208.008,293.581,211.317,292.922,213.186Z" transform="translate(-279.731 -197.859)"/></g></g><g transform="translate(87.386 46.972)"><path class="b" d="M369.017,208.519c-2.514-.543-5.47-.279-8.059-.375-3.46-.128-7.007-.042-10.454-.341-.772-.067-.748,1.106,0,1.193,3.6.419,7.3.38,10.915.6,2.343.146,5.554.821,7.705-.259A.454.454,0,0,0,369.017,208.519Z" transform="translate(-349.934 -207.8)"/></g><g transform="translate(87.386 50.983)"><path class="b" d="M369.017,224.579c-2.514-.543-5.47-.28-8.059-.376-3.46-.128-7.007-.042-10.454-.341-.772-.067-.748,1.106,0,1.193,3.6.419,7.3.38,10.915.6,2.343.146,5.554.82,7.705-.26A.454.454,0,0,0,369.017,224.579Z" transform="translate(-349.934 -223.86)"/></g><g transform="translate(87.386 54.993)"><path class="b" d="M369.017,240.64c-2.514-.543-5.47-.279-8.059-.375-3.46-.128-7.007-.042-10.454-.341-.772-.067-.748,1.106,0,1.193,3.6.419,7.3.38,10.915.6,2.343.146,5.554.821,7.705-.259A.454.454,0,0,0,369.017,240.64Z" transform="translate(-349.934 -239.921)"/></g><g transform="translate(87.386 58.451)"><g transform="translate(0 0)"><path class="b" d="M369.017,254.485c-2.514-.543-5.47-.279-8.059-.375-3.46-.128-7.007-.042-10.454-.341-.772-.067-.748,1.105,0,1.193,3.6.419,7.3.38,10.915.6,2.343.146,5.554.821,7.705-.259A.454.454,0,0,0,369.017,254.485Z" transform="translate(-349.934 -253.766)"/></g></g><g transform="translate(6.07 44.706)"><g transform="translate(0 0)"><path class="b" d="M69.938,201.05c-1.929-2.178-6.761-2.075-9.386-2.163-8.343-.28-16.8-.2-25.122.277-2.725.156-6.266-.87-8.9.1-1.708.627-1.841,2.4-1.67,4.13a54.055,54.055,0,0,0-.121,7.492c-.045,4.321.074,8.639.064,12.962-.019,7.869.08,15.744-.324,23.584-.143,2.776-.492,6.763.566,9.384,1.026,2.54,3.891,3.017,6.37,3.244,3.975.365,8.1-.181,12.089-.205,3.921-.025,7.842.133,11.774.018,3.127-.092,6.474.432,9.551-.317,2.93-.714,3.77-2.975,4.331-5.716a59.119,59.119,0,0,0,.727-9.881c.134-3.862.175-7.713.172-11.582-.006-8.111.809-16.211.82-24.339C70.88,206.072,71.367,202.664,69.938,201.05ZM26.2,202.741c.035-.186.072-.372.116-.554a.584.584,0,0,0,0-.267,1.716,1.716,0,0,1,.471-.932c.607-.513,2.551-.312,3.339-.292,2.734.07,5.418-.011,8.146-.024,5.934-.028,11.841-.3,17.78-.23,3.245.04,6.87-.058,10.031.734,2.331.584,2.826,1.57,2.9,3.725.039,1.1.079,2.2.107,3.3-14.157-.443-28.491-.035-42.634.459-.006-.221-.018-.446-.044-.682A17.747,17.747,0,0,1,26.2,202.741Zm42.118,26.768c-.321,6.16-.173,12.4-.306,18.565-.065,3-.039,8.816-3.652,9.821-2.817.784-6.193.176-9.085.259-6.4.184-12.774-.042-19.171.134-3.767.1-9.179,1.03-9.732-4.022a49.006,49.006,0,0,1,.012-8.715c.259-3.712.071-7.535.062-11.267q-.014-5.219-.025-10.438c-.009-3.837-.516-7.843-.244-11.661.059-.828.179-1.563.246-2.317.627.046,1.286.01,1.807.043,1.92.12,3.846.108,5.771.117,4.081.019,8.16-.131,12.234-.234,7.609-.193,15.309-.256,22.894.018,0,.079,0,.158,0,.237C69.128,216.564,68.657,223.01,68.318,229.509Z" transform="translate(-24.306 -198.726)"/></g></g><g transform="translate(26.475 107.451)"><path class="b" d="M112.973,452.1c-.787-1.693-2.943-2.778-4.56-1.665a2.919,2.919,0,0,0-2.375,3.19c.23,2.034,2.469,3.221,4.365,2.888A3.2,3.2,0,0,0,112.973,452.1Zm-3.018,2.916a2.359,2.359,0,0,1-2.6-1.475,2.049,2.049,0,0,1,1.319-2.2c1.02-.015,1.926-.089,2.623.882C112.208,453.49,111.365,454.795,109.955,455.019Z" transform="translate(-106.017 -449.984)"/></g><g transform="translate(10.848 57.581)"><g transform="translate(0 0)"><path class="b" d="M57.9,254.037c-.632-2.608-2.392-3.347-4.924-3.377-2.071-.025-6.507-.943-8.279.186-1.72,1.1-1.188,3.948-1.149,5.625.064,2.746.025,5.494.088,8.239.04,1.747.046,3.78,2.1,4.3a21.01,21.01,0,0,0,8.4.04c2.831-.444,4.008-1.14,4.178-4.092C58.523,261.453,58.728,257.463,57.9,254.037Zm-1.268,11.575c-.779,2.208-3.636,2.083-5.562,2.224-1.89.139-5.013.442-5.867-1.825-.695-1.844-.209-4.851-.254-6.836-.039-1.72-.555-3.72.081-5.384.989-2.588,4.457-1.721,6.684-1.645,4.037.138,5.052,2.486,5.078,6.259C56.8,260.434,57.29,263.743,56.631,265.612Z" transform="translate(-43.439 -250.285)"/></g></g><g transform="translate(28.379 58.958)"><path class="b" d="M132.726,256.515c-2.514-.543-5.47-.28-8.059-.376-3.46-.128-7.007-.042-10.454-.341-.772-.067-.748,1.106,0,1.193,3.6.419,7.3.38,10.915.6,2.343.146,5.554.821,7.705-.259A.454.454,0,0,0,132.726,256.515Z" transform="translate(-113.643 -255.796)"/></g><g transform="translate(28.379 62.968)"><g transform="translate(0 0)"><path class="b" d="M132.726,272.575c-2.514-.543-5.47-.28-8.059-.376-3.46-.128-7.007-.042-10.454-.341-.772-.067-.748,1.106,0,1.193,3.6.419,7.3.38,10.915.6,2.343.146,5.554.821,7.705-.26A.454.454,0,0,0,132.726,272.575Z" transform="translate(-113.643 -271.856)"/></g></g><g transform="translate(28.379 66.979)"><g transform="translate(0 0)"><path class="b" d="M132.726,288.636c-2.514-.543-5.47-.28-8.059-.376-3.46-.128-7.007-.042-10.454-.341-.772-.067-.748,1.106,0,1.193,3.6.419,7.3.38,10.915.6,2.343.146,5.554.821,7.705-.26A.454.454,0,0,0,132.726,288.636Z" transform="translate(-113.643 -287.917)"/></g></g><g transform="translate(28.379 70.99)"><path class="b" d="M132.726,304.7c-2.514-.543-5.47-.28-8.059-.376-3.46-.128-7.007-.042-10.454-.341-.772-.067-.748,1.105,0,1.193,3.6.419,7.3.38,10.915.6,2.343.146,5.554.821,7.705-.259A.454.454,0,0,0,132.726,304.7Z" transform="translate(-113.643 -303.978)"/></g><g transform="translate(32.725 80.677)"><path class="b" d="M146,355.754c-.064-2.746-.025-5.494-.088-8.238-.04-1.747-.046-3.78-2.1-4.3a21.012,21.012,0,0,0-8.4-.04c-2.831.445-4.008,1.14-4.178,4.092-.2,3.5-.408,7.492.421,10.918.632,2.608,2.392,3.347,4.924,3.377,2.071.025,6.507.943,8.279-.186C146.571,360.284,146.04,357.431,146,355.754Zm-1.481,2.681c-.989,2.588-4.457,1.721-6.684,1.645-4.037-.138-5.052-2.486-5.078-6.259-.014-2.029-.5-5.338.16-7.207.779-2.208,3.636-2.083,5.563-2.224,1.89-.139,5.013-.442,5.867,1.825.695,1.843.209,4.851.254,6.836C144.64,354.771,145.155,356.772,144.519,358.436Z" transform="translate(-131.047 -342.771)"/></g><g transform="translate(10.848 92.319)"><path class="b" d="M62.278,390.335c-3.6-.419-7.3-.38-10.915-.6-2.343-.146-5.554-.82-7.705.259a.454.454,0,0,0,.107.822c2.514.543,5.47.28,8.059.375,3.46.128,7.007.042,10.454.341C63.05,391.595,63.026,390.422,62.278,390.335Z" transform="translate(-43.44 -389.389)"/></g><g transform="translate(10.848 88.308)"><path class="b" d="M62.278,374.275c-3.6-.419-7.3-.38-10.915-.6-2.343-.146-5.554-.82-7.705.259a.454.454,0,0,0,.107.822c2.514.543,5.47.28,8.059.375,3.46.128,7.007.042,10.454.341C63.05,375.535,63.026,374.362,62.278,374.275Z" transform="translate(-43.44 -373.329)"/></g><g transform="translate(10.848 84.297)"><path class="b" d="M62.278,358.214c-3.6-.419-7.3-.38-10.915-.6-2.343-.146-5.554-.821-7.705.259a.454.454,0,0,0,.107.822c2.514.543,5.47.28,8.059.376,3.46.128,7.007.042,10.454.341C63.05,359.474,63.026,358.3,62.278,358.214Z" transform="translate(-43.44 -357.267)"/></g><g transform="translate(73.247 75.007)"><path class="b" d="M308.266,333.047c-.064-2.746-.025-5.494-.088-8.239-.04-1.747-.046-3.78-2.1-4.3a21.006,21.006,0,0,0-8.4-.04c-2.831.444-4.008,1.14-4.178,4.092-.2,3.5-.408,7.492.421,10.918.631,2.608,2.392,3.347,4.924,3.377,2.071.025,6.507.943,8.279-.186C308.837,337.577,308.306,334.724,308.266,333.047Zm-1.481,2.681c-.989,2.588-4.457,1.721-6.684,1.645-4.037-.138-5.052-2.486-5.078-6.259-.014-2.029-.5-5.338.16-7.207.779-2.208,3.636-2.083,5.563-2.224,1.89-.139,5.013-.442,5.867,1.825.695,1.844.209,4.851.254,6.836C306.905,332.064,307.421,334.065,306.785,335.729Z" transform="translate(-293.313 -320.064)"/></g><g transform="translate(74.112 100.203)"><path class="b" d="M309.857,422.007c-2.5-.463-5.067-.419-7.579-.667-1.627-.161-3.857-.906-5.351.286-.236.188-.182.819.074.907,1.746.6,3.8.309,5.6.414,2.4.142,4.866.047,7.259.376C310.393,423.4,310.376,422.1,309.857,422.007Z" transform="translate(-296.776 -420.962)"/></g><g transform="translate(74.112 95.776)"><path class="b" d="M309.857,404.279c-2.5-.462-5.067-.419-7.579-.667-1.627-.161-3.857-.906-5.351.286-.236.188-.182.819.074.907,1.746.6,3.8.309,5.6.414,2.4.142,4.866.047,7.259.376C310.393,405.669,310.376,404.375,309.857,404.279Z" transform="translate(-296.776 -403.234)"/></g><g transform="translate(69.997 70.523)"><path class="b" d="M299.93,303.495c-1.792-.871-4.654-.574-6.611-.583a53.826,53.826,0,0,1-6.6-.393c-1.626-.209-3.578-1.02-4.826.452-.809.954-.948,2.617-1.1,3.8-.375,2.9-.171,5.813-.316,8.723a128.855,128.855,0,0,0,.008,13.818c.171,2.946-.662,6.545,2.785,7.783,3.576,1.284,7.171,1.008,10.882,1.029,3.014.017,6.092.38,7.09-3.159.52-1.842.228-3.879.347-5.77.156-2.476.123-4.945.255-7.417.2-3.664.335-7.37.313-11.04C302.148,308.356,302.483,304.735,299.93,303.495Zm-.071,28.56c.024,2.414-.3,4.128-3.074,4.454a17.684,17.684,0,0,1-2.352-.012c-1.7-.027-3.416.068-5.124.016-1.767-.053-5.5-.31-6.645-1.839-1.115-1.493-.593-4.6-.668-6.378-.172-4.113-.143-8.233,0-12.347.092-2.568-.006-5.147.248-7.708.241-2.422.461-4.709,3.5-4.258,1.886.28,3.733.4,5.627.5s3.879-.074,5.76.2c1.748.253,3.111.788,3.259,2.774.03.4.019.829.04,1.238C300.835,316.477,299.782,324.277,299.86,332.055Z" transform="translate(-280.301 -302.108)"/></g><g transform="translate(79.211 107.942)"><path class="b" d="M320.706,452.962a1.423,1.423,0,0,0-1.517-1.009,1.811,1.811,0,0,0-.991.329,1.485,1.485,0,0,0-1,1.476,1.821,1.821,0,0,0,1.2,1.612A1.946,1.946,0,0,0,320.706,452.962Z" transform="translate(-317.195 -451.951)"/></g></g></g></svg>