<svg xmlns="http://www.w3.org/2000/svg" width="14" height="14" viewBox="0 0 14 14"><defs><style>.a{fill:none;}.b{fill:#80868b;}</style></defs><g transform="translate(241 -1526) rotate(90)"><rect class="a" width="14" height="14" transform="translate(1526 227)"/><path class="b" d="M627.379,557.822l-4.8,4.633a.561.561,0,0,0,0,.832.611.611,0,0,0,.862,0l5.235-5.049a.561.561,0,0,0,0-.832l-5.235-5.049a1.358,1.358,0,0,0-.308-.178h-.308c-.123,0-.185.059-.308.178a1.278,1.278,0,0,0-.185.3v.3c0,.118.062.178.185.3Z" transform="translate(907.407 -323.822)"/></g></svg>