<svg xmlns="http://www.w3.org/2000/svg" width="160" height="160" viewBox="0 0 160 160"><defs><style>.a{fill:none;}.b{fill:#0e1013;}</style></defs><g transform="translate(-937.41 -1458.239)"><rect class="a" width="160" height="160" transform="translate(937.41 1458.239)"/><g transform="translate(953.895 1473.401)"><g transform="translate(15.187 74.135)"><path class="b" d="M81.155,296.278a7.4,7.4,0,0,0-1.488-2.122c-2.338-2.284-5.89-2.221-8.723-.971a8.349,8.349,0,0,0-3.7,3.215,8.76,8.76,0,0,0-1.267,5.767,7.875,7.875,0,0,0,10.853,6.192C81.611,306.527,83.284,300.748,81.155,296.278Zm-5.346,10.511a6.27,6.27,0,0,1-8.267-4.833,7.046,7.046,0,0,1,2.381-6.683c3.727-1.807,8.5-1.956,9.943,2.808C80.935,301.6,79.47,305.594,75.809,306.789Z" transform="translate(-65.91 -292.323)"/></g><g transform="translate(95.437 38.094)"><path class="b" d="M397.788,160.554a1.192,1.192,0,0,0-.2-.364,5.887,5.887,0,0,0,1.455-6.148c-2.757-7.384-15.5-3.1-12.6,4.406a11.484,11.484,0,0,1,.961,2.429c.287,2.059-1.49,3.994-2.358,5.709-1.007,1.99-2.272,4.111-2.633,6.346-.671,4.158,3.525,5.036,6.817,5.169,2.306.093,4.592-.19,6.892-.256,1.779-.051,3.826.318,5.168-1.141C404.71,172.986,398.975,164.174,397.788,160.554Zm-9.626-5.24a5.578,5.578,0,0,1,2.994-2.847,4.514,4.514,0,0,1,4.571.466,3.758,3.758,0,0,1,1.018,4.8c-1.326,2.41-5.017,3.851-7.433,2.2A3.491,3.491,0,0,1,388.162,155.314Zm6.894,20.29c-1.424.075-2.844.2-4.272.213-1.471.016-3.406.193-4.755-.477-2.129-1.057-1.344-2.9-.62-4.776,1.127-2.917,2.369-5.779,3.487-8.7a6.4,6.4,0,0,0,4.4.736,7.7,7.7,0,0,0,2.455-.939c1.312,3.6,4.107,7.593,4.04,11.434C399.736,176.05,397.128,175.495,395.056,175.6Z" transform="translate(-382.344 -150.208)"/></g><g transform="translate(0 0)"><g transform="translate(0)"><path class="b" d="M132.535,52.085c-.222-3.686.068-7.355.03-11.041-.023-2.2.218-6.384-1.344-8.22-1.36-1.6-4.457-1.306-6.372-1.493-.866-.085-11.031-1.135-11.11-.656a1.767,1.767,0,0,0,0-.749c-.622-3.082-.292-6.565-.606-9.724-.309-3.115-.518-6.213-.64-9.339-.107-2.739.555-8.1-2.621-9.529C108.239.593,105.819.816,104.1.725c-3.206-.17-6.412-.33-9.62-.454C88.027.019,81.565-.1,75.109.107,68.629.318,62.142.826,55.674,1.276c-3.27.227-6.538.493-9.793.886-1.653.2-3.651.221-5.15,1-2.983,1.551-2.5,5.548-2.6,8.387a116.444,116.444,0,0,0,.188,17.333l-.339.016c-.421.006-.841,0-1.261.012-8.01.147-16.372-.123-24.32.958-5.408.735-6.462,2.557-6.367,7.739.031,1.669-.1,3.58.937,5.011,1.495,2.053,4.211,1.611,6.431,1.544,4.29-.13,8.582,0,12.87.152,2.2.077,4.4.161,6.6.217q1.648.042,3.3.061c.678.007,1.643-.057,1.971.7.41.951.065,2.508.047,3.518-.023,1.288.013,2.576.03,3.864.024,1.768-.168,3.534-.1,5.3.088,2.266.707,4.911-.63,6.951-.472.721-.944,1.545-1.788.651-.752-.8-.3-2.883-.278-3.938.011-.691.388-2.388-.081-2.951a1.159,1.159,0,0,0-.759-.312A26,26,0,0,0,23.21,59.3c-.518.162.036,2.964.085,3.341a16.194,16.194,0,0,1,.263,1.907c0,.656-.613,1.826-1.452,1.325-1.644-.983-.741-3.9-2.62-4.648-1.351-.534-3.21.992-4.179,1.71-1.127.835-3.669,2.144-4.149,3.581-.407,1.218.6,2.207,1.449,2.931.721.614,1.908.864,2.341,1.771a1.7,1.7,0,0,1,.154.725,4.3,4.3,0,0,1-1.178,2.5L9.694,73.088a1.03,1.03,0,0,0-.715-.05,1.029,1.029,0,0,0-.452.577,25.416,25.416,0,0,0-1.3,3.141,31.674,31.674,0,0,0-.506,3.436.722.722,0,0,0,.062.573.722.722,0,0,0,.536.195l3.935.292a1.131,1.131,0,0,1,.825.295c.348.426-.02,1.392-.048,1.881.015-.27-4.345.854-4.6.923a1.186,1.186,0,0,0-.642.329,1.2,1.2,0,0,0-.048,1.066L8.324,91.5a1.079,1.079,0,0,0,.495.777,1.071,1.071,0,0,0,.716-.046c1.349-.409,2.663-.961,3.988-1.381a1.034,1.034,0,0,1,.873.077,1.541,1.541,0,0,1,.472.64l.707,1.425a.473.473,0,0,1-.167.715,57.234,57.234,0,0,0-4.653,4.05A22.493,22.493,0,0,0,13,100.2c1.4,1.463,3.429,2.54,5.058,3.748a.909.909,0,0,0,.7.257.891.891,0,0,0,.458-.372c1.112-1.437,1.892-3.133,2.986-4.55a15.837,15.837,0,0,0,2.022,1.287c-.306-.169-1.536,4.975-1.472,5.365.081.5,4.073.634,4.56.639a43.454,43.454,0,0,0,7.26-.51,1.836,1.836,0,0,0,1.474-.774,1.863,1.863,0,0,0-.086-1.362L34.63,99.884c-.005-.015,2.283-.665,2.442-.714a12.828,12.828,0,0,0,1.037,2.7,10.326,10.326,0,0,1,1.227,3.687,27.3,27.3,0,0,1-.038,3.79c-.157,3.168-.129,6.343.023,9.511.132,2.753-.343,7.255,2.026,9.281,2.778,2.376,8.671,1.631,11.966,1.485,5.74-.254,11.427-.575,17.178-.585,11.771-.021,23.414-.163,35.154-1.077,3.265-.254,5.539-.623,6.166-4.24.8-4.615-.7-9.235-.3-13.862a.916.916,0,0,1,.164-.532.936.936,0,0,1,.709-.224c1.911-.052,4.409.142,6.056-1.031,1.524-1.085,1.718-3.241,1.9-4.937.578-5.349.233-10.52.045-15.866-.077-2.189-.256-4.574-2.434-5.686a8.132,8.132,0,0,0-3.24-.7c-.732-.048-1.908.249-2.509-.3a1.431,1.431,0,0,1-.366-1.069c-.007-1.768-.255-3.529-.233-5.3.016-1.3.158-2.627.283-3.916,1.276-.406,3.12,0,4.454.062,3.8.19,7.588.689,11.185-.909,3.991-1.82,5.06-6.116,5.259-10.158A66.109,66.109,0,0,0,132.535,52.085Zm-107.451-9.8c-3.034-.11-6.064-.2-9.1-.217-3.24-.015-7.852.967-8.011-3.645-.075-2.176-.426-4.8,1.642-6.017A5.45,5.45,0,0,1,10.493,32c3-.427,6.019-.11,9.037-.2,3.342-.105,6.684-.3,10.024-.452,6.085-.282,12.164-.432,18.253-.567,2.929-.065,5.854-.22,8.782-.305.848-.025,1.985-.134,3.2-.216.95-.018,1.9-.044,2.85-.061a.534.534,0,0,0,.1-.021,7.717,7.717,0,0,1,3.188.624c2.407,1.253,1.756,7.117.369,8.849-1.422,1.776-4.037,1.778-6.122,1.92A336.131,336.131,0,0,1,25.085,42.287Zm15.958,58.948a1.188,1.188,0,0,1-.66.209c-.4-.036-.648-.444-.76-.826a27.925,27.925,0,0,0-.851-2.686c-.135-.333-.392-1.292-.781-1.414-.359-.112-1.428.443-1.8.559l-3.87,1.217,1.235,6.319a24.493,24.493,0,0,1-4.607.3c-.321-.009-3.579-.438-3.616-.128l.533-4.483a1.9,1.9,0,0,0-.045-.935c-.24-.594-.955-.786-1.446-1.11-.55-.364-1.089-.774-1.635-1.153a10.88,10.88,0,0,0-1.05-.861q-1.91,2.617-3.662,5.344c-.358-.269-4.231-3.176-4.152-3.289a17.422,17.422,0,0,1,1.907-2.408,22.352,22.352,0,0,0,2.133-2.042,32.586,32.586,0,0,0-1.428-3.705c-.127-.262-.753-2.136-1.023-2.181l-5.455,1.98c-.406-1.227-.78-2.435-1.063-3.7A13.718,13.718,0,0,1,13.7,85.6c.039-.449.455-5.92.6-5.9L8.753,79.04c.221-.818.415-3.284,1.393-3.561a1.53,1.53,0,0,1,.789.06l4.846,1.245c.727-1.507,1.4-3.022,2.137-4.522a.908.908,0,0,0-.2-1.356,25.226,25.226,0,0,1-2.5-2.328c-.515-.634-.935-1.346-1.488-1.966A40.517,40.517,0,0,1,18.4,63.365a19.969,19.969,0,0,0,1.232,2.373,8.591,8.591,0,0,0,1.274,1.949c1.217,1.027,3.918-.042,4.413-1.472A4.259,4.259,0,0,0,25.4,64.39l-.313-3.069a.651.651,0,0,1,.675-.883,32.552,32.552,0,0,1,7.468-.451c-.037,2.268.049,4.508,0,6.765l5,1.314a31.493,31.493,0,0,1,2.45-4.662,22.316,22.316,0,0,1,4.594,3.4c-.85.8-1.642,1.666-2.475,2.467-.613.589-1.621.885-1.875,1.782a2.5,2.5,0,0,0,.248,1.579,34.484,34.484,0,0,0,2,4.142c1.367-.478,2.838-.65,4.153-1.2a1.155,1.155,0,0,1,1.873.64,14.894,14.894,0,0,1,.562,2.4,14.583,14.583,0,0,1-2.223.572,12.522,12.522,0,0,0-3.467,1.3q.161,2.082.321,4.164a.562.562,0,0,0,.661.629,21.586,21.586,0,0,1,4,.8.558.558,0,0,1,.45.869l-.8,2.67a20,20,0,0,1-2.8-.592,16.879,16.879,0,0,0-1.975-.783,1.139,1.139,0,0,0-1.358.771c-.457,1.362-1.762,3.341-1.345,4.833.173.621.913,1.039,1.35,1.492q1.08,1.121,2.157,2.246c.234.244.487.548.417.879a1.049,1.049,0,0,1-.521.585Q42.878,100.215,41.042,101.235Zm.714,1.968a17.45,17.45,0,0,0,1.813-1.249c1.313-.973,3.236-1.75,4.016-3.275.587-1.148-.148-1.537-1-2.254q-1.481-1.249-3.036-2.407L44.7,91c1.33.272,3.091.96,4.462.608a3.306,3.306,0,0,0,2.1-2.659c.342-1.31,1.2-2.977.3-4.275s-3.468-.893-4.814-.945a.551.551,0,0,1-.669-.638L46,81.191a51.384,51.384,0,0,1,5.24-.714.752.752,0,0,0,.772-1.1,32.2,32.2,0,0,0-1.625-5.686.762.762,0,0,0-1.079-.62c-1.5.36-3.016.592-4.516.965a.708.708,0,0,1-.588-.028.7.7,0,0,1-.192-.276l-1.1-2.307c.007.014,3.1-2.034,3.38-2.213.925-.587,1.836-1.474,1.429-2.695a6.127,6.127,0,0,0-2.8-2.815c-.805-.5-2.388-.745-2.877-1.57a2.081,2.081,0,0,1-.222-.885c-.237-2.614-.134-5.289-.221-7.914a52.1,52.1,0,0,0-.72-8.765c6.848-.089,13.721-.34,20.544-.883,4.009-.319,7.234-1.649,8.069-5.944a12.291,12.291,0,0,0-.512-6.98c-.951-2-2.489-2.22-4.535-2.391-7.746-.648-15.834-.018-23.68.393.51-4.541.427-9.141.549-13.7A63.007,63.007,0,0,1,41.6,7.851c.342-2.37,2.108-2.1,4.276-2.363,10.314-1.257,20.9-1.878,31.291-2.1,5.077-.11,10.156-.029,15.231.145q3.8.13,7.592.321c2.246.11,5.544-.3,7.687.409,1.284.426.645-.212,1.172,1.461a13.64,13.64,0,0,1,.224,3.207c.118,2.361.146,4.726.321,7.085.208,2.8.62,5.578.783,8.378a51.991,51.991,0,0,0,.277,6.246c-.908-.011-1.81-.026-2.7-.052-3.927-.117-10.99-1.422-13.894,2.152-1.4,1.729-1.618,4.219-1.718,6.348-.167,3.548-.162,7.126-.072,10.676.093,3.689.044,7.326-.046,11.011-.053,2.17-.137,5.188,1.444,6.943,1.414,1.57,3.758,1.545,5.692,1.731,2.971.286,5.958.435,8.932.684-.454-.038.873,9.8-.414,10.559a2.03,2.03,0,0,1-.939.2c-4.125.2-10.184-1.378-13.647,1.569-2.914,2.48-1.555,8.371-1.578,11.609-.02,2.755-.031,5.532-.158,8.285-.067,1.449-.43,3.173.589,4.4,1.69,2.03,6.166,1.413,8.5,1.648,2.472.249,5.076.54,7.685.688a15.5,15.5,0,0,0-.181,2.876,40.27,40.27,0,0,0-4.871.282c-3.161.208-6.375.085-9.541.141-6.188.108-12.368.182-18.557.1-6.04-.083-12.08-.217-18.12-.254-4.691-.029-9.751-.772-14.475-.26C42.274,109.039,42.127,106.117,41.756,103.2Zm65.6,21.117c-1.451.723-4.328.359-5.978.5-9.583.8-19.191.7-28.8.71-4.484,0-8.972-.041-13.449.232-4.372.267-8.841.784-13.211.226-2.519-.322-2.745-1.3-2.963-3.688-.21-2.3-.331-4.6-.428-6.9q-.042-1-.078-1.994c10.616.471,21.2.812,31.84,1.012,5.941.112,11.875.1,17.816.017,2.874-.038,5.749-.047,8.624-.073,2.375-.022,4.96-.583,7.336-.293.129,1.534.321,3.068.381,4.563C108.518,120.358,109.1,123.453,107.357,124.32ZM118,85.938a34.448,34.448,0,0,1,.279,5.5c.192,3.767.816,9.065-.451,12.687-1.472,4.209-10.516,2.457-14.016,2.183-2-.157-4-.436-6.007-.561-2.342-.146-3.753.154-4.148-2.668-.594-4.249.159-8.98,0-13.3a12,12,0,0,1,0-3.037c.777-3.3,2.156-3.344,4.739-3.653a44.186,44.186,0,0,1,6.024-.131c.665.011,1.331,0,2-.012,1.455.06,2.913.125,4.381.158C113.521,83.172,117.28,82.808,118,85.938Zm11.3-21.466c-2.192,4.519-8.422,3.745-12.588,3.417-4.981-.392-9.969-.295-14.951-.643a17.126,17.126,0,0,1-4.206-.383c-2.525-.933-3.107-2.605-3.174-4.965-.07-2.458.186-4.92.137-7.383-.1-5.3-.407-10.656-.016-15.952.274-3.7,1.808-5.262,4.781-5.685,5.168.711,10.572.4,15.771.6,2.726.1,5.449.255,8.174.366a37.117,37.117,0,0,1,4.447.223c1.747.287,1.866.664,2.141,2.36.856,5.265-.02,10.714.313,16.021C130.37,56.285,131.04,60.885,129.3,64.472Z" transform="translate(-6.026 0)"/></g></g><g transform="translate(90.559 85.193)"><path class="b" d="M378.815,351.266a18.192,18.192,0,0,1-4.161-4.218c1.81-2.572,2.226-6.276.311-8.841-3.9-5.223-10.88-.531-11.76,4.561-.975,5.638,5.823,9.435,10.031,6.122a17.481,17.481,0,0,0,4.381,4.428C378.887,354.174,380.084,352.112,378.815,351.266Zm-7.568-3.817a4.047,4.047,0,0,1-5.977-3.406,5.727,5.727,0,0,1,.124-1.842l0-.012c.968-2.94,5.109-5.9,7.727-2.883C375.14,341.625,373.777,346.076,371.247,347.45Z" transform="translate(-363.11 -335.925)"/></g><g transform="translate(64.362 115.689)"><path class="b" d="M268.644,457.554c-1.28-1.7-3.737-1.637-5.513-.847a5.557,5.557,0,0,0-3.125,3.35c-1.3,4.36,4.271,5.956,7.195,3.814C269.1,462.477,270.2,459.619,268.644,457.554Zm-4.15,5.386a2.212,2.212,0,0,1-2.6-1.191,2.054,2.054,0,0,1-.133-1.239,3.644,3.644,0,0,1,1.973-2.044c1.041-.461,2.885-.716,3.484.553C268.066,460.811,266.088,462.613,264.495,462.94Z" transform="translate(-259.813 -456.173)"/></g><g transform="translate(39.771 8.471)"><path class="b" d="M179.319,44.277q-.062-4.674-.364-9.34a1.347,1.347,0,0,0-1.7-1.534c-2.147.025-4.28.126-6.411.182l-5.8.152a2.693,2.693,0,0,0-1.255.237,1.817,1.817,0,0,0-.83,1.429c-.068.69.06,1.344-.018,2.034-.087.764-.027,1.542-.068,2.309-.167,3.167.408,6.324.191,9.467a2.749,2.749,0,0,0,.013.764c.227,1.061,2.116.6,2.887.581,3.9-.1,7.795-.287,11.692-.415a1.41,1.41,0,0,0,1.667-1.741Q179.347,46.339,179.319,44.277ZM177.7,47.45a1.38,1.38,0,0,1-.188.317,2.244,2.244,0,0,1-1.84.633c-1.023-.018-1.972.157-2.983.162-2.392.012-4.792.23-7.193.03a23.535,23.535,0,0,1-.253-5.155c.084-2.607-.081-5.2-.064-7.8a36.3,36.3,0,0,1,4.411-.359c1.158-.069,2.317-.129,3.476-.161.941-.026,2.489-.4,3.144.427a3.528,3.528,0,0,1,.565,1.809l1.02,8.448A3.282,3.282,0,0,1,177.7,47.45Z" transform="translate(-162.847 -33.402)"/></g><g transform="translate(59.553 8.471)"><path class="b" d="M257.32,44.277q-.062-4.674-.364-9.34a1.347,1.347,0,0,0-1.7-1.534c-2.147.025-4.28.126-6.411.182l-5.8.152a2.693,2.693,0,0,0-1.255.237,1.816,1.816,0,0,0-.83,1.429c-.069.69.06,1.344-.018,2.034-.087.764-.027,1.542-.068,2.309-.167,3.167.408,6.324.191,9.467a2.75,2.75,0,0,0,.013.764c.227,1.061,2.116.6,2.887.581,3.9-.1,7.795-.287,11.692-.415a1.41,1.41,0,0,0,1.667-1.741Q257.347,46.339,257.32,44.277ZM255.7,47.45a1.382,1.382,0,0,1-.188.317,2.244,2.244,0,0,1-1.84.633c-1.023-.018-1.972.157-2.983.162-2.392.012-4.792.23-7.193.03a23.533,23.533,0,0,1-.253-5.155c.084-2.607-.081-5.2-.064-7.8a36.3,36.3,0,0,1,4.411-.359c1.158-.069,2.317-.129,3.476-.161.941-.026,2.489-.4,3.144.427a3.528,3.528,0,0,1,.565,1.809l1.02,8.448A3.283,3.283,0,0,1,255.7,47.45Z" transform="translate(-240.848 -33.402)"/></g><g transform="translate(79.334 8.471)"><path class="b" d="M335.32,44.277q-.062-4.674-.364-9.34a1.347,1.347,0,0,0-1.7-1.534c-2.147.025-4.28.126-6.411.182l-5.8.152a2.692,2.692,0,0,0-1.255.237,1.816,1.816,0,0,0-.83,1.429c-.068.69.06,1.344-.018,2.034-.087.764-.027,1.542-.068,2.309-.167,3.167.408,6.324.191,9.467a2.751,2.751,0,0,0,.013.764c.227,1.061,2.116.6,2.887.581,3.9-.1,7.795-.287,11.692-.415a1.41,1.41,0,0,0,1.667-1.741Q335.347,46.339,335.32,44.277ZM333.7,47.45a1.372,1.372,0,0,1-.188.317,2.244,2.244,0,0,1-1.84.633c-1.023-.018-1.972.157-2.983.162-2.392.012-4.792.23-7.193.03a23.537,23.537,0,0,1-.253-5.155c.084-2.607-.081-5.2-.064-7.8a36.3,36.3,0,0,1,4.411-.359c1.158-.069,2.317-.129,3.476-.161.941-.026,2.49-.4,3.144.427a3.528,3.528,0,0,1,.565,1.809l1.02,8.448A3.282,3.282,0,0,1,333.7,47.45Z" transform="translate(-318.848 -33.402)"/></g><g transform="translate(43.575 49.429)"><path class="b" d="M194.319,205.777q-.062-4.674-.364-9.34a1.347,1.347,0,0,0-1.7-1.534c-2.147.025-4.28.126-6.411.182l-5.8.152a2.7,2.7,0,0,0-1.255.237,1.816,1.816,0,0,0-.829,1.429c-.068.69.06,1.344-.018,2.034-.087.764-.027,1.542-.068,2.309-.167,3.167.408,6.324.191,9.467a2.75,2.75,0,0,0,.013.764c.227,1.061,2.116.6,2.887.581,3.9-.1,7.795-.287,11.692-.415a1.41,1.41,0,0,0,1.667-1.741Q194.347,207.839,194.319,205.777ZM192.7,208.95a1.381,1.381,0,0,1-.188.317,2.244,2.244,0,0,1-1.84.633c-1.023-.018-1.972.157-2.983.162-2.392.012-4.792.23-7.193.03a23.53,23.53,0,0,1-.253-5.155c.084-2.607-.081-5.2-.064-7.8a36.3,36.3,0,0,1,4.411-.359c1.158-.069,2.317-.129,3.476-.161.941-.026,2.489-.4,3.144.427a3.528,3.528,0,0,1,.565,1.809l1.02,8.448A3.282,3.282,0,0,1,192.7,208.95Z" transform="translate(-177.847 -194.902)"/></g><g transform="translate(63.483 49.429)"><path class="b" d="M272.82,205.777q-.063-4.674-.364-9.34a1.347,1.347,0,0,0-1.7-1.534c-2.147.025-4.28.126-6.411.182l-5.8.152a2.7,2.7,0,0,0-1.255.237,1.817,1.817,0,0,0-.83,1.429c-.068.69.06,1.344-.018,2.034-.087.764-.027,1.542-.068,2.309-.167,3.167.408,6.324.191,9.467a2.753,2.753,0,0,0,.013.764c.227,1.061,2.116.6,2.887.581,3.9-.1,7.795-.287,11.692-.415a1.409,1.409,0,0,0,1.667-1.741Q272.847,207.839,272.82,205.777ZM271.2,208.95a1.38,1.38,0,0,1-.188.317,2.244,2.244,0,0,1-1.84.633c-1.023-.018-1.972.157-2.983.162-2.392.012-4.792.23-7.193.03a23.532,23.532,0,0,1-.253-5.155c.084-2.607-.081-5.2-.064-7.8a36.307,36.307,0,0,1,4.411-.359c1.158-.069,2.317-.129,3.476-.161.941-.026,2.49-.4,3.144.427a3.527,3.527,0,0,1,.564,1.809q.51,4.224,1.02,8.448A3.282,3.282,0,0,1,271.2,208.95Z" transform="translate(-256.348 -194.902)"/></g><g transform="translate(63.61 70.098)"><path class="b" d="M273.32,287.277q-.062-4.674-.364-9.34a1.347,1.347,0,0,0-1.7-1.534c-2.147.025-4.28.126-6.411.182l-5.8.152a2.692,2.692,0,0,0-1.255.237,1.817,1.817,0,0,0-.83,1.429c-.068.69.06,1.344-.018,2.034-.087.764-.027,1.542-.068,2.309-.167,3.167.408,6.324.191,9.467a2.751,2.751,0,0,0,.013.764c.227,1.061,2.116.6,2.887.581,3.9-.1,7.795-.287,11.692-.415a1.41,1.41,0,0,0,1.667-1.741Q273.347,289.339,273.32,287.277ZM271.7,290.45a1.382,1.382,0,0,1-.188.317,2.244,2.244,0,0,1-1.84.633c-1.023-.018-1.972.157-2.983.162-2.392.012-4.792.23-7.193.031a23.537,23.537,0,0,1-.253-5.155c.084-2.607-.081-5.2-.064-7.8a36.319,36.319,0,0,1,4.411-.359c1.158-.07,2.317-.129,3.476-.161.941-.026,2.489-.4,3.144.427a3.53,3.53,0,0,1,.565,1.809q.51,4.224,1.02,8.448A3.281,3.281,0,0,1,271.7,290.45Z" transform="translate(-256.848 -276.402)"/></g><g transform="translate(63.61 90.513)"><path class="b" d="M273.32,367.777q-.062-4.674-.364-9.34a1.347,1.347,0,0,0-1.7-1.534c-2.147.025-4.28.126-6.411.182l-5.8.152a2.692,2.692,0,0,0-1.255.237,1.817,1.817,0,0,0-.83,1.429c-.068.69.06,1.344-.018,2.034-.087.764-.027,1.542-.068,2.309-.167,3.167.408,6.324.191,9.467a2.752,2.752,0,0,0,.013.764c.227,1.061,2.116.6,2.887.581,3.9-.1,7.795-.287,11.692-.415a1.41,1.41,0,0,0,1.667-1.741Q273.347,369.839,273.32,367.777ZM271.7,370.95a1.378,1.378,0,0,1-.188.317,2.244,2.244,0,0,1-1.84.633c-1.023-.018-1.972.157-2.983.162-2.392.012-4.792.23-7.193.03a23.537,23.537,0,0,1-.253-5.155c.084-2.607-.081-5.2-.064-7.8a36.282,36.282,0,0,1,4.411-.359c1.158-.07,2.317-.129,3.476-.161.941-.026,2.489-.4,3.144.427a3.53,3.53,0,0,1,.565,1.809q.51,4.224,1.02,8.448A3.281,3.281,0,0,1,271.7,370.95Z" transform="translate(-256.848 -356.902)"/></g></g></g></svg>