<svg xmlns="http://www.w3.org/2000/svg" width="34" height="34" viewBox="0 0 34 34"><defs><style>.a{fill:none;}</style></defs><g transform="translate(1.963 -86.503)"><rect class="a" width="34" height="34" transform="translate(-1.963 86.503)"/><g transform="translate(2.304 90.769)"><g transform="translate(0 0)"><path d="M14.209,12.725l10.9-10.9A1.059,1.059,0,0,0,23.64.3l-.026.026-10.9,10.9L1.808.324a1.059,1.059,0,0,0-1.5,1.5l10.9,10.9L.31,23.628a1.059,1.059,0,0,0,1.5,1.5l10.9-10.9,10.9,10.9a1.059,1.059,0,0,0,1.5-1.5Z" transform="translate(0 0)"/></g></g></g></svg>