<svg xmlns="http://www.w3.org/2000/svg" xmlns:xlink="http://www.w3.org/1999/xlink" width="18" height="18" viewBox="0 0 18 18"><defs><style>.a{fill:url(#a);}.b{fill:url(#b);}.c{fill:url(#c);}.d{fill:url(#d);}.e{fill:#fff;}</style><linearGradient id="a" x1="0.332" y1="0.141" x2="0.585" y2="0.682" gradientUnits="objectBoundingBox"><stop offset="0" stop-color="#1674ea"/><stop offset="1" stop-color="#216fd1"/></linearGradient><linearGradient id="b" x1="0.714" y1="0.647" x2="-0.271" y2="-0.03" gradientUnits="objectBoundingBox"><stop offset="0" stop-color="#216fd1" stop-opacity="0"/><stop offset="1" stop-color="#1658ab"/></linearGradient><linearGradient id="c" x1="0.5" y1="0.177" x2="0.5" y2="0.855" gradientUnits="objectBoundingBox"><stop offset="0" stop-color="#1357ab" stop-opacity="0"/><stop offset="1" stop-color="#10498f"/></linearGradient><linearGradient id="d" x1="1.26" y1="0.791" x2="0.043" y2="0.371" gradientUnits="objectBoundingBox"><stop offset="0" stop-color="#1a75e2" stop-opacity="0"/><stop offset="0.325" stop-color="#1968c7" stop-opacity="0.325"/><stop offset="0.705" stop-color="#1559ab" stop-opacity="0.706"/><stop offset="1" stop-color="#10498f"/></linearGradient></defs><g transform="translate(0 0.001)"><path class="a" d="M14.78,17.691a54.368,54.368,0,0,1-11.561,0A3.278,3.278,0,0,1,.308,14.78a54.367,54.367,0,0,1,0-11.561A3.278,3.278,0,0,1,3.219.308a54.367,54.367,0,0,1,11.561,0,3.278,3.278,0,0,1,2.912,2.911,54.367,54.367,0,0,1,0,11.561,3.277,3.277,0,0,1-2.911,2.912Zm0,0" transform="translate(0 0)"/><path class="b" d="M44.533,31.691a2.908,2.908,0,0,0-2.583-2.584,48.262,48.262,0,0,0-10.259,0,2.909,2.909,0,0,0-2.584,2.584,48.261,48.261,0,0,0,0,10.259,2.908,2.908,0,0,0,2.584,2.584,48.243,48.243,0,0,0,10.259,0,2.908,2.908,0,0,0,2.584-2.584,48.243,48.243,0,0,0,0-10.259Zm0,0" transform="translate(-27.82 -27.821)"/><path class="c" d="M7.672,409.805q.019.187.038.373a3.278,3.278,0,0,0,2.912,2.911,54.375,54.375,0,0,0,11.561,0,3.277,3.277,0,0,0,2.911-2.911q.02-.187.039-.373Zm0,0" transform="translate(-7.402 -395.398)"/><path class="d" d="M224.344,85.27a2.84,2.84,0,0,0-2.84,2.84V90.23h-1.528v2.626l1.528,1.369v6.046a54.481,54.481,0,0,0,5.519-.307,3.277,3.277,0,0,0,2.911-2.912,54.36,54.36,0,0,0,.235-8.6l-3.18-3.18Zm0,0" transform="translate(-212.243 -82.272)"/><path class="e" d="M221.5,100.271q1.573-.008,3.146-.107V92.857h2.087l.252-2.626H224.65V88.563a.667.667,0,0,1,.667-.667h1.672V85.27h-2.645a2.84,2.84,0,0,0-2.84,2.84v2.121h-1.528v2.626H221.5Zm0,0" transform="translate(-212.243 -82.273)"/></g></svg>