<svg xmlns="http://www.w3.org/2000/svg" width="160" height="160" viewBox="0 0 160 160"><defs><style>.a{fill:none;}.b{fill:#0e1013;}</style></defs><g transform="translate(-938 -1459)"><rect class="a" width="160" height="160" transform="translate(938 1459)"/><g transform="translate(947.236 1482.694)"><g transform="translate(0 0)"><g transform="translate(0 0)"><path class="b" d="M122.992,65.645c-.485-4.1-.539-10.929-5.773-11.512-6.972-.777-14.353-.11-21.373-.1-8.481.006-16.989-.066-25.464.271-3.7.147-7.386-.06-11.087.064-3.133.1-6.732-.638-9.784.153-3.367-1.3-7.753-1.417-10.739-1.256a32.667,32.667,0,0,0-11.593,2.325c-4.045,1.786-5.944,6.447-10.529,6.892-3.867.376-8.582-.956-12.25.578-2.808,1.174-3,5.2-3.326,7.82A156.986,156.986,0,0,0,.032,92.82c.054,2.821.62,6.124,3.878,6.353a.939.939,0,0,0,.115.006c.1,0,.187.016.288.016a34.138,34.138,0,0,0,5.822-1.082,24.863,24.863,0,0,1,7.639-.125,27.362,27.362,0,0,1,12.766,6.473c2.875,2.458,5.918,4.785,9.881,4.888,3.405.089,5.865-1.9,5.987-5.358a8.22,8.22,0,0,0-.074-1.413c5.326-.063,10.606-.632,15.948-.616,6.657.019,13.3-.527,19.959-.617,7.181-.1,14.377-.31,21.558-.16,2.961.062,5.929.208,8.891.112,2.309-.075,5.95.461,8.032-.811,1.615-.986,1.9-2.78,2.075-4.468.353-3.317.372-6.653.453-9.982C123.418,79.218,123.8,72.452,122.992,65.645ZM39.18,106.361c-4.967-.926-8.238-5.824-12.633-8.06a27.377,27.377,0,0,0-13.658-3.014c-.461-.017-.919-.025-1.369-.015-1.894.044-4.014,1.04-5.846.881C1.583,95.8,2.812,89.448,2.82,86.376c.01-3.419.494-6.822.641-10.241a58.71,58.71,0,0,1,.462-6.04c.36-2.438.875-4.522,3.707-4.681,3.828-.215,8.209.724,11.918-.57,3.223-1.125,4.757-4.565,7.614-6.219,3.85-2.229,8.988-2.6,13.347-2.591,4.437.012,10.016.338,11.828,4.866-1.835.062-3.649.24-5.268.351a91.228,91.228,0,0,0-15.545,2.356.542.542,0,0,0,.143,1.06c6.113.164,12.207-.64,18.319-.692,2.482-.021,6.417-.69,8.666.562,1.954,1.087,1.711,4.177.029,5.278-2.11,1.38-4.845,1.1-7.241,1.114-2.783.013-5.606.376-8.376.655-2.863.289-5.9.2-8.617,1.214a.855.855,0,0,0,.226,1.67c7.509.063,14.96-1.1,22.467-.577,1.377.1,4.1.087,5.344.94,2.476,1.7-1.267,3.816-2.905,4.328a24.449,24.449,0,0,1-4.058.821c-.832-.138-1.653-.228-2.411-.295A57.793,57.793,0,0,0,37.137,81.03c-.953.193-.7,1.639.224,1.656,5.033.092,10.143-.74,15.166-.312,1.884.16,9.363.8,6.189,4.9-1.25,1.613-6.1,1.973-8.017,2.187-4.284.477-9.278.153-13.36,1.669-2.533.941-3.575,3.292-1.319,5.18,1.289,1.079,2.986,1.48,4.378,2.389a8.24,8.24,0,0,1,2.647,2.6C44.557,104.244,42.462,106.973,39.18,106.361Zm81.338-23.739c-.191,2.784-.234,5.6-.256,8.382-.02,2.436.473,7.043-2.614,7.279-5.715.436-11.51.031-17.236-.008-6.253-.043-12.519.1-18.773.194-6.649.1-13.283.623-19.932.6-5.454-.022-10.836.625-16.279.624-.031,0-.058.007-.089.009a10.378,10.378,0,0,0-3.487-3.488c-.836-.53-1.778-.865-2.652-1.323a3.505,3.505,0,0,1-.815-.428c-.3-.306-.488-.305-.522-.3a1.116,1.116,0,0,0,.419-.3c.525-.5,2.192-.49,2.848-.588,1.664-.248,3.335-.441,5.01-.594,3.83-.349,20.356-1.252,16.248-8.857a6.09,6.09,0,0,0-2.246-2.3,11.261,11.261,0,0,0,2.449-.9c2.536-1.31,5.748-5.633,2.376-7.847a11.433,11.433,0,0,0-4.421-1.561A7.705,7.705,0,0,0,62.5,69.153c1.732-2.866.374-5.9-2.564-7.2A14.811,14.811,0,0,0,54.4,60.89,5.764,5.764,0,0,0,52.614,56.4c1.483.148,2.989.42,4.4.484,2.953.134,5.924.055,8.881.162,6.447.234,12.942-.209,19.4-.223,6.615-.014,13.229.011,19.844.017q4.849,0,9.7,0c1.415,0,2.92.079,3.852,1.394.962,1.357,1.1,4.657,1.315,6.267A89.926,89.926,0,0,1,120.518,82.622Z" transform="translate(0 -53.205)"/></g></g><g transform="translate(18.3 56.174)"><path class="b" d="M189.538,272.581c-.054-2.821-.62-6.124-3.878-6.353a.936.936,0,0,0-.115-.006c-.1,0-.187-.016-.288-.016a34.177,34.177,0,0,0-5.822,1.082,24.866,24.866,0,0,1-7.639.125,27.361,27.361,0,0,1-12.766-6.473c-2.875-2.458-5.918-4.785-9.881-4.888-3.405-.089-5.865,1.9-5.987,5.358a8.215,8.215,0,0,0,.074,1.413c-5.326.063-10.606.632-15.948.616-6.657-.019-13.3.527-19.959.617-7.181.1-14.377.31-21.558.16-2.961-.062-5.928-.208-8.891-.112-2.309.075-5.95-.461-8.032.811-1.615.986-1.9,2.779-2.075,4.468-.353,3.316-.372,6.653-.453,9.982-.167,6.817-.546,13.583.26,20.39.485,4.1.539,10.929,5.773,11.512,6.972.776,14.353.11,21.373.1,8.481-.006,16.989.066,25.464-.271,3.7-.147,7.386.06,11.087-.064,3.133-.1,6.732.638,9.784-.153,3.367,1.3,7.753,1.417,10.739,1.256a32.665,32.665,0,0,0,11.593-2.325c4.045-1.786,5.944-6.447,10.529-6.892,3.867-.376,8.582.956,12.25-.578,2.808-1.174,3-5.2,3.325-7.82A156.983,156.983,0,0,0,189.538,272.581ZM132.56,308.521c-2.953-.134-5.924-.055-8.881-.162-6.447-.234-12.942.209-19.4.223-6.615.014-13.229-.011-19.844-.017q-4.849,0-9.7,0c-1.415,0-2.92-.079-3.852-1.394-.962-1.357-1.1-4.657-1.315-6.267a89.946,89.946,0,0,1-.523-18.124c.191-2.784.234-5.6.256-8.382.02-2.436-.473-7.043,2.614-7.279,5.715-.437,11.51-.031,17.236.008,6.253.043,12.519-.1,18.773-.194,6.649-.1,13.283-.623,19.932-.6,5.454.022,10.836-.625,16.279-.624.031,0,.058-.007.089-.009a10.378,10.378,0,0,0,3.487,3.488c.836.53,1.778.865,2.652,1.323a3.51,3.51,0,0,1,.815.428c.3.306.488.305.522.3a1.11,1.11,0,0,0-.419.3c-.525.5-2.192.49-2.848.588-1.664.248-3.335.441-5.01.594-3.829.349-20.356,1.252-16.248,8.857a6.088,6.088,0,0,0,2.246,2.3,11.264,11.264,0,0,0-2.449.9c-2.535,1.31-5.748,5.633-2.376,7.847a11.434,11.434,0,0,0,4.421,1.561,7.7,7.7,0,0,0-1.957,2.069c-1.732,2.866-.374,5.9,2.564,7.2a14.806,14.806,0,0,0,5.538,1.062,5.763,5.763,0,0,0,1.788,4.494C135.473,308.856,133.967,308.585,132.56,308.521Zm54.189-29.5c-.01,3.419-.494,6.822-.641,10.241a58.713,58.713,0,0,1-.462,6.04c-.36,2.438-.875,4.522-3.707,4.681-3.828.215-8.209-.724-11.918.57-3.223,1.125-4.757,4.565-7.614,6.219-3.85,2.229-8.988,2.6-13.347,2.591-4.437-.012-10.016-.338-11.828-4.867,1.835-.062,3.649-.24,5.268-.351a91.22,91.22,0,0,0,15.545-2.356.542.542,0,0,0-.143-1.06c-6.113-.164-12.207.64-18.319.692-2.482.021-6.417.69-8.666-.562a3.425,3.425,0,0,1-1.3-3.486c.808-3.267,6.089-2.895,8.514-2.906,2.783-.013,5.606-.376,8.376-.656,2.863-.289,5.9-.2,8.617-1.214a.855.855,0,0,0-.226-1.67c-7.509-.063-14.96,1.1-22.467.577-1.377-.1-4.1-.087-5.344-.94-2.476-1.7,1.267-3.816,2.905-4.328a24.456,24.456,0,0,1,4.058-.821c.832.138,1.653.228,2.411.295a57.794,57.794,0,0,0,15.971-1.344c.953-.193.7-1.639-.224-1.656-5.033-.092-10.143.74-15.166.312-1.884-.16-9.363-.8-6.189-4.9,1.249-1.613,6.1-1.973,8.017-2.187,4.284-.477,9.278-.153,13.36-1.669,2.533-.941,3.575-3.292,1.319-5.18-1.289-1.079-2.986-1.48-4.378-2.389a8.238,8.238,0,0,1-2.647-2.6c-1.511-2.948.583-5.677,3.866-5.065,4.967.926,8.238,5.824,12.633,8.06a27.377,27.377,0,0,0,13.658,3.014c.461.017.919.025,1.369.015,1.894-.044,4.014-1.04,5.846-.881C187.987,269.6,186.758,275.952,186.75,279.025Z" transform="translate(-66.083 -256.05)"/></g><g transform="translate(50.852 74.44)"><g transform="translate(0 0)"><path class="b" d="M205.417,331.64a13.134,13.134,0,0,0-6.116-8.454c-9.251-4.963-16.5,6.9-15.6,14.924a10.723,10.723,0,0,0,13.656,8.943C203.521,345.211,207,337.6,205.417,331.64ZM196.476,345.5c-6.648,1.654-11.64-4.126-11.1-10.48.548-6.4,5.812-14.267,13-10.254a11.526,11.526,0,0,1,5.28,7.358C204.959,337.214,201.975,344.133,196.476,345.5Z" transform="translate(-183.627 -322.011)"/></g></g><g transform="translate(25.072 96.881)"><g transform="translate(0 0)"><path class="b" d="M106.758,407.945c-.114-1.516-.309-3.248-1.659-4.206-1.8-1.28-5.387-.4-7.476-.4-1.66,0-4.35-.464-5.9.435a1.881,1.881,0,0,0-.5.431.255.255,0,0,0-.027.032c-1.044,1.308-.726,5.226.092,6.572,1.188,1.954,5.056,1.356,6.931,1.362,1.976.007,5.091.306,6.96-.506C106.815,410.959,106.88,409.559,106.758,407.945Zm-1.68.879c-.659,2.267-6.111,1.733-7.978,1.682-2.067-.056-4.987-.459-5.062-3.052-.1-3.39,3.913-2.318,6.088-2.318a35.442,35.442,0,0,1,3.757-.1C103.618,405.238,105.689,406.724,105.078,408.824Z" transform="translate(-90.536 -403.046)"/></g></g><g transform="translate(25.569 70.087)"><path class="b" d="M120.695,306.365c-2.345-.265-4.761.274-7.123.359-2.4.087-4.791.218-7.188.216-4.516,0-9.054-.107-13.556-.015a.52.52,0,0,0-.138,1.017c2.084.837,4.24.629,6.428.612,2.421-.019,4.845.038,7.266.044a81.506,81.506,0,0,0,14.459-1.149C121.5,307.331,121.261,306.429,120.695,306.365Z" transform="translate(-92.329 -306.292)"/></g><g transform="translate(25.569 74.189)"><g transform="translate(0 0)"><path class="b" d="M116.549,321.174c-2-.265-4.065.274-6.082.359-2.047.086-4.091.218-6.138.216-3.856,0-7.73-.106-11.574-.015-.527.012-.563.807-.117,1.017,1.779.837,3.62.629,5.488.613,2.067-.019,4.137.038,6.2.044a59.679,59.679,0,0,0,12.345-1.149C117.24,322.141,117.032,321.238,116.549,321.174Z" transform="translate(-92.329 -321.102)"/></g></g><g transform="translate(70.888 68.884)"><path class="b" d="M279.649,302.33c-3.9-.781-8.328-.111-12.312-.2a74.067,74.067,0,0,0-10.855.489.523.523,0,0,0,0,1.045,97.793,97.793,0,0,0,10.855.278c4,.05,8.406.329,12.312-.617A.521.521,0,0,0,279.649,302.33Z" transform="translate(-255.978 -301.947)"/></g><g transform="translate(81.485 7.358)"><path class="b" d="M322.7,100.966c-2.325-3.926-5.005-7.645-7.214-11.649a46.059,46.059,0,0,0-5.19-8.28c-1.266-1.451-2.178-1.933-3.018.086-.67,1.609-1.252,3.246-2.072,4.79C304.1,88,302.841,90,301.727,92.086c-2.528,4.722-5.416,9.686-7.248,14.72-.955,2.625,1.191,2.947,3.3,3.682,2.349.817,4.7,1.632,7.066,2.413,1.277.423,3.435,1.623,4.841,1.414,1.831-.272,3.883-2.088,5.44-2.979,2.131-1.219,4.308-2.374,6.427-3.608C324.617,105.946,324.493,103.993,322.7,100.966Zm-17.929,9.894c-1.64-.531-3.261-1.117-4.9-1.651-1.978-.644-3.689-.981-2.99-3.406a35.71,35.71,0,0,1,2.171-4.471c1.588-3.569,3.312-7.093,5.132-10.55,1-1.9,2.071-3.765,2.948-5.731-.017.617-.032,1.225-.064,1.8-.166,2.978-.363,6.017-.327,9,.065,5.353.291,10.632.624,15.959C306.449,111.516,305.527,111.1,304.772,110.86Zm15.028-4.415c-1.554.851-3.091,1.722-4.628,2.606-1.587.912-3.856,2.829-5.667,3.074-.082.011-.17.006-.255.009-.359-5.032-.576-9.989-.678-15.048-.059-2.9.07-5.806.184-8.711a55.478,55.478,0,0,1,.313-5.753,48.521,48.521,0,0,1,3.993,6.328c1.836,3.223,3.692,6.429,5.715,9.543.745,1.147,1.552,2.277,2.24,3.458C322.341,104.222,322.045,105.215,319.8,106.445Z" transform="translate(-294.245 -79.775)"/></g></g></g></svg>