<svg xmlns="http://www.w3.org/2000/svg" width="160" height="160" viewBox="0 0 160 160"><defs><style>.a{fill:none;}.b{fill:#0e1013;}</style></defs><g transform="translate(-937.984 -1458.984)"><rect class="a" width="160" height="160" transform="translate(937.984 1458.984)"/><g transform="translate(947.322 1477.14)"><g transform="translate(0 0)"><g transform="translate(0 0)"><path class="b" d="M141.305,59.775c-.05-4.605-.376-9.244-.644-13.846-.157-2.684-.319-5.971-2.431-7.946-2.608-2.439-7.13-3.47-10.528-3.8-4.251-.409-8.6-.689-12.871-.74-7.679-.091-15.352.3-23.024.257-7.633-.039-15.267-.43-22.905-.43-16.892,0-33.671.454-50.534,1.279-6.306.309-13.385,1.193-15.688,7.92C1.5,45.926,1.349,50.28,1.018,53.922c-.34,3.732-.71,7.442-.846,11.192-.561,15.463.443,30.918.288,46.4A67,67,0,0,0,1.137,122.2c.517,3.332,2.226,5.119,5.275,6.4,6.826,2.878,15.6,2.4,22.874,2.456q9.752.07,19.5.221a74.175,74.175,0,0,0-.278,10.839,8.745,8.745,0,0,0,.84,4.009c-.749-.074-1.5-.141-2.245-.187-2.945-.184-6.712-.045-8.805,2.426a4.171,4.171,0,0,0,1.371,6.472c3.486,1.616,8.1,1.382,11.845,1.364,10.215-.048,20.461-.387,30.671-.3,4.909.042,10.361.692,15.2-.17,2.91-.518,5.576-2.2,4.65-5.547-1.11-4.012-5.909-4.455-9.378-4.287-.629.031-1.252.068-1.872.11a9.768,9.768,0,0,0,1.192-5.495,63.33,63.33,0,0,0-.15-8.822c4.623-.009,9.247,0,13.851.168,6.859.246,15.638,1.667,22.076-1.282,6.8-3.113,8.469-10.5,9.95-17.142a149.382,149.382,0,0,0,2.91-25.16C141.062,78.834,141.407,69.227,141.305,59.775ZM96.294,148.65c.929.28,3.029.876,2.98,2.2a1.571,1.571,0,0,1-.473.93c-1.558,1.769-2.831,1.457-5,1.458-9.088.007-18.161.12-27.248.127-4.488,0-8.964.019-13.448.15-3.257.1-8.824.832-11.722-.889-3.407-2.022.825-3.745,2.787-3.982,4.529-.548,9.107.222,13.584.856a82.886,82.886,0,0,0,13.093.558c3.43-.059,6.881.071,10.3-.133C86.1,149.626,91.3,147.36,96.294,148.65ZM50.98,131.312c9.971.141,19.941.3,29.916.38,2.605.022,5.216.017,7.828.01.054,1.91.2,3.831.231,5.738.064,3.564.781,7.192-3.276,8.681-4.6,1.688-10.5.94-15.362,1.006-5.088.069-10.451.2-15.4-1.138-2.348-.635-3.094-.988-3.463-3.405a25.366,25.366,0,0,1-.166-3.129C51.213,136.743,51.215,134.017,50.98,131.312Zm83.281-16.286c-.845,3.614-1.706,7.6-4.332,10.4-5.245,5.591-14.65,3.5-21.466,3.509-5.982.009-11.989-.212-17.977-.15a1.524,1.524,0,0,0-.765.008c-1.072.016-2.144.039-3.214.078-15.016.545-30.149-.553-45.177-.544-7.723,0-15.445-.212-23.161-.535-3.581-.15-7.907-.372-11.171-2.047C3,123.69,3.624,118.68,3.38,114.8c-.039-.627-.066-1.257-.094-1.886,4.306.422,8.771-.376,13.065-.611,5.448-.3,10.888-.319,16.343-.3,6.16.015,12.32-.013,18.48.005,5.8.017,11.559.714,17.356.838,11.474.245,22.949.139,34.418.541,5.74.2,11.475.171,17.219.048,4.824-.1,9.663.186,14.471-.146C134.513,113.867,134.4,114.446,134.261,115.025Zm3.56-34.679a218.327,218.327,0,0,1-1.482,22.272c-.223,2.1-.018,7.166-2.018,8.156-1.729.856-4.509.013-6.364.019-2.6.01-5.194-.033-7.79.032-5.742.143-11.48.173-17.219-.018-11.274-.376-22.557-.325-33.837-.476-5.58-.075-11.13-.79-16.71-.809-6.155-.022-12.31.041-18.465.056-5.484.014-10.962,0-16.438.321-4.735.277-9.54,1.047-14.29.922-.178-6.146.039-12.381-.013-18.493-.057-6.592-.549-13.166-.548-19.761A187.24,187.24,0,0,1,3.78,52.808c.362-3.413.486-8.546,2.569-11.417,2.422-3.337,8.227-3.674,12.017-3.888,16.847-.955,33.653-1.572,50.534-1.7,14.2-.107,28.33.843,42.539.387,6.757.322,14.239-.32,20.649,1.933,1.551.545,3.809,1.426,4.7,2.962.8,1.378.786,3.31.868,4.841.2,3.828.383,7.646.61,11.468C138.723,65.018,137.849,72.719,137.821,80.346Z" transform="translate(0 -33.273)"/></g></g><g transform="translate(64.441 81.693)"><g transform="translate(0 0)"><path class="b" d="M244.694,331.67a5.89,5.89,0,0,0-4.488-2.42,5.047,5.047,0,0,0-3.388,1.2,5.822,5.822,0,0,0-1.458.938c-.009.009-.021.016-.028.026a5.436,5.436,0,0,0-1.752,5.212c.7,3.4,5.628,5.909,8.666,4.032C245.24,338.812,246.734,334.81,244.694,331.67Zm-2.288,6.441a3.641,3.641,0,0,1-3.555,1.253,5.957,5.957,0,0,1-3.456-2.4c-1.32-2.172.117-4.046,1.968-5.267,1.182-.4,2.279-.94,3.722-.425A4.119,4.119,0,0,1,242.406,338.111Z" transform="translate(-233.465 -329.238)"/></g></g><g transform="translate(19.39 4.92)"><g transform="translate(0 0)"><path class="b" d="M171.825,61.295c0-.042-.006-.084-.009-.125-.224-2.917.519-5.99-1.639-8.491-1.8-2.085-6.41-1.456-8.817-1.53-8.244-.254-16.533.543-24.8.311-17.7-.5-35.538-.02-53.225.619-1.921.069-3.841.19-5.76.285-1.215.06-2.719-.142-3.857.343a3.859,3.859,0,0,0-2.137,3.066,20.21,20.21,0,0,0-.294,5.916,31.133,31.133,0,0,0-.481,4.229c-.946,12.415-.375,24.96-.47,37.4-.023,3.022-.038,6.128.156,9.142.108,1.676.025,3.44,1.512,4.522,1.28.932,3.181.994,4.7,1.1,3.035.211,6.1.14,9.146.143,11.982.01,23.97.464,35.951.52,3.243.015,6.486.3,9.729.353,3.117.052,6.263-.258,9.368-.033,6.339.458,12.763,1.353,19.124,1.085,2.976-.125,9.146,1.3,10.786-2.28.866-1.891.827-4.885.887-6.928.088-2.964.131-5.917.138-8.883q0-.532,0-1.065c.039-8.857.31-17.711.291-26.569C172.118,70.061,172.152,65.649,171.825,61.295Zm-1.893,3.334c-8.129.018-16.323-.275-24.443-.63-4.93-.215-9.863-.563-14.8-.631a41.672,41.672,0,0,0-7.79.354c-.183.033-.371.054-.554.083-.028-2.272-.094-4.538-.266-6.751,3.126-.069,6.261-.057,9.414.076,6.306.267,12.607.481,18.909.837,4.061.229,8.127.413,12.173.851,1.824.2,3.841.272,5.609.588s1.6,1.655,1.666,3.132C169.881,63.235,169.9,63.932,169.931,64.629ZM120.683,53.236c9.175.087,18.343-.013,27.515.036,4.218.023,8.429-.361,12.64-.32,2.381.023,7.006-.464,8.374,1.874,1.64,2.8-.81,2.691-2.823,2.522-2.935-.246-5.883-.3-8.817-.552-3.584-.314-7.176-.537-10.768-.736-4.7-.261-9.4-.46-14.107-.659-13.073-.551-25.787.836-38.8,1.6l-.541.03c-.023-.617-.147-1.273-.2-1.866a17.812,17.812,0,0,0-.241-1.871C102.167,53.08,111.424,53.148,120.683,53.236Zm1.324,52.813a61.29,61.29,0,0,0,9.877.577c1.815.042,3.6-.012,5.419-.019,1.875-.007,5.7-.617,5.57,2.172-.161,3.506-8.63,2.392-10.993,2.448-1.868.044-3.72.077-5.59.041-.9-.017-3.343.279-4.094-.054a.93.93,0,0,0-.232-.063C121.985,109.441,121.986,107.731,122.007,106.049ZM91.726,53.313h.026c-.084.664-.039,1.345-.073,2.012a13.91,13.91,0,0,0-.013,1.8c-1.594.088-3.189.169-4.785.222-.086-.52-.057-1.113-.108-1.6a10.58,10.58,0,0,0-.645-2.181C88,53.456,89.861,53.361,91.726,53.313ZM80.594,53.9c1.558-.087,3.118-.187,4.679-.281.019,1,.106,2.015.146,3.005.01.259,0,.516.015.763-1.837.032-3.714-.1-5.581-.15a15.027,15.027,0,0,0-.347-1.572,10.905,10.905,0,0,0-.265-1.754C79.717,53.917,80.177,53.921,80.594,53.9Zm-7,2.444a4.51,4.51,0,0,1,2.131-2.167,8.3,8.3,0,0,1,2.434-.278,7.712,7.712,0,0,0-.04,1.954c.062.452.111.913.186,1.367a23.431,23.431,0,0,0-2.547.148C74.62,57.5,72.838,58.19,73.594,56.342Zm46.932,31.283c-.055,5.324-.179,10.684-.344,16.01-.134,4.336-.018,8.863-.394,13.189l0,0c-8.222-.184-16.455-.228-24.675-.289-4.96-.037-9.956-.138-14.914-.288-3.015-.091-6.8.432-7.75-3.212-.625-2.393-.139-5.531-.185-8.012-.2-10.756-.282-21.652.024-32.408.068-2.4.258-4.791.465-7.178a14.183,14.183,0,0,1,.643-4.32c.931-1.938,2.923-1.881,4.728-1.878,5.446.008,10.834-.059,16.272-.43,8.716-.6,17.324-1.441,26-1.712-.67,4.744-.015,9.761.063,14.5C120.54,76.938,120.581,82.291,120.526,87.625ZM170,94.155c-.113,4.964-.11,9.937-.292,14.9-.12,3.26.734,8.553-3.695,9.153-2.088.283-4.341-.072-6.457,0-5.694.205-11.488-.5-17.158-.962-5.184-.42-10.442-.052-15.65-.229-1.671-.057-3.344-.094-5.016-.136.108-1.321.165-2.667.2-4.02,1.078.409,2.812.113,3.765.139,2.8.078,5.562-.081,8.358-.107,2.631-.025,9.541,1.166,10.3-2.205,1.1-4.925-1.717-5.6-5.847-5.652-2.863-.036-5.725.038-8.589.021-.842,0-6.84-.287-7.893-.028,0-.064,0-.129,0-.193.115-5.558.35-11.128.427-16.682q.028-2.042.026-4.086c5.565-.505,11.146-.039,16.7-.58,1.575-.153,4.8-.083,5.9-1.3,1.244-1.377.483-4.983.515-6.674.033-1.736.652-4.553-1.09-5.6-.919-.55-2.5-.038-3.5-.006-1.381.044-2.786.068-4.166.039-3.353-.071-6.706-.2-10.06-.259a26.145,26.145,0,0,0-4.417-.039c0-1.575,0-3.168-.014-4.761,1.029-.343,4.584-.086,5.226-.1,2.356-.044,4.716.054,7.069.165,4.2.2,8.4.409,12.6.582,7.555.31,15.188.707,22.749.743C170.307,75.571,170.211,84.846,170,94.155Zm-26.1-13.81c-.45.938-.928.815-1.987,1a61.956,61.956,0,0,1-7.578.647c-3.963.185-7.9-.142-11.868.218-.015-3.333-.061-6.668-.093-10,0-.495-.007-.994-.009-1.494a44.474,44.474,0,0,1,5,.311q3.192.073,6.381.185c2.42.082,4.842.16,7.264.092,1.685-.047,2.778-.9,3.131,1.715a23.8,23.8,0,0,1-.2,3.54C143.919,77.488,144.295,79.531,143.9,80.345Z" transform="translate(-70.248 -51.098)"/></g></g><g transform="translate(25.496 19.987)"><path class="b" d="M98.864,114.88a21.461,21.461,0,0,0-2.283-2.023c-.414-.373-.808-.773-1.205-1.163-.27-.265-.925-.638-.758-1.083.262-.7,1.526-1.3,2.052-1.868s.993-1.363,1.537-1.877a.7.7,0,0,0-.841-1.09,14.592,14.592,0,0,0-3.023,2.681c-.639.657-2.116,1.573-1.961,2.676.147,1.05,1.7,2.073,2.4,2.736.894.848,2.017,2.179,3.245,2.456A.872.872,0,0,0,98.864,114.88Z" transform="translate(-92.37 -105.685)"/></g><g transform="translate(34.262 16.914)"><g transform="translate(0 0)"><path class="b" d="M129.391,95.179c-.793,2.34-2.493,4.438-3.464,6.732-.718,1.7-1.97,3.827-1.778,5.732.041.409.574.756.9.373,1.391-1.626,1.9-4.206,2.832-6.134.964-1.991,2.783-4.056,3.235-6.228A.9.9,0,0,0,129.391,95.179Z" transform="translate(-124.13 -94.549)"/></g></g><g transform="translate(41.044 21.099)"><g transform="translate(0 0)"><path class="b" d="M153.162,112.231c-1.113-.8-2.32-2.23-3.714-2.508a.449.449,0,0,0-.544.309c-.352,1.924,2.671,3.307,4.156,4.569a15.4,15.4,0,0,1-2.2,2.184,10.627,10.627,0,0,0-2.063,2.323.749.749,0,0,0,.638,1.112c1.306.133,2.449-1.674,3.261-2.516.72-.747,2.595-2.091,2.488-3.322C155.1,113.427,153.856,112.727,153.162,112.231Z" transform="translate(-148.701 -109.713)"/></g></g><g transform="translate(25.496 50.07)"><g transform="translate(0 0)"><path class="b" d="M98.864,223.867a21.453,21.453,0,0,0-2.283-2.023c-.414-.373-.808-.773-1.205-1.163-.27-.265-.925-.638-.758-1.083.262-.7,1.526-1.3,2.052-1.868s.993-1.363,1.537-1.877a.7.7,0,0,0-.841-1.09,14.592,14.592,0,0,0-3.023,2.681c-.639.657-2.116,1.573-1.961,2.676.147,1.05,1.7,2.073,2.4,2.736.894.848,2.017,2.179,3.245,2.456A.872.872,0,0,0,98.864,223.867Z" transform="translate(-92.37 -214.672)"/></g></g><g transform="translate(34.262 46.997)"><g transform="translate(0 0)"><path class="b" d="M129.391,204.167c-.793,2.34-2.493,4.438-3.464,6.732-.718,1.7-1.97,3.827-1.778,5.732.041.408.574.755.9.373,1.391-1.626,1.9-4.206,2.832-6.134.964-1.991,2.783-4.056,3.235-6.228A.9.9,0,0,0,129.391,204.167Z" transform="translate(-124.13 -203.537)"/></g></g><g transform="translate(41.044 51.182)"><path class="b" d="M153.162,221.218c-1.113-.8-2.32-2.23-3.714-2.508a.449.449,0,0,0-.544.309c-.352,1.924,2.671,3.306,4.156,4.569a15.405,15.405,0,0,1-2.2,2.184,10.633,10.633,0,0,0-2.063,2.323.75.75,0,0,0,.638,1.112c1.306.133,2.449-1.674,3.261-2.516.72-.747,2.595-2.091,2.488-3.322C155.1,222.414,153.856,221.714,153.162,221.218Z" transform="translate(-148.701 -218.7)"/></g><g transform="translate(26.525 35.97)"><path class="b" d="M102.774,169.577a16.719,16.719,0,0,1-2.752.239c-1.049-.17-2.192-.68-2.021-1.918a3.114,3.114,0,0,1,1.893-2.253c.436-.191,2.155-.6,2.564-.2a.6.6,0,0,0,.94-.725c-.689-1.382-2.9-1.291-4.113-.835a5.037,5.037,0,0,0-3.129,3.637c-.674,3.625,4.785,5.619,7.042,3.071A.606.606,0,0,0,102.774,169.577Z" transform="translate(-96.099 -163.589)"/></g><g transform="translate(35.169 37.003)"><path class="b" d="M134.71,169.381c-.813-2.057-2.388-2.4-4.377-1.762a3.834,3.834,0,0,0-2.915,3.353,3.6,3.6,0,0,0,4.136,3.807,4.2,4.2,0,0,0,2.99-1.775A4.392,4.392,0,0,0,134.71,169.381Zm-3.253,3.645a1.933,1.933,0,0,1-2.425-1.644,2.433,2.433,0,0,1,1.458-2.561c1.291-.619,2.053-.139,2.607,1.11A2.171,2.171,0,0,1,131.456,173.027Z" transform="translate(-127.415 -167.33)"/></g><g transform="translate(43.959 29.427)"><g transform="translate(0 0)"><path class="b" d="M167.663,140.476a.834.834,0,0,0-1.629.221c-.19,2.161-.145,4.454-.194,6.629-.006.246-.015.5-.027.759-.026-.026-.048-.054-.075-.079-3-2.857-7.739,2-6.166,5.3,1.263,2.647,4.725,2.027,6.643.545,1.574-1.216,1.608-3.477,1.592-5.285C167.783,145.963,168.387,143.006,167.663,140.476Zm-3.878,12.969c-1.286.473-3.375.008-3.224-1.762.1-1.139,1.632-3.017,2.809-3.072a1.922,1.922,0,0,1,1.637,1A2.468,2.468,0,0,1,163.785,153.445Z" transform="translate(-159.261 -139.883)"/></g></g><g transform="translate(54.401 36.135)"><g transform="translate(0 0)"><path class="b" d="M203.686,170.646a5.266,5.266,0,0,1-3.842-.426,1.98,1.98,0,0,1-.444-.371,6.209,6.209,0,0,0,1.62-.336,3.893,3.893,0,0,0,2.748-2.07c.966-2.608-2.042-3.772-4.079-3.041a4.367,4.367,0,0,0-2.108,5.966A5.292,5.292,0,0,0,204.255,172,.743.743,0,0,0,203.686,170.646Zm-4.027-4.324c.946-.8,3.62-.385,2.14,1.072-.8.783-1.988.8-2.939,1.255A2.537,2.537,0,0,1,199.659,166.322Z" transform="translate(-197.091 -164.188)"/></g></g><g transform="translate(72.997 41.038)"><g transform="translate(0 0)"><path class="b" d="M286.466,182.16c-3.394-.3-6.882-.188-10.286-.19-3.473,0-7.415.531-10.842.069a.7.7,0,0,0-.374,1.357c3.1,1.032,7.373.391,10.6.4,3.306.006,7.931.905,11.077-.379A.642.642,0,0,0,286.466,182.16Z" transform="translate(-264.461 -181.95)"/></g></g><g transform="translate(72.997 45.221)"><path class="b" d="M286.466,197.313c-3.394-.3-6.882-.188-10.286-.19-3.473,0-7.415.531-10.842.069a.7.7,0,0,0-.374,1.357c3.1,1.032,7.373.391,10.6.4,3.306.006,7.931.905,11.077-.379A.642.642,0,0,0,286.466,197.313Z" transform="translate(-264.461 -197.104)"/></g><g transform="translate(72.997 49.403)"><g transform="translate(0 0)"><path class="b" d="M286.466,212.466c-3.394-.3-6.882-.188-10.286-.19-3.473,0-7.415.531-10.842.069a.7.7,0,0,0-.374,1.357c3.1,1.032,7.373.391,10.6.4,3.306.006,7.931.905,11.077-.379A.642.642,0,0,0,286.466,212.466Z" transform="translate(-264.461 -212.256)"/></g></g><g transform="translate(72.997 53.586)"><path class="b" d="M286.466,227.619c-3.394-.3-6.882-.188-10.286-.19-3.473,0-7.415.531-10.842.069a.7.7,0,0,0-.374,1.357c3.1,1.032,7.373.39,10.6.4,3.306.006,7.931.905,11.077-.379A.642.642,0,0,0,286.466,227.619Z" transform="translate(-264.461 -227.41)"/></g><g transform="translate(98.389 24.388)"><g transform="translate(0 0)"><path class="b" d="M372.876,121.837a65.67,65.67,0,0,0-7.676-.19c-2.592,0-5.534.531-8.091.069-.653-.118-.94,1.062-.279,1.357,2.311,1.032,5.5.39,7.907.4,2.467.006,5.919.905,8.266-.379C373.5,122.82,373.433,121.9,372.876,121.837Z" transform="translate(-356.454 -121.628)"/></g></g><g transform="translate(98.389 28.571)"><path class="b" d="M372.876,136.991a65.66,65.66,0,0,0-7.676-.19c-2.592,0-5.534.531-8.091.069-.653-.118-.94,1.062-.279,1.357,2.311,1.032,5.5.391,7.907.4,2.467.006,5.919.905,8.266-.379C373.5,137.974,373.433,137.057,372.876,136.991Z" transform="translate(-356.454 -136.781)"/></g><g transform="translate(98.389 32.753)"><g transform="translate(0 0)"><path class="b" d="M372.876,152.145a65.666,65.666,0,0,0-7.676-.19c-2.592,0-5.534.531-8.091.069-.653-.118-.94,1.062-.279,1.357,2.311,1.032,5.5.391,7.907.4,2.467.006,5.919.905,8.266-.379C373.5,153.127,373.433,152.211,372.876,152.145Z" transform="translate(-356.454 -151.935)"/></g></g><g transform="translate(98.389 36.936)"><g transform="translate(0 0)"><path class="b" d="M372.876,167.3a65.666,65.666,0,0,0-7.676-.19c-2.592,0-5.534.531-8.091.069-.653-.118-.94,1.062-.279,1.357,2.311,1.032,5.5.39,7.907.4,2.467.006,5.919.905,8.266-.379C373.5,168.281,373.433,167.364,372.876,167.3Z" transform="translate(-356.454 -167.088)"/></g></g><g transform="translate(98.389 41.038)"><g transform="translate(0 0)"><path class="b" d="M372.876,182.159a65.66,65.66,0,0,0-7.676-.19c-2.592,0-5.534.531-8.091.069-.653-.118-.94,1.062-.279,1.358,2.311,1.032,5.5.391,7.907.4,2.467.006,5.919.905,8.266-.379C373.5,183.142,373.433,182.225,372.876,182.159Z" transform="translate(-356.454 -181.949)"/></g></g><g transform="translate(98.389 45.14)"><path class="b" d="M372.876,197.022a65.673,65.673,0,0,0-7.676-.19c-2.592,0-5.534.531-8.091.069-.653-.118-.94,1.062-.279,1.357,2.311,1.032,5.5.391,7.907.4,2.467.006,5.919.905,8.266-.379C373.5,198,373.433,197.087,372.876,197.022Z" transform="translate(-356.454 -196.812)"/></g><g transform="translate(98.389 49.243)"><g transform="translate(0 0)"><path class="b" d="M372.876,211.884a65.666,65.666,0,0,0-7.676-.19c-2.592,0-5.534.531-8.091.069-.653-.118-.94,1.062-.279,1.357,2.311,1.032,5.5.39,7.907.4,2.467.006,5.919.905,8.266-.379C373.5,212.866,373.433,211.95,372.876,211.884Z" transform="translate(-356.454 -211.674)"/></g></g><g transform="translate(97.26 53.253)"><g transform="translate(0 0)"><path class="b" d="M369.721,227.172c-1.819-1.277-5.176-1.041-7.8-.7-1.273-.079-2.515-.129-3.625-.192-2.233-.128-4.183.053-5.108,2.231-1.121,2.638-.982,7.044-.3,9.722.612,2.4,2.586,2.876,4.82,3.218,2.982.457,6.721.879,9.627-.031,2.667-.835,3.247-3.012,3.545-5.594C371.133,233.673,371.881,228.688,369.721,227.172Zm-.562,9.422c-.882,4.015-4.235,3.738-7.61,3.582-1.543-.071-3.57.035-5-.578-3.148-1.353-3.939-10.966.186-11.72,2.127-.389,4.652.386,6.774.491,1.39.068,3.014-.384,4.366.033.944.291,1.275,1.254,1.478,2.19A14.512,14.512,0,0,1,369.158,236.595Z" transform="translate(-352.364 -226.204)"/></g></g></g></g></svg>