<svg xmlns="http://www.w3.org/2000/svg" width="160" height="160" viewBox="0 0 160 160"><defs><style>.a{fill:none;}.b{fill:#0e1013;}</style></defs><g transform="translate(-937.44 -1458.44)"><rect class="a" width="160" height="160" transform="translate(937.44 1458.44)"/><g transform="translate(952.177 1476.197)"><g transform="translate(80.623 65.38)"><path class="b" d="M364.462,273.174c-2.47-2.069-5.8-3.207-8.674-4.583-4.461-2.138-6.148-4.089-10.259-.873a6.171,6.171,0,0,0-.762.665c-.8.9-1.559,1.924-2.283,2.9-2.578,3.464-5.265,6.814-8.064,10.1-4.5,5.293-9.206,10.444-13.671,15.764-1.706,2.033-3.861,4.047-4.132,6.81-.338,3.435-.011,6.974-.247,10.421-.163,2.38-.516,3.872,1.758,5.219a38.192,38.192,0,0,0,8.656,3.761c2.533.753,5.42,2.018,8.05,2.26,2.977.274,3.909-1.727,5.474-3.9,4.341-6.023,9.138-11.708,13.5-17.717,1.956-2.693,3.47-5.681,5.522-8.3,1.833-2.336,3.771-4.312,4.9-7.136.929-2.326,1.04-5.246,1.488-7.705C366.2,278.2,366.763,275.1,364.462,273.174ZM340,278.958c1.737-2.247,3.4-4.531,5.075-6.815.441-.51.882-1.023,1.331-1.543,1.807-2.091,2.509-2.481,5.031-1.089,2.36,1.3,4.868,2.268,7.251,3.512a18.161,18.161,0,0,1,3.069,1.771,144.372,144.372,0,0,0-10.82,14.68c-.85-.354-1.866-.568-2.651-.874-1.909-.742-3.776-1.6-5.672-2.371a38.829,38.829,0,0,0-6.637-2.263C337.34,282.313,338.689,280.649,340,278.958Zm-18.469,21.779c1.757-2.18,3.666-4.2,5.5-6.306,2.607-2.991,5.218-6,7.772-9.056,4.393,1.561,8.635,3.291,12.981,5.035a20.73,20.73,0,0,1,2.02.8c-1.981,3.067-4.089,6.047-6.071,9.113-1.663,2.572-4.1,5.254-5.171,8.219-.083-.049-.165-.1-.259-.146a22.559,22.559,0,0,0-4.134-1.122c-1.889-.512-3.749-1.127-5.593-1.781-1.74-.617-3.28-1.437-5.062-1.962a23.5,23.5,0,0,1-3.176-1.051A11.189,11.189,0,0,1,321.528,300.736ZM335.259,322.7c-2.028.112-5.825-1.639-7.225-2.046a35.569,35.569,0,0,1-7.068-2.942c-1.317-.706-1.654-.79-1.737-2.568a42.559,42.559,0,0,1,.221-4.832c.1-1.4,0-2.807.041-4.211a9.642,9.642,0,0,1,.3-2.249,16.083,16.083,0,0,0,3.276,1.315c3.2,1.111,6.217,2.55,9.5,3.533,1.277.382,4.008.538,4.844,1.625.674.876-.22,3.038-.5,4.123C336.261,317.024,335.132,319.981,335.259,322.7Zm15.2-25.384c-.339,2.5-.536,5.04-.847,7.54-2.973,3.942-6.107,7.77-9.13,11.667-.729.94-1.45,1.881-2.146,2.845-.282.391-.6.974-.943,1.54.593-2.678,1.184-5.355,1.794-8.039.33-1.454.828-2.634.217-3.573,1.978-2.663,10.708-15.085,11.6-16.453l.056-.083A21.121,21.121,0,0,1,350.458,297.313Zm12.279-16.291c-.527,3.219-.859,5.991-2.559,8.828a60.381,60.381,0,0,1-3.694,4.845c-1.423,1.909-2.479,4.042-3.839,5.991-.3.431-.609.856-.916,1.283.245-1.719.491-3.44.713-5.159s.988-4.484.011-6.133c3.288-4.884,6.815-9.59,10.423-14.223C363.368,277.915,362.975,279.571,362.737,281.022Z" transform="translate(-316.248 -266.017)"/></g><g transform="translate(0.204 0)"><g transform="translate(0 0)"><path class="b" d="M119.006,11.424c-3.783-2.842-9.311-1.962-13.463-.479-2.427.867-4.867,1.866-7.258,2.831a20.434,20.434,0,0,0-2,.969c-.661.2-1.324.4-1.984.611-5.624,1.8-11.135,3.834-16.658,5.918C66.72,25.393,55.6,29,44.611,32.951,39.729,34.705,35,36.9,30.219,38.914c-4.148,1.748-9,3.331-12.384,6.384C13.883,48.859,10.665,53.072,7.118,57c-2,2.216-5.593,5.181-6.245,8.256-.8,3.773,5.081,2.666,7.113,2.479,5.181-.477,10.309-.233,15.482-.565,4.363-.28,8.331-2.549,12.337-4.3,5.373-2.348,10.83-4.6,16.274-6.782,10.494-4.2,21.1-8.124,31.613-12.271,9.514-3.752,18.869-7.927,28.262-11.941,3.907-1.669,9.846-3.615,10.984-8.295C123.908,19.593,122.357,13.941,119.006,11.424ZM23.935,44.731c8.446-4,17.159-7.473,25.892-10.766,10.723-4.043,21.651-7.507,32.334-11.673,3.564-1.39,7.156-2.7,10.76-3.969,1.71,1.7,3.7,3.011,5.333,4.816-5.03,2.46-10.729,3.62-15.847,6-6.772,3.149-13.672,5.9-20.6,8.666-6.274,2.506-12.527,5.129-18.739,7.788-3.878,1.66-7.757,3.262-11.7,4.75-1.19.449-2.587.832-3.834,1.4a6.1,6.1,0,0,0-.983-4.781,4.611,4.611,0,0,0-2.036-1.8,3.332,3.332,0,0,0-1.213-.11C23.51,44.942,23.72,44.832,23.935,44.731ZM6.384,65.087c-.381.018-2.536.058-2.525.108a20.244,20.244,0,0,1,1.33-1.715c1.021-1.262,2.065-2.512,3.119-3.755A5.534,5.534,0,0,1,9.9,61.518c.532.987.279,2.085.488,3.139a.692.692,0,0,0,.037.09C9.08,64.884,7.732,65.024,6.384,65.087Zm23.443-2.718a31.33,31.33,0,0,1-3.763,1.681C22,65.372,17,64.2,12.772,64.53c-.209.016-.419.038-.628.056A6.263,6.263,0,0,0,9.377,58.47q1.858-2.158,3.76-4.271c2.513-2.792,5.09-5.8,8.207-7.957a4.5,4.5,0,0,1,3.012,1.371,4.048,4.048,0,0,1,.888,5.035c-.219.514-.108,1.323.585,1.437a5.543,5.543,0,0,1,4.53,3.081C31.226,59.047,30.681,60.72,29.826,62.369Zm71.795-29.117c-7.491,3.09-14.94,6.279-22.46,9.3-9.237,3.714-18.594,7.1-27.835,10.805C46.954,55.11,42.643,57,38.278,58.77c-1.913.775-3.788,1.636-5.7,2.422a7.059,7.059,0,0,0-3.971-8.331c1.787-.607,3.73-1.038,5.426-1.623,3.5-1.207,6.885-2.715,10.3-4.136,6.651-2.767,13.31-5.665,20.052-8.2,6.284-2.361,12.444-5.013,18.542-7.821a101.056,101.056,0,0,1,10.467-4,30.961,30.961,0,0,0,6.079-2.354c.028.042.059.079.086.122A14.394,14.394,0,0,1,101.621,33.252Zm4.69-1.924-1.358.551c-.465.189-.928.384-1.393.574-.026-6.407-3.673-11.084-8.731-14.8q1.747-.611,3.5-1.214l.181-.063A17.691,17.691,0,0,1,106.311,31.328ZM117.38,26.08a62.227,62.227,0,0,1-9.054,4.423c-.03-5.322-3.063-11.959-7.843-14.819q3.174-1.109,6.338-2.242c.894-.32,1.936-.541,2.848-.942a11.42,11.42,0,0,1,5.53.187c2.655.814,4.357,3.426,4.845,6.1C120.6,21.845,120.163,24.345,117.38,26.08Z" transform="translate(-0.798 -9.56)"/></g></g><g transform="translate(35.377 52.453)"><path class="b" d="M178.339,222.274c-3.661-3.707-8.156-7.51-13.742-6.9a30.071,30.071,0,0,0-9.51,2.784c-6.619,2.693-12.332,7.924-14.854,14.507-3.977,10.379.325,22.4,10.626,26.964,9.915,4.393,22.5,1.343,28.545-7.827C185.364,242.758,186.421,230.457,178.339,222.274Zm-13.079-4.241c5.238.041,10.156,4.712,12.931,8.8a17.329,17.329,0,0,1,1.919,3.755c-3.569,1.712-7.1,3.547-10.688,5.2-3.082,1.417-6.517,2.578-9.442,4.347.215-1.01.423-2.022.651-3.028.784-3.461,1.5-6.941,2.3-10.4C163.579,223.954,165.028,220.915,165.26,218.033Zm-13.273,3.9a34.965,34.965,0,0,1,11.652-3.825c-.331,1.124-.647,2.246-.965,3.369a14.215,14.215,0,0,0-4.224,1.255c-2.075.755-4.173,1.562-6.19,2.456a60.347,60.347,0,0,0-7.146,3.486A26.065,26.065,0,0,1,151.987,221.938Zm-8.142,8.825c5.971-2.991,12.3-5.031,18.382-7.714q-.487,1.752-.954,3.507c-2.912.56-14.258,5.151-18.8,7.346A21.324,21.324,0,0,1,143.845,230.763ZM142.1,235.1c3.308-.913,6.477-2.23,9.7-3.41,2.947-1.078,5.96-2.689,9.04-3.461-.33,1.268-.648,2.541-.964,3.815-3.518.829-6.905,2.3-10.316,3.474a56.445,56.445,0,0,0-8.148,3.569A20.1,20.1,0,0,1,142.1,235.1Zm-.741,5.791c0-.206.008-.407.01-.611,2.97-.518,5.806-2.31,8.612-3.235,3.149-1.039,6.3-2.1,9.445-3.149-.3,1.23-.59,2.46-.872,3.7a12.42,12.42,0,0,0-2.822.85c-2.1.735-4.227,1.329-6.3,2.059-.633.223-5.44,2.117-7.78,3.325A19.035,19.035,0,0,1,141.356,240.891Zm.568,4.181c.785-.248,1.578-.587,2.248-.8,2.212-.716,4.361-1.961,6.588-2.571,2.047-.561,4.017-1.168,6.043-1.888.427-.152.9-.268,1.339-.426-.255,1.113-.511,2.239-.765,3.369-2.767.874-5.492,1.991-8.2,3.024-.549.209-4.054,1.614-6.113,2.467A17.522,17.522,0,0,1,141.923,245.072ZM154.9,258.046a19.55,19.55,0,0,1-4.254-1.762l1.792-.68c.911-.346,1.842-.662,2.772-.968C155.08,255.777,154.969,256.915,154.9,258.046Zm.536-5.149a9.6,9.6,0,0,0-1.1.438c-.894.4-1.808.716-2.692,1.143-.609.293-1.463.631-2.24,1.054a18.438,18.438,0,0,1-2.971-2.445c.315-.067.559-.12.6-.136,1.116-.391,2.194-.877,3.324-1.232,1.844-.579,3.7-1.137,5.536-1.743C155.729,250.95,155.578,251.924,155.44,252.9Zm-4.723-2.839a26.862,26.862,0,0,0-5.037,2.211,17.527,17.527,0,0,1-2.147-3.094,44.5,44.5,0,0,0,6.5-2.122c2.282-.8,4.69-1.457,6.928-2.4q-.426,1.968-.8,3.953C154.293,248.323,152.464,249.511,150.717,250.058Zm17.867,7.048a20.523,20.523,0,0,1-11.93,1.348c.847-3.51,1.064-7.141,1.763-10.683q.552-2.8,1.126-5.6a14.233,14.233,0,0,0,3.207-1.315c2.356-.976,4.671-2.065,7.008-3.085,2.009-.877,3.957-1.917,5.932-2.864,1.61-.772,3.441-1.461,5.014-2.368C183.022,242.045,177.681,253.173,168.583,257.106Z" transform="translate(-138.767 -215.31)"/></g><g transform="translate(75.468 41.894)"><path class="b" d="M317.254,178.036a2.143,2.143,0,0,0-.07-.28c-.7-2.147-4.591-3.514-6.588-3.848a.987.987,0,0,0-.756,1.794c.934.6,1.865,1.212,2.791,1.834a31.976,31.976,0,0,0-8.546,3.438,37.575,37.575,0,0,0-5.113,3.756c-1.171.96-2.6,1.9-2.928,3.439a.523.523,0,0,0,.95.4c1.828-2.418,5.778-4.787,8.437-6.233a28.451,28.451,0,0,1,9.393-3.291l.174.12c-1.5,2.151-3,4.356-4.591,6.416a.924.924,0,0,0,1.306,1.306C313.484,185.3,317.735,180.728,317.254,178.036Z" transform="translate(-296.027 -173.892)"/></g><g transform="translate(22.205 95.155)"><path class="b" d="M105.008,382.822c-3.06-.235-6.811,2.8-9.2,4.474a24.082,24.082,0,0,0-6.133,6.182,19.981,19.981,0,0,0-.5-3.081c-.231-.91-1.746-.992-1.924,0a21.3,21.3,0,0,0-.041,4.562c.03.929-.1,1.968.634,2.7,1.383,1.377,5.2.81,6.839.495,1.066-.206.768-1.8-.248-1.833-1.127-.037-2.942.334-4.15-.062a22.011,22.011,0,0,1,6.855-7.64c2.407-1.684,5.225-3.787,8.013-4.738A.542.542,0,0,0,105.008,382.822Z" transform="translate(-87.102 -382.809)"/></g><g transform="translate(98.91 36.938)"><path class="b" d="M417.516,154.828c-4.772-.613-9.71-.3-14.515-.277-4.829.023-9.7-.084-14.515.291a.525.525,0,0,0,0,1.05c4.819.376,9.685.268,14.515.291,4.8.023,9.747.335,14.515-.277A.54.54,0,0,0,417.516,154.828Z" transform="translate(-387.98 -154.451)"/></g><g transform="translate(98.91 42.951)"><path class="b" d="M417.516,178.415c-4.772-.613-9.71-.3-14.515-.277-4.829.023-9.7-.084-14.515.291a.525.525,0,0,0,0,1.05c4.819.376,9.685.268,14.515.291,4.8.023,9.747.335,14.515-.277A.54.54,0,0,0,417.516,178.415Z" transform="translate(-387.98 -178.038)"/></g><g transform="translate(98.91 48.965)"><path class="b" d="M417.516,202c-4.772-.613-9.71-.3-14.515-.276-4.829.023-9.7-.085-14.515.291a.525.525,0,0,0,0,1.05c4.819.376,9.685.268,14.515.291,4.8.023,9.747.335,14.515-.277A.54.54,0,0,0,417.516,202Z" transform="translate(-387.98 -201.626)"/></g><g transform="translate(98.91 54.978)"><path class="b" d="M417.516,225.592c-4.772-.613-9.71-.3-14.515-.277-4.829.023-9.7-.085-14.515.291a.525.525,0,0,0,0,1.05c4.819.376,9.685.268,14.515.291,4.8.023,9.747.335,14.515-.277A.54.54,0,0,0,417.516,225.592Z" transform="translate(-387.98 -225.215)"/></g><g transform="translate(0 69.286)"><g transform="translate(0)"><path class="b" d="M29.536,281.714c-4.772-.613-9.71-.3-14.515-.277-4.829.023-9.7-.085-14.515.291a.525.525,0,0,0,0,1.05c4.819.376,9.685.268,14.515.291,4.8.023,9.747.335,14.515-.277A.54.54,0,0,0,29.536,281.714Z" transform="translate(0 -281.337)"/></g></g><g transform="translate(0 75.299)"><g transform="translate(0 0)"><path class="b" d="M29.536,305.3c-4.772-.613-9.71-.3-14.515-.277-4.829.023-9.7-.085-14.515.291a.525.525,0,0,0,0,1.05c4.819.376,9.685.268,14.515.291,4.8.023,9.747.335,14.515-.277A.54.54,0,0,0,29.536,305.3Z" transform="translate(0 -304.925)"/></g></g><g transform="translate(0 81.313)"><g transform="translate(0)"><path class="b" d="M29.536,328.89c-4.772-.613-9.71-.3-14.515-.276-4.829.023-9.7-.085-14.515.291a.525.525,0,0,0,0,1.05c4.819.376,9.685.268,14.515.291,4.8.023,9.747.335,14.515-.277A.54.54,0,0,0,29.536,328.89Z" transform="translate(0 -328.513)"/></g></g><g transform="translate(0 87.326)"><g transform="translate(0)"><path class="b" d="M29.536,352.478c-4.772-.612-9.71-.3-14.515-.276-4.829.023-9.7-.085-14.515.291a.525.525,0,0,0,0,1.05c4.819.376,9.685.268,14.515.291,4.8.023,9.747.335,14.515-.277A.54.54,0,0,0,29.536,352.478Z" transform="translate(0 -352.101)"/></g></g><g transform="translate(2.179 117.808)"><path class="b" d="M58.661,472.044c-8.1-.613-16.476-.3-24.628-.277-8.194.023-16.454-.085-24.628.291-1.144.053-1.147,1,0,1.05,8.176.376,16.433.268,24.628.291,8.144.023,16.539.335,24.628-.277C59.835,473.034,59.838,472.133,58.661,472.044Z" transform="translate(-8.546 -471.667)"/></g><g transform="translate(2.179 123.821)"><path class="b" d="M58.661,495.632c-8.1-.613-16.476-.3-24.628-.276-8.194.023-16.454-.085-24.628.291-1.144.053-1.147,1,0,1.05,8.176.376,16.433.268,24.628.291,8.144.023,16.539.335,24.628-.277C59.835,496.622,59.838,495.721,58.661,495.632Z" transform="translate(-8.546 -495.255)"/></g></g></g></svg>