<svg xmlns="http://www.w3.org/2000/svg" width="34" height="34" viewBox="0 0 34 34"><defs><style>.a{fill:none;}</style></defs><g transform="translate(1.963 -86.503)"><rect class="a" width="34" height="34" transform="translate(-1.963 86.503)"/><g transform="translate(-0.172 95.662)"><path d="M.95,98.142H29.438a.95.95,0,1,0,0-1.9H.95a.95.95,0,1,0,0,1.9Z" transform="translate(0 -96.243)"/><path d="M29.438,180.455H.95a.95.95,0,1,0,0,1.9H29.438a.95.95,0,1,0,0-1.9Z" transform="translate(0 -173.808)"/><path d="M140.245,264.667H121.253a.95.95,0,0,0,0,1.9h18.992a.95.95,0,0,0,0-1.9Z" transform="translate(-110.807 -251.372)"/></g></g></svg>