<svg xmlns="http://www.w3.org/2000/svg" width="24" height="24" viewBox="0 0 24 24"><defs><style>.a{opacity:0.5;}.b{fill:none;}.c{fill:#f04b23;}</style></defs><g class="a"><rect class="b" width="24" height="24" rx="5"/><g transform="translate(1 1)"><rect class="b" width="22" height="22"/><path class="c" d="M624.567,560.725l7.276,7.016a.849.849,0,0,1,0,1.26.925.925,0,0,1-1.306,0l-7.929-7.646a.849.849,0,0,1,0-1.26l7.929-7.646a2.054,2.054,0,0,1,.466-.27h.466c.187,0,.279.09.466.27a1.936,1.936,0,0,1,.28.45v.45c0,.179-.093.269-.28.449Z" transform="translate(-616.272 -549.725)"/></g></g></svg>