<svg xmlns="http://www.w3.org/2000/svg" width="24" height="24" viewBox="0 0 24 24"><defs><style>.a{fill:none;}.b{fill:#f04b23;}</style></defs><g transform="translate(-500 -2892)"><rect class="a" width="24" height="24" rx="5" transform="translate(500 2892)"/><g transform="translate(-1024.601 2666.399)"><rect class="a" width="22" height="22" transform="translate(1525.601 226.601)"/><path class="b" d="M629.978,560.725l-7.276,7.016a.849.849,0,0,0,0,1.26.925.925,0,0,0,1.306,0l7.929-7.646a.849.849,0,0,0,0-1.26l-7.929-7.646a2.054,2.054,0,0,0-.466-.27h-.466c-.187,0-.279.09-.466.27a1.936,1.936,0,0,0-.28.45v.45c0,.179.093.269.28.449Z" transform="translate(909.329 -323.124)"/></g></g></svg>