<svg xmlns="http://www.w3.org/2000/svg" width="80" height="80" viewBox="0 0 80 80"><defs><style>.a{fill:none;}.b{fill:#0e1013;}</style></defs><g transform="translate(-937.41 -1458.41)"><rect class="a" width="80" height="80" transform="translate(937.41 1458.41)"/><g transform="translate(945.661 1465.914)"><g transform="translate(7.602 37.107)"><path class="b" d="M73.541,294.3a3.706,3.706,0,0,0-.745-1.062,3.937,3.937,0,0,0-4.366-.486,4.179,4.179,0,0,0-1.85,1.609,4.385,4.385,0,0,0-.634,2.887,3.942,3.942,0,0,0,5.432,3.1A4.41,4.41,0,0,0,73.541,294.3Zm-2.676,5.261a3.138,3.138,0,0,1-4.138-2.419,3.527,3.527,0,0,1,1.192-3.345c1.865-.9,4.254-.979,4.977,1.406A3.417,3.417,0,0,1,70.865,299.564Z" transform="translate(-65.91 -292.323)"/></g><g transform="translate(47.77 19.067)"><path class="b" d="M390.074,155.386a.6.6,0,0,0-.1-.182,2.947,2.947,0,0,0,.728-3.078c-1.38-3.7-7.758-1.553-6.307,2.205a5.75,5.75,0,0,1,.481,1.216c.144,1.031-.746,2-1.18,2.857a11.47,11.47,0,0,0-1.318,3.176c-.336,2.081,1.764,2.52,3.412,2.587,1.154.047,2.3-.095,3.45-.128.891-.026,1.915.159,2.587-.571C393.539,161.609,390.669,157.2,390.074,155.386Zm-4.818-2.623a2.792,2.792,0,0,1,1.5-1.425,2.259,2.259,0,0,1,2.288.233,1.881,1.881,0,0,1,.509,2.4,2.778,2.778,0,0,1-3.721,1.1A1.747,1.747,0,0,1,385.256,152.764Zm3.451,10.156c-.713.038-1.424.1-2.138.107a5.549,5.549,0,0,1-2.38-.239c-1.066-.529-.673-1.454-.311-2.39.564-1.46,1.186-2.893,1.745-4.356a3.2,3.2,0,0,0,2.2.369,3.853,3.853,0,0,0,1.229-.47c.657,1.8,2.056,3.8,2.022,5.723C391.049,163.143,389.744,162.865,388.707,162.92Z" transform="translate(-382.344 -150.208)"/></g><g transform="translate(0 0)"><g transform="translate(0)"><path class="b" d="M69.349,26.071c-.111-1.845.034-3.681.015-5.527-.011-1.1.109-3.2-.673-4.115-.681-.8-2.231-.654-3.189-.748-.433-.042-5.521-.568-5.561-.329a.884.884,0,0,0,0-.375c-.311-1.543-.146-3.286-.3-4.867-.155-1.559-.259-3.11-.321-4.675-.054-1.371.278-4.053-1.312-4.77a8.686,8.686,0,0,0-2.891-.3C53.511.278,51.906.2,50.3.135,47.071.01,43.836-.051,40.6.054s-6.491.36-9.728.585c-1.637.114-3.273.247-4.9.444a7.727,7.727,0,0,0-2.578.5c-1.493.776-1.251,2.777-1.3,4.2a58.284,58.284,0,0,0,.094,8.676l-.169.008c-.211,0-.421,0-.631.006a105.7,105.7,0,0,0-12.173.479c-2.707.368-3.235,1.28-3.187,3.874A4.277,4.277,0,0,0,6.5,21.332c.748,1.028,2.108.806,3.219.773,2.147-.065,4.3,0,6.442.076,1.1.039,2.2.08,3.3.109q.825.021,1.65.03c.34,0,.823-.028.986.351a4.862,4.862,0,0,1,.024,1.761c-.011.645.006,1.29.015,1.934.012.885-.084,1.769-.05,2.654.044,1.134.354,2.458-.315,3.479-.236.361-.472.773-.895.326-.376-.4-.148-1.443-.139-1.971.006-.346.194-1.2-.041-1.477a.58.58,0,0,0-.38-.156,13.015,13.015,0,0,0-5.689.461c-.259.081.018,1.484.042,1.672a8.105,8.105,0,0,1,.132.954c0,.329-.307.914-.727.663-.823-.492-.371-1.954-1.312-2.326-.676-.267-1.607.5-2.092.856-.564.418-1.836,1.073-2.077,1.793-.2.609.3,1.1.725,1.467.361.307.955.433,1.172.886a.849.849,0,0,1,.077.363,2.152,2.152,0,0,1-.59,1.252l-2.116-.678a.516.516,0,0,0-.358-.025.515.515,0,0,0-.226.289,12.721,12.721,0,0,0-.651,1.572,15.854,15.854,0,0,0-.253,1.72.271.271,0,0,0,.3.384l1.97.146a.566.566,0,0,1,.413.148c.174.213-.01.7-.024.941a13.115,13.115,0,0,0-2.3.462.594.594,0,0,0-.321.165.6.6,0,0,0-.024.534L7.177,45.8a.54.54,0,0,0,.248.389.536.536,0,0,0,.358-.023c.675-.2,1.333-.481,2-.691a.518.518,0,0,1,.437.038.771.771,0,0,1,.236.32l.354.713a.237.237,0,0,1-.084.358,28.647,28.647,0,0,0-2.329,2.027,11.259,11.259,0,0,0,1.121,1.22,19.518,19.518,0,0,0,2.532,1.876.455.455,0,0,0,.35.128.446.446,0,0,0,.229-.186c.557-.72.947-1.568,1.495-2.278a7.927,7.927,0,0,0,1.012.644,10.245,10.245,0,0,0-.737,2.685c.04.249,2.039.317,2.282.32a21.75,21.75,0,0,0,3.634-.255.919.919,0,0,0,.738-.387.933.933,0,0,0-.043-.682L20.344,50c0-.007,1.143-.333,1.222-.357a6.421,6.421,0,0,0,.519,1.351,5.168,5.168,0,0,1,.614,1.845,13.664,13.664,0,0,1-.019,1.9c-.079,1.586-.065,3.175.011,4.76.066,1.378-.171,3.631,1.014,4.645,1.391,1.189,4.34.816,5.989.743,2.873-.127,5.72-.288,8.6-.293,5.892-.01,11.72-.081,17.6-.539,1.634-.127,2.772-.312,3.086-2.122.4-2.31-.35-4.622-.149-6.939a.459.459,0,0,1,.082-.266.469.469,0,0,1,.355-.112,5.589,5.589,0,0,0,3.031-.516,3.313,3.313,0,0,0,.952-2.471,54.89,54.89,0,0,0,.022-7.941c-.038-1.1-.128-2.289-1.218-2.846a4.07,4.07,0,0,0-1.622-.352c-.366-.024-.955.125-1.256-.151a.716.716,0,0,1-.183-.535c0-.885-.127-1.767-.117-2.653.008-.65.079-1.315.141-1.96a7.06,7.06,0,0,1,2.229.031c1.9.095,3.8.345,5.6-.455,2-.911,2.533-3.061,2.632-5.084A33.089,33.089,0,0,0,69.349,26.071Zm-53.783-4.9c-1.519-.055-3.035-.1-4.555-.109-1.622-.007-3.93.484-4.01-1.824-.038-1.089-.213-2.4.822-3.012a2.728,2.728,0,0,1,.439-.2,41.055,41.055,0,0,1,4.523-.1c1.673-.053,3.345-.149,5.017-.226,3.046-.141,6.089-.216,9.136-.284,1.466-.032,2.93-.11,4.4-.153.424-.012.994-.067,1.6-.108.476-.009.951-.022,1.427-.031a.267.267,0,0,0,.048-.01,3.863,3.863,0,0,1,1.6.312c1.2.627.879,3.563.185,4.429-.712.889-2.021.89-3.064.961A168.245,168.245,0,0,1,15.566,21.166Zm7.987,29.505a.594.594,0,0,1-.33.1c-.2-.018-.324-.222-.38-.413a13.977,13.977,0,0,0-.426-1.345c-.067-.167-.2-.647-.391-.708-.18-.056-.715.222-.9.28l-1.937.609.618,3.163a12.259,12.259,0,0,1-2.306.15c-.161,0-1.791-.219-1.81-.064l.267-2.244a.952.952,0,0,0-.023-.468c-.12-.3-.478-.393-.724-.556-.275-.182-.545-.387-.818-.577a5.446,5.446,0,0,0-.526-.431q-.956,1.31-1.833,2.675c-.179-.134-2.118-1.59-2.078-1.646A8.72,8.72,0,0,1,10.91,48a11.188,11.188,0,0,0,1.068-1.022,16.31,16.31,0,0,0-.715-1.855c-.064-.131-.377-1.069-.512-1.092l-2.73.991c-.2-.614-.39-1.219-.532-1.85a6.867,6.867,0,0,1,2.381-.326c.019-.225.228-2.963.3-2.955l-2.781-.327c.111-.409.208-1.644.7-1.783a.766.766,0,0,1,.395.03l2.426.623c.364-.755.7-1.513,1.069-2.263a.455.455,0,0,0-.1-.679,12.627,12.627,0,0,1-1.253-1.165c-.258-.317-.468-.674-.745-.984a20.28,20.28,0,0,1,2.341-1.625,10,10,0,0,0,.617,1.188,4.3,4.3,0,0,0,.638.976,1.65,1.65,0,0,0,2.209-.737,2.132,2.132,0,0,0,.039-.913l-.157-1.536a.326.326,0,0,1,.338-.442,16.294,16.294,0,0,1,3.738-.226c-.019,1.135.025,2.256,0,3.386l2.505.658a15.763,15.763,0,0,1,1.226-2.334,11.17,11.17,0,0,1,2.3,1.7c-.425.4-.822.834-1.239,1.235-.307.295-.811.443-.939.892a1.253,1.253,0,0,0,.124.791,17.26,17.26,0,0,0,1,2.073c.684-.239,1.42-.325,2.079-.6a.578.578,0,0,1,.938.32,7.455,7.455,0,0,1,.281,1.2,7.3,7.3,0,0,1-1.113.286,6.268,6.268,0,0,0-1.736.65l.161,2.084a.281.281,0,0,0,.331.315,10.805,10.805,0,0,1,2,.4.279.279,0,0,1,.225.435l-.4,1.336a10.01,10.01,0,0,1-1.4-.3A8.448,8.448,0,0,0,25,44.175a.57.57,0,0,0-.68.386c-.229.682-.882,1.672-.673,2.419.087.311.457.52.676.747q.541.561,1.079,1.124c.117.122.244.274.209.44a.525.525,0,0,1-.261.293Q24.472,50.161,23.553,50.672Zm.357.985a8.733,8.733,0,0,0,.907-.625c.657-.487,1.62-.876,2.01-1.639.294-.575-.074-.769-.5-1.128q-.741-.625-1.519-1.2l.574-1.511a5.482,5.482,0,0,0,2.234.3,1.655,1.655,0,0,0,1.052-1.331c.171-.656.6-1.49.15-2.14s-1.736-.447-2.41-.473a.276.276,0,0,1-.335-.319l-.042-.95a25.72,25.72,0,0,1,2.623-.357.376.376,0,0,0,.386-.551,16.117,16.117,0,0,0-.813-2.846.381.381,0,0,0-.54-.31c-.75.18-1.51.3-2.261.483a.354.354,0,0,1-.294-.014.35.35,0,0,1-.1-.138l-.55-1.155c0,.007,1.551-1.018,1.692-1.108.463-.294.919-.738.715-1.349a3.067,3.067,0,0,0-1.4-1.409c-.4-.25-1.2-.373-1.44-.786a1.042,1.042,0,0,1-.111-.443c-.119-1.308-.067-2.647-.111-3.961a26.076,26.076,0,0,0-.36-4.387c3.428-.044,6.868-.17,10.283-.442,2.007-.16,3.621-.826,4.039-2.975a6.152,6.152,0,0,0-.256-3.494c-.476-1-1.246-1.111-2.27-1.2a88.675,88.675,0,0,0-11.853.2c.255-2.273.214-4.575.275-6.86a31.537,31.537,0,0,1,.145-3.607c.171-1.187,1.055-1.05,2.14-1.183,5.163-.629,10.463-.94,15.662-1.053,2.541-.055,5.084-.015,7.624.072q1.9.065,3.8.161a16.387,16.387,0,0,1,3.848.2c.643.213.323-.106.586.731a6.827,6.827,0,0,1,.112,1.605c.059,1.182.073,2.366.161,3.546.1,1.4.31,2.792.392,4.194a26.024,26.024,0,0,0,.139,3.126c-.454-.006-.906-.013-1.351-.026-1.965-.058-5.5-.712-6.954,1.077a5.42,5.42,0,0,0-.86,3.178c-.084,1.776-.081,3.567-.036,5.344.047,1.847.022,3.667-.023,5.511-.027,1.086-.068,2.6.723,3.475.708.786,1.881.773,2.849.866,1.487.143,2.982.218,4.471.342-.227-.019.437,4.907-.207,5.285a1.016,1.016,0,0,1-.47.1c-2.065.1-5.1-.69-6.831.785-1.459,1.241-.778,4.19-.79,5.811-.01,1.379-.015,2.769-.079,4.147-.033.725-.215,1.588.295,2.2.846,1.016,3.086.707,4.256.825,1.238.125,2.541.27,3.847.344a7.757,7.757,0,0,0-.091,1.44,20.156,20.156,0,0,0-2.438.141c-1.582.1-3.191.043-4.776.071-3.1.054-6.191.091-9.288.048-3.023-.042-6.046-.108-9.07-.127a64.52,64.52,0,0,0-7.245-.13C24.169,54.578,24.1,53.115,23.91,51.657Zm32.836,10.57c-.726.362-2.166.18-2.992.248-4.8.4-9.606.351-14.415.355-2.244,0-4.491-.02-6.732.116a35.368,35.368,0,0,1-6.612.113c-1.261-.161-1.374-.651-1.483-1.846-.105-1.15-.166-2.3-.214-3.454q-.021-.5-.039-1c5.314.236,10.613.407,15.937.507,2.974.056,5.944.048,8.918.008,1.439-.019,2.878-.023,4.317-.036a28.856,28.856,0,0,1,3.672-.146c.064.768.161,1.536.191,2.284C57.327,60.244,57.617,61.793,56.746,62.227Zm5.329-19.212a17.242,17.242,0,0,1,.14,2.754c.1,1.886.408,4.537-.226,6.351-.737,2.107-5.263,1.23-7.015,1.093-1-.079-2-.218-3.007-.281-1.172-.073-1.878.077-2.076-1.336-.3-2.127.08-4.495,0-6.655a6,6,0,0,1,0-1.52c.389-1.653,1.079-1.674,2.372-1.828a22.117,22.117,0,0,1,3.015-.065c.333.006.666,0,1-.006.729.03,1.458.063,2.193.079C59.831,41.631,61.713,41.448,62.075,43.015Zm5.655-10.744c-1.1,2.262-4.216,1.875-6.3,1.711-2.493-.2-4.99-.147-7.484-.322a8.572,8.572,0,0,1-2.105-.192,2.307,2.307,0,0,1-1.589-2.485c-.035-1.23.093-2.463.069-3.7-.053-2.653-.2-5.333-.008-7.985.137-1.854.9-2.634,2.393-2.845,2.587.356,5.292.2,7.894.3,1.364.052,2.727.128,4.091.183a18.578,18.578,0,0,1,2.226.111c.874.144.934.332,1.072,1.181.429,2.636-.01,5.363.157,8.019C68.265,28.173,68.6,30.475,67.729,32.271Z" transform="translate(-6.026 0)"/></g></g><g transform="translate(45.328 42.642)"><path class="b" d="M370.971,343.6a9.106,9.106,0,0,1-2.083-2.111,3.857,3.857,0,0,0,.156-4.425c-1.951-2.614-5.446-.266-5.886,2.283a3.2,3.2,0,0,0,5.021,3.064,8.749,8.749,0,0,0,2.193,2.217C371.007,345.059,371.606,344.027,370.971,343.6Zm-3.788-1.91a2.026,2.026,0,0,1-2.992-1.7,2.867,2.867,0,0,1,.062-.922l0-.006c.484-1.471,2.557-2.951,3.868-1.443C369.131,338.778,368.449,341.006,367.183,341.693Z" transform="translate(-363.11 -335.925)"/></g><g transform="translate(32.216 57.906)"><path class="b" d="M264.233,456.865a2.285,2.285,0,0,0-2.759-.424,2.781,2.781,0,0,0-1.564,1.677c-.651,2.182,2.138,2.981,3.6,1.909A2.321,2.321,0,0,0,264.233,456.865Zm-2.077,2.7a1.107,1.107,0,0,1-1.3-.6,1.028,1.028,0,0,1-.067-.62,1.824,1.824,0,0,1,.988-1.023c.521-.231,1.444-.358,1.744.277C263.944,458.495,262.954,459.4,262.156,459.56Z" transform="translate(-259.813 -456.173)"/></g><g transform="translate(19.907 4.24)"><path class="b" d="M171.092,38.845q-.031-2.339-.182-4.675a.674.674,0,0,0-.849-.768c-1.074.012-2.142.063-3.209.091l-2.9.076a1.348,1.348,0,0,0-.628.119.909.909,0,0,0-.415.715c-.034.346.03.673-.009,1.018-.044.382-.014.772-.034,1.156-.084,1.585.2,3.165.1,4.739a1.376,1.376,0,0,0,.007.382c.114.531,1.059.3,1.445.291,1.951-.052,3.9-.144,5.852-.208a.706.706,0,0,0,.834-.872Q171.106,39.878,171.092,38.845Zm-.812,1.588a.691.691,0,0,1-.094.159,1.123,1.123,0,0,1-.921.317c-.512-.009-.987.079-1.493.081-1.2.006-2.4.115-3.6.015a11.78,11.78,0,0,1-.127-2.58c.042-1.3-.041-2.605-.032-3.905a18.169,18.169,0,0,1,2.208-.18c.58-.035,1.16-.065,1.74-.081.471-.013,1.246-.2,1.574.214a1.766,1.766,0,0,1,.283.905l.51,4.229A1.643,1.643,0,0,1,170.28,40.433Z" transform="translate(-162.847 -33.402)"/></g><g transform="translate(29.808 4.24)"><path class="b" d="M249.093,38.845q-.031-2.339-.182-4.675a.674.674,0,0,0-.849-.768c-1.074.012-2.142.063-3.209.091l-2.9.076a1.348,1.348,0,0,0-.628.119.909.909,0,0,0-.415.715c-.034.346.03.673-.009,1.018-.044.382-.014.772-.034,1.156-.084,1.585.2,3.165.1,4.739a1.377,1.377,0,0,0,.006.382c.114.531,1.059.3,1.445.291,1.951-.052,3.9-.144,5.852-.208a.706.706,0,0,0,.834-.872Q249.106,39.878,249.093,38.845Zm-.812,1.588a.692.692,0,0,1-.094.159,1.123,1.123,0,0,1-.921.317c-.512-.009-.987.079-1.493.081-1.2.006-2.4.115-3.6.015a11.779,11.779,0,0,1-.127-2.58c.042-1.3-.041-2.605-.032-3.905a18.167,18.167,0,0,1,2.208-.18c.579-.035,1.16-.065,1.74-.081.471-.013,1.246-.2,1.574.214a1.766,1.766,0,0,1,.283.905l.51,4.229A1.643,1.643,0,0,1,248.281,40.433Z" transform="translate(-240.848 -33.402)"/></g><g transform="translate(39.709 4.24)"><path class="b" d="M327.093,38.845q-.031-2.339-.182-4.675a.674.674,0,0,0-.849-.768c-1.074.012-2.142.063-3.209.091l-2.9.076a1.348,1.348,0,0,0-.628.119.909.909,0,0,0-.415.715c-.034.346.03.673-.009,1.018-.044.382-.014.772-.034,1.156-.084,1.585.2,3.165.1,4.739a1.376,1.376,0,0,0,.006.382c.114.531,1.059.3,1.445.291,1.951-.052,3.9-.144,5.852-.208a.706.706,0,0,0,.834-.872Q327.106,39.878,327.093,38.845Zm-.812,1.588a.688.688,0,0,1-.094.159,1.123,1.123,0,0,1-.921.317c-.512-.009-.987.079-1.493.081-1.2.006-2.4.115-3.6.015a11.78,11.78,0,0,1-.127-2.58c.042-1.3-.041-2.605-.032-3.905a18.167,18.167,0,0,1,2.208-.18c.579-.035,1.16-.065,1.74-.081.471-.013,1.246-.2,1.574.214a1.766,1.766,0,0,1,.283.905l.51,4.229A1.643,1.643,0,0,1,326.281,40.433Z" transform="translate(-318.848 -33.402)"/></g><g transform="translate(21.811 24.741)"><path class="b" d="M186.092,200.345q-.031-2.339-.182-4.675a.674.674,0,0,0-.849-.768c-1.074.012-2.142.063-3.209.091l-2.9.076a1.349,1.349,0,0,0-.628.119.909.909,0,0,0-.415.715c-.034.346.03.673-.009,1.018-.044.382-.014.772-.034,1.156-.084,1.585.2,3.165.1,4.739a1.376,1.376,0,0,0,.006.382c.114.531,1.059.3,1.445.291,1.951-.052,3.9-.144,5.852-.208a.706.706,0,0,0,.834-.872Q186.106,201.378,186.092,200.345Zm-.812,1.588a.691.691,0,0,1-.094.159,1.123,1.123,0,0,1-.921.317c-.512-.009-.987.079-1.493.081-1.2.006-2.4.115-3.6.015a11.778,11.778,0,0,1-.127-2.58c.042-1.3-.041-2.6-.032-3.905a18.17,18.17,0,0,1,2.208-.18c.58-.035,1.16-.065,1.74-.081.471-.013,1.246-.2,1.574.214a1.766,1.766,0,0,1,.283.905l.51,4.229A1.643,1.643,0,0,1,185.28,201.934Z" transform="translate(-177.847 -194.902)"/></g><g transform="translate(31.776 24.741)"><path class="b" d="M264.593,200.345q-.031-2.339-.182-4.675a.674.674,0,0,0-.849-.768c-1.074.012-2.142.063-3.209.091l-2.9.076a1.349,1.349,0,0,0-.628.119.909.909,0,0,0-.415.715c-.034.346.03.673-.009,1.018-.044.382-.014.772-.034,1.156-.084,1.585.2,3.165.1,4.739a1.377,1.377,0,0,0,.006.382c.114.531,1.059.3,1.445.291,1.951-.052,3.9-.144,5.852-.208a.705.705,0,0,0,.834-.872Q264.606,201.378,264.593,200.345Zm-.812,1.588a.692.692,0,0,1-.094.159,1.123,1.123,0,0,1-.921.317c-.512-.009-.987.079-1.493.081-1.2.006-2.4.115-3.6.015a11.778,11.778,0,0,1-.127-2.58c.042-1.3-.041-2.6-.032-3.905a18.171,18.171,0,0,1,2.208-.18c.579-.035,1.16-.065,1.74-.081.471-.013,1.246-.2,1.574.214a1.766,1.766,0,0,1,.283.905l.51,4.229A1.643,1.643,0,0,1,263.781,201.934Z" transform="translate(-256.348 -194.902)"/></g><g transform="translate(31.839 35.086)"><path class="b" d="M265.092,281.845q-.031-2.339-.182-4.675a.674.674,0,0,0-.849-.768c-1.074.013-2.142.063-3.209.091l-2.9.076a1.347,1.347,0,0,0-.628.119.909.909,0,0,0-.415.715c-.034.346.03.673-.009,1.018-.044.382-.014.772-.034,1.156-.084,1.585.2,3.165.1,4.739a1.377,1.377,0,0,0,.006.382c.114.531,1.059.3,1.445.291,1.951-.052,3.9-.144,5.852-.208a.706.706,0,0,0,.834-.872Q265.106,282.878,265.092,281.845Zm-.812,1.588a.692.692,0,0,1-.094.159,1.123,1.123,0,0,1-.921.317c-.512-.009-.987.079-1.493.081-1.2.006-2.4.115-3.6.015a11.78,11.78,0,0,1-.127-2.58c.042-1.3-.041-2.6-.032-3.905a18.177,18.177,0,0,1,2.208-.18c.579-.035,1.16-.065,1.74-.081.471-.013,1.246-.2,1.574.214a1.767,1.767,0,0,1,.283.905l.51,4.229A1.643,1.643,0,0,1,264.281,283.433Z" transform="translate(-256.848 -276.402)"/></g><g transform="translate(31.839 45.305)"><path class="b" d="M265.092,362.345q-.031-2.339-.182-4.675a.674.674,0,0,0-.849-.768c-1.074.013-2.142.063-3.209.091l-2.9.076a1.347,1.347,0,0,0-.628.119.909.909,0,0,0-.415.715c-.034.346.03.673-.009,1.018-.044.382-.014.772-.034,1.156-.084,1.585.2,3.165.1,4.739a1.378,1.378,0,0,0,.006.382c.114.531,1.059.3,1.445.291,1.951-.052,3.9-.144,5.852-.208a.706.706,0,0,0,.834-.872Q265.106,363.378,265.092,362.345Zm-.812,1.588a.689.689,0,0,1-.094.159,1.123,1.123,0,0,1-.921.317c-.512-.009-.987.079-1.493.081-1.2.006-2.4.115-3.6.015a11.78,11.78,0,0,1-.127-2.58c.042-1.3-.041-2.6-.032-3.905a18.165,18.165,0,0,1,2.208-.18c.579-.035,1.16-.065,1.74-.081.471-.013,1.246-.2,1.574.214a1.767,1.767,0,0,1,.283.905l.51,4.229A1.642,1.642,0,0,1,264.281,363.933Z" transform="translate(-256.848 -356.902)"/></g></g></g></svg>