<svg xmlns="http://www.w3.org/2000/svg" width="80" height="80" viewBox="0 0 80 80"><defs><style>.a{fill:none;}.b{fill:#0e1013;}</style></defs><g transform="translate(-938.323 -1459.323)"><rect class="a" width="80" height="80" transform="translate(938.323 1459.323)"/><g transform="translate(946.204 1469.876)"><g transform="translate(0 0)"><g transform="translate(0 0)"><path class="b" d="M64.231,31.15c-.021-1.989-.162-3.993-.278-5.981-.068-1.159-.138-2.579-1.05-3.432a8.18,8.18,0,0,0-4.547-1.64c-1.836-.177-3.714-.3-5.559-.32-3.317-.039-6.631.128-9.945.111-3.3-.017-6.594-.186-9.893-.186-7.3,0-14.543.2-21.827.553-2.724.133-5.781.515-6.776,3.421a22.234,22.234,0,0,0-.718,4.946c-.147,1.612-.307,3.214-.365,4.834-.078,2.154-.084,4.308-.061,6.461-.158.041-.315.087-.47.14-1.7.58-2.035,1.788-2.218,3.431C.254,45.9.107,48.339.016,50.767c-.088,2.339.225,4.69.142,7.034C.071,60.243.1,62.686.13,65.13c.031,2.294.149,4.59.141,6.885-.006,1.6-.414,4.252.977,5.439,1.333,1.138,3.887.939,5.519,1.059,2.417.179,4.869.291,7.294.332,2.206.037,4.49.229,6.688.12,1.106-.055,2.211-.037,3.315-.1a6.494,6.494,0,0,0,2.513-.36c1.661-.84,2.039-3.106,2.283-4.754.048-.326.088-.654.124-.984,1.506-.022,3.012-.048,4.519-.068.113,1.962.407,3.712,2.759,4.241a26.474,26.474,0,0,0,8.468.712c2.713-.313,2.758-2.846,3.035-5.106A90.042,90.042,0,0,0,48.243,62.5c0-.075,0-.15,0-.225.2.005.4.01.6.017,2.963.106,6.754.72,9.535-.554,2.936-1.345,3.658-4.533,4.3-7.4a64.512,64.512,0,0,0,1.257-10.868C64.126,39.382,64.275,35.233,64.231,31.15ZM27.467,74.119a5.8,5.8,0,0,1-1.013,2.828c-.681.689-2.105.6-3.031.64-1.888.08-3.8.082-5.683-.013-4.048-.2-8.1-.2-12.149-.446a8.7,8.7,0,0,1-2.911-.414c-1.266-.6-1.1-2.217-1.1-3.416.006-1.889-.088-3.77-.075-5.658.013-2.035,0-4.117-.093-6.151-.091-1.923.036-3.835.013-5.76-.025-2.113-.1-4.209-.071-6.319.015-1.166.138-2.329.224-3.493a17.523,17.523,0,0,1,.366-3.442c.634-2.213,4.955-1.523,6.74-1.551,1.129-.018,2.253-.106,3.381-.164.161-.008.33-.022.5-.038,1.082.039,2.165.068,3.234.1,2.027.064,4.063.043,6.092.043,1.671,0,5.262-.454,5.872,1.474a9.912,9.912,0,0,1,.1,2.866c-.013,1.124-.069,2.243-.07,3.368,0,4.345-.084,8.69-.084,13.036C27.711,65.714,28.239,70.072,27.467,74.119ZM12.878,35.961a7.25,7.25,0,0,1,.041-2.705c.5-1.3,2.239-.865,3.358-.826,2.028.069,2.538,1.249,2.551,3.145a12.922,12.922,0,0,1-.08,3.621,1.311,1.311,0,0,1-.264.444l-.569.007c-1.281.013-2.543-.014-3.822-.066a9.184,9.184,0,0,0-.987.017,1.326,1.326,0,0,1-.1-.2A12.042,12.042,0,0,1,12.878,35.961ZM28.944,62.1q2.169.031,4.339.058-.008.284-.018.568c-.079,2.051-.033,4.106.054,6.157a36.814,36.814,0,0,1-4.161-.105c-.008-.693-.032-1.385-.07-2.068C29,65.182,28.961,63.643,28.944,62.1Zm3,9.471q-1.43,0-2.857.015.052-.783.068-1.57a38.741,38.741,0,0,0,4.222.132q.034.709.071,1.418C32.945,71.57,32.444,71.572,31.943,71.572Zm1.515-13.5c-.046.43-.076.862-.1,1.294h0a2.573,2.573,0,0,1-1.493-1.039c-.57-.938.05-1.748.85-2.275a3.391,3.391,0,0,1,1.1-.272C33.674,56.536,33.541,57.3,33.458,58.068Zm.371-3.076a2.271,2.271,0,0,0-1.349.522,2.511,2.511,0,0,0-.63.405l-.012.011a2.348,2.348,0,0,0-.757,2.251,2.822,2.822,0,0,0,2.247,1.972q-.013.432-.021.865-2.187-.043-4.375-.11c-.007-2.346.041-4.7.1-7.034,1.255.083,2.51.171,3.769.2.36.008.72.013,1.081.019A4.261,4.261,0,0,0,33.829,54.992ZM47,62.731c-.023,2.514-.029,5.007-.231,7.516-.105,1.3-.222,2.627-.454,3.914a4.028,4.028,0,0,1-.528,1.634c-.521.755-1.41.683-2.28.682a24.943,24.943,0,0,1-7.154-.762c-1.463-.459-1.522-1.468-1.612-2.777s-.208-2.6-.211-3.908c-.006-2.4-.079-4.793-.009-7.2.042-1.442,0-2.868.112-4.31.049-.662.121-1.322.177-1.984.047-.55-.083-1.039.452-1.314a5.129,5.129,0,0,1,2.466-.176c1.056.051,2.112.08,3.169.1a15.516,15.516,0,0,1,3.128.06c1.234.29,2.711.6,2.817,2.1C46.993,58.434,47.022,60.6,47,62.731ZM39.4,52.965c-.742-.024-10.35.178-10.342-.186q.018-.73.035-1.459.014-.586.032-1.178a3.4,3.4,0,0,0,1.451-.3.228.228,0,0,0-.054-.413,8.3,8.3,0,0,0-1.371-.158q.013-.433.025-.869a3.345,3.345,0,0,0,1.4-.3.228.228,0,0,0-.054-.413,8.222,8.222,0,0,0-1.324-.156q.013-.576.018-1.151a3.3,3.3,0,0,0,1.36-.295.228.228,0,0,0-.054-.413,8.134,8.134,0,0,0-1.3-.155q0-.577-.019-1.151a3.315,3.315,0,0,0,1.378-.3.228.228,0,0,0-.054-.413,8.288,8.288,0,0,0-1.359-.16c-.008-.153-.013-.306-.023-.458-.137-2.119-1.277-3.2-3.428-3.347-2.064-.143-4.149-.108-6.225-.075a3.544,3.544,0,0,0,.115-.759,19.433,19.433,0,0,0-.212-5.486c-.317-1.31-1.2-1.682-2.474-1.7-1.041-.012-3.269-.474-4.16.094-.864.551-.6,1.984-.577,2.826.032,1.38.013,2.76.044,4.139a7.439,7.439,0,0,0,.059.89c-.953.005-1.905.046-2.858.063-.4.007-.811,0-1.226-.014.04-2.808.207-5.61.187-8.427,0-.242-.012-.537-.021-.859a20.937,20.937,0,0,1,2.095.257c1.183.029,2.37.018,3.553-.013,2.3-.061,4.589-.048,6.889-.046,4.425,0,8.843-.149,13.268-.178,3.938-.025,7.933-.333,11.861-.145s7.924.336,11.861.342c-.012,1.427-.017,2.856.045,4.278.162,3.746-.156,7.483-.135,11.216a29.889,29.889,0,0,1-.328,4.885,12.591,12.591,0,0,0-.316,2.194c-.684,0-1.368,0-2.051.015-1.372.034-2.744.063-4.117.063-1.23,0-2.412.135-3.642.1C44.69,53.3,42.047,53.051,39.4,52.965ZM9.581,25.791a7.628,7.628,0,0,1,2.6-.344c.952-.088,1.885-.09,2.838-.13,3.392-.143,6.807-.268,10.2-.36,3.5-.095,7.008.046,10.5-.138,3.463-.182,6.979-.256,10.445-.229,1.738.014,3.47-.083,5.207-.091a21.312,21.312,0,0,1,5.351.19c1.1.294,1,1.119,1.084,2.053.067.74.1,1.458.093,2.2,0,.261,0,.524-.007.786-3.937,0-7.93-.142-11.868-.329-2.039-.1-4.123,0-6.162.069-2.063.071-4.121.056-6.186.094-4.632.085-9.257.2-13.891.189-2.2-.005-4.391.044-6.592.092-1.262.027-2.543.081-3.8,0-.32-.021-.7-.107-1.044-.1C8.333,28.219,8.467,26.371,9.581,25.791ZM61.189,55.014a9.49,9.49,0,0,1-1.871,4.491c-2.266,2.415-6.328,1.511-9.272,1.515-.6,0-1.208,0-1.812-.012-.014-.793-.039-1.586-.053-2.38-.021-1.119.151-2.79-.352-3.847A1.97,1.97,0,0,0,47.5,54.3l.162,0c2.479.087,4.957.074,7.437.021,2.084-.045,4.174.08,6.25-.063C61.3,54.514,61.247,54.764,61.189,55.014Zm1.537-14.979a94.344,94.344,0,0,1-.64,9.62c-.1.909-.008,3.1-.871,3.523-.747.37-1.947.006-2.749.008h-.419a11.989,11.989,0,0,1,.258-1.4c.086-.621.23-1.254.281-1.88.128-1.566.038-3.141.144-4.707.241-3.578.18-7.214.069-10.8-.06-1.946-.01-3.9-.007-5.847,0-1.152.089-2.964-.549-4s-1.858-.8-2.942-.864c-2.025-.127-4.045-.066-6.074.008-1.832.067-3.668-.071-5.5,0-2.01.082-4.029.211-6.042.208-3.814-.005-7.636.2-11.451.186-3.795-.013-7.637.243-11.433.358-2.282.069-6.472-.493-7.02,2.48a33.542,33.542,0,0,0-.275,6.082c0,2.124-.163,4.218-.21,6.334,0,.1,0,.2,0,.305a19.759,19.759,0,0,0-2.888.05c-.036-1.008-.065-2.015-.065-3.024a80.853,80.853,0,0,1,.49-8.534c.156-1.474.21-3.691,1.11-4.931,1.046-1.441,3.553-1.587,5.191-1.679,7.277-.413,14.536-.679,21.827-.734,6.133-.046,12.237.364,18.374.167,2.919.139,6.15-.138,8.919.835a3.843,3.843,0,0,1,2.032,1.279,4.779,4.779,0,0,1,.375,2.091c.088,1.653.165,3.3.263,4.954C63.116,33.415,62.738,36.741,62.726,40.035Z" transform="translate(0 -19.703)"/></g></g><g transform="translate(20.929 12.482)"><path class="b" d="M176.4,119.551a24.278,24.278,0,0,0-4.049-.189c-1.738-.064-3.52-.021-5.252-.171-.388-.034-.376.556,0,.6,1.807.211,3.666.191,5.484.3,1.177.073,2.79.412,3.871-.13A.228.228,0,0,0,176.4,119.551Z" transform="translate(-166.809 -119.19)"/></g><g transform="translate(20.929 15.053)"><path class="b" d="M176.4,140.042a24.253,24.253,0,0,0-4.049-.189c-1.738-.064-3.52-.021-5.252-.171-.388-.034-.376.556,0,.6,1.807.211,3.666.191,5.484.3,1.177.073,2.79.412,3.871-.13A.228.228,0,0,0,176.4,140.042Z" transform="translate(-166.809 -139.681)"/></g><g transform="translate(20.929 17.068)"><path class="b" d="M176.4,156.1a24.252,24.252,0,0,0-4.049-.189c-1.738-.064-3.52-.021-5.252-.171-.388-.034-.376.556,0,.6,1.807.211,3.666.191,5.484.3,1.177.073,2.791.412,3.871-.13A.228.228,0,0,0,176.4,156.1Z" transform="translate(-166.809 -155.742)"/></g><g transform="translate(35.097 11.791)"><g transform="translate(0 0)"><path class="b" d="M287,115.566c-.317-1.31-1.2-1.682-2.474-1.7-1.041-.012-3.269-.474-4.16.094-.864.551-.6,1.984-.577,2.826.032,1.38.013,2.76.044,4.139.02.878.023,1.9,1.057,2.159a10.557,10.557,0,0,0,4.221.02c1.422-.223,2.013-.573,2.1-2.056A19.43,19.43,0,0,0,287,115.566Zm-.637,5.815c-.391,1.109-1.827,1.046-2.795,1.118-.95.07-2.519.222-2.948-.917a12.042,12.042,0,0,1-.128-3.435,7.25,7.25,0,0,1,.041-2.705c.5-1.3,2.239-.865,3.358-.826,2.028.069,2.538,1.249,2.551,3.145A12.921,12.921,0,0,1,286.358,121.381Z" transform="translate(-279.731 -113.68)"/></g></g><g transform="translate(43.905 15.053)"><path class="b" d="M359.521,140.042a24.255,24.255,0,0,0-4.049-.189c-1.738-.064-3.52-.021-5.252-.171-.388-.034-.376.556,0,.6,1.807.211,3.666.191,5.484.3,1.177.073,2.791.412,3.871-.13A.228.228,0,0,0,359.521,140.042Z" transform="translate(-349.933 -139.681)"/></g><g transform="translate(43.905 17.068)"><path class="b" d="M359.521,156.1a24.253,24.253,0,0,0-4.049-.189c-1.738-.064-3.52-.021-5.252-.171-.388-.034-.376.556,0,.6,1.807.211,3.666.191,5.484.3,1.177.073,2.791.412,3.871-.13A.228.228,0,0,0,359.521,156.1Z" transform="translate(-349.933 -155.742)"/></g><g transform="translate(43.905 19.083)"><path class="b" d="M359.521,172.163a24.268,24.268,0,0,0-4.049-.189c-1.738-.064-3.52-.021-5.252-.171-.388-.034-.376.556,0,.6,1.807.211,3.666.191,5.484.3,1.177.073,2.791.412,3.871-.13A.228.228,0,0,0,359.521,172.163Z" transform="translate(-349.933 -171.802)"/></g><g transform="translate(35.097 22.353)"><g transform="translate(0 0)"><path class="b" d="M287,199.745c-.317-1.31-1.2-1.682-2.474-1.7-1.041-.012-3.269-.474-4.16.094-.864.551-.6,1.984-.577,2.826.032,1.38.013,2.76.044,4.139.02.878.023,1.9,1.057,2.159a10.557,10.557,0,0,0,4.221.02c1.422-.223,2.013-.573,2.1-2.056A19.43,19.43,0,0,0,287,199.745Zm-.637,5.815c-.391,1.109-1.827,1.046-2.795,1.118-.95.07-2.519.222-2.948-.917a12.042,12.042,0,0,1-.128-3.435,7.25,7.25,0,0,1,.041-2.705c.5-1.3,2.239-.865,3.358-.826,2.028.069,2.538,1.249,2.551,3.145A12.921,12.921,0,0,1,286.358,205.56Z" transform="translate(-279.731 -197.859)"/></g></g><g transform="translate(43.905 23.6)"><path class="b" d="M359.521,208.161a24.264,24.264,0,0,0-4.049-.189c-1.738-.064-3.52-.021-5.252-.171-.388-.034-.376.555,0,.6,1.807.211,3.666.191,5.484.3,1.177.073,2.791.412,3.871-.13A.228.228,0,0,0,359.521,208.161Z" transform="translate(-349.933 -207.8)"/></g><g transform="translate(43.905 25.615)"><path class="b" d="M359.521,224.221a24.268,24.268,0,0,0-4.049-.189c-1.738-.064-3.52-.021-5.252-.171-.388-.034-.376.556,0,.6,1.807.211,3.666.191,5.484.3,1.177.073,2.791.412,3.871-.13A.228.228,0,0,0,359.521,224.221Z" transform="translate(-349.933 -223.86)"/></g><g transform="translate(43.905 27.63)"><path class="b" d="M359.521,240.282a24.266,24.266,0,0,0-4.049-.189c-1.738-.064-3.52-.021-5.252-.171-.388-.034-.376.555,0,.6,1.807.211,3.666.191,5.484.3,1.177.073,2.791.412,3.871-.13A.228.228,0,0,0,359.521,240.282Z" transform="translate(-349.933 -239.921)"/></g><g transform="translate(43.905 29.367)"><g transform="translate(0 0)"><path class="b" d="M359.521,254.127a24.264,24.264,0,0,0-4.049-.189c-1.738-.064-3.52-.021-5.252-.171-.388-.034-.376.555,0,.6,1.807.211,3.666.191,5.484.3,1.177.073,2.791.412,3.871-.13A.228.228,0,0,0,359.521,254.127Z" transform="translate(-349.933 -253.766)"/></g></g><g transform="translate(3.05 22.461)"><g transform="translate(0 0)"><path class="b" d="M47.232,199.894c-.969-1.094-3.4-1.042-4.716-1.087-4.192-.141-8.44-.1-12.622.139-1.369.078-3.148-.437-4.473.049-.858.315-.925,1.206-.839,2.075a27.158,27.158,0,0,0-.061,3.764c-.023,2.171.037,4.341.032,6.512-.009,3.954.04,7.91-.163,11.849a12.359,12.359,0,0,0,.284,4.715c.515,1.276,1.955,1.516,3.2,1.63,2,.183,4.069-.091,6.074-.1,1.97-.012,3.94.067,5.915.009a23.26,23.26,0,0,0,4.8-.159c1.472-.359,1.894-1.495,2.176-2.872a29.7,29.7,0,0,0,.365-4.964c.067-1.94.088-3.875.086-5.819,0-4.075.407-8.145.412-12.229C47.706,202.417,47.95,200.7,47.232,199.894Zm-21.975.85c.018-.094.036-.187.058-.278a.293.293,0,0,0,0-.134.862.862,0,0,1,.237-.468c.305-.258,1.282-.157,1.678-.147,1.373.035,2.722-.006,4.093-.012,2.981-.014,5.949-.152,8.933-.116a22.477,22.477,0,0,1,5.04.369c1.171.293,1.42.789,1.459,1.871.02.554.04,1.106.054,1.66-7.113-.223-14.314-.018-21.42.231,0-.111-.009-.224-.022-.343A8.916,8.916,0,0,1,25.257,200.743Zm21.161,13.449c-.161,3.095-.087,6.229-.154,9.328-.032,1.506-.02,4.429-1.835,4.934-1.416.394-3.112.088-4.564.13-3.214.093-6.418-.021-9.632.067-1.893.052-4.612.518-4.89-2.021a24.622,24.622,0,0,1,.006-4.379c.13-1.865.036-3.786.031-5.661q-.007-2.622-.013-5.244c0-1.928-.259-3.94-.123-5.859.03-.416.09-.785.123-1.164.315.023.646.005.908.021.965.06,1.932.054,2.9.059,2.051.01,4.1-.066,6.147-.118,3.823-.1,7.691-.129,11.5.009,0,.04,0,.079,0,.119C46.826,207.688,46.589,210.927,46.419,214.192Z" transform="translate(-24.306 -198.726)"/></g></g><g transform="translate(13.302 53.986)"><path class="b" d="M109.512,451.049a1.626,1.626,0,0,0-2.291-.837,1.467,1.467,0,0,0-1.193,1.6,1.858,1.858,0,0,0,2.193,1.451A1.607,1.607,0,0,0,109.512,451.049ZM108,452.514a1.185,1.185,0,0,1-1.305-.741,1.03,1.03,0,0,1,.663-1.108c.513-.008.968-.045,1.318.443A.874.874,0,0,1,108,452.514Z" transform="translate(-106.017 -449.984)"/></g><g transform="translate(5.45 28.93)"><g transform="translate(0 0)"><path class="b" d="M50.7,252.17c-.317-1.31-1.2-1.682-2.474-1.7-1.041-.012-3.269-.474-4.16.094-.864.551-.6,1.984-.577,2.826.032,1.38.013,2.76.044,4.139.02.878.023,1.9,1.057,2.159a10.556,10.556,0,0,0,4.221.02c1.422-.223,2.014-.573,2.1-2.056A19.434,19.434,0,0,0,50.7,252.17Zm-.637,5.815c-.391,1.109-1.827,1.046-2.795,1.118-.95.07-2.518.222-2.948-.917a12.042,12.042,0,0,1-.128-3.435,7.249,7.249,0,0,1,.041-2.705c.5-1.3,2.239-.865,3.358-.826,2.028.069,2.538,1.249,2.551,3.145A12.922,12.922,0,0,1,50.067,257.985Z" transform="translate(-43.439 -250.285)"/></g></g><g transform="translate(14.258 29.622)"><path class="b" d="M123.231,256.157a24.266,24.266,0,0,0-4.049-.189c-1.738-.064-3.52-.021-5.252-.171-.388-.033-.376.556,0,.6,1.807.211,3.666.191,5.484.3,1.177.073,2.791.412,3.871-.13A.228.228,0,0,0,123.231,256.157Z" transform="translate(-113.643 -255.796)"/></g><g transform="translate(14.258 31.637)"><g transform="translate(0 0)"><path class="b" d="M123.231,272.217a24.263,24.263,0,0,0-4.049-.189c-1.738-.064-3.52-.021-5.252-.171-.388-.033-.376.556,0,.6,1.807.211,3.666.191,5.484.3,1.177.073,2.791.412,3.871-.13A.228.228,0,0,0,123.231,272.217Z" transform="translate(-113.643 -271.856)"/></g></g><g transform="translate(14.258 33.652)"><g transform="translate(0 0)"><path class="b" d="M123.231,288.278a24.266,24.266,0,0,0-4.049-.189c-1.738-.064-3.52-.021-5.252-.171-.388-.034-.376.556,0,.6,1.807.211,3.666.191,5.484.3,1.177.073,2.791.412,3.871-.13A.228.228,0,0,0,123.231,288.278Z" transform="translate(-113.643 -287.917)"/></g></g><g transform="translate(14.258 35.667)"><path class="b" d="M123.231,304.339a24.27,24.27,0,0,0-4.049-.189c-1.738-.064-3.52-.021-5.252-.171-.388-.034-.376.555,0,.6,1.807.211,3.666.191,5.484.3,1.177.073,2.791.412,3.871-.13A.228.228,0,0,0,123.231,304.339Z" transform="translate(-113.643 -303.978)"/></g><g transform="translate(16.442 40.534)"><path class="b" d="M138.56,349.294c-.032-1.38-.013-2.76-.044-4.139-.02-.878-.023-1.9-1.057-2.159a10.557,10.557,0,0,0-4.221-.02c-1.422.223-2.014.573-2.1,2.056a19.433,19.433,0,0,0,.212,5.486c.317,1.31,1.2,1.682,2.474,1.7,1.041.012,3.269.474,4.16-.094C138.847,351.57,138.58,350.137,138.56,349.294Zm-.744,1.347c-.5,1.3-2.239.865-3.358.826-2.028-.069-2.538-1.249-2.551-3.145a12.922,12.922,0,0,1,.08-3.621c.391-1.109,1.827-1.046,2.795-1.118.95-.07,2.518-.222,2.948.917a12.042,12.042,0,0,1,.128,3.435A7.25,7.25,0,0,1,137.816,350.641Z" transform="translate(-131.047 -342.771)"/></g><g transform="translate(5.45 46.383)"><path class="b" d="M52.9,389.864c-1.807-.211-3.666-.191-5.484-.3-1.177-.073-2.791-.412-3.871.13a.228.228,0,0,0,.054.413,24.254,24.254,0,0,0,4.049.189c1.738.064,3.52.021,5.252.171C53.293,390.5,53.281,389.908,52.9,389.864Z" transform="translate(-43.44 -389.389)"/></g><g transform="translate(5.45 44.368)"><path class="b" d="M52.9,373.8c-1.807-.211-3.666-.191-5.484-.3-1.177-.073-2.791-.412-3.871.13a.228.228,0,0,0,.054.413,24.264,24.264,0,0,0,4.049.189c1.738.064,3.52.021,5.252.171C53.293,374.437,53.281,373.848,52.9,373.8Z" transform="translate(-43.44 -373.329)"/></g><g transform="translate(5.45 42.353)"><path class="b" d="M52.9,357.743c-1.807-.211-3.666-.191-5.484-.3-1.177-.073-2.791-.412-3.871.13a.228.228,0,0,0,.054.413,24.267,24.267,0,0,0,4.049.189c1.738.064,3.52.021,5.252.171C53.293,358.376,53.281,357.787,52.9,357.743Z" transform="translate(-43.44 -357.267)"/></g><g transform="translate(36.801 37.685)"><path class="b" d="M300.826,326.587c-.032-1.38-.013-2.76-.044-4.139-.02-.878-.023-1.9-1.057-2.159a10.554,10.554,0,0,0-4.221-.02c-1.422.223-2.014.573-2.1,2.056a19.433,19.433,0,0,0,.212,5.485c.317,1.31,1.2,1.682,2.474,1.7,1.041.012,3.269.474,4.16-.094C301.113,328.863,300.846,327.43,300.826,326.587Zm-.744,1.347c-.5,1.3-2.239.865-3.358.826-2.028-.069-2.538-1.249-2.551-3.145a12.923,12.923,0,0,1,.08-3.621c.391-1.109,1.827-1.046,2.795-1.117.95-.07,2.518-.222,2.948.917a12.042,12.042,0,0,1,.128,3.435A7.249,7.249,0,0,1,300.082,327.934Z" transform="translate(-293.313 -320.064)"/></g><g transform="translate(37.236 50.345)"><path class="b" d="M303.348,421.487c-1.255-.232-2.546-.211-3.808-.335-.817-.081-1.938-.455-2.688.144-.118.095-.092.411.037.456a10.675,10.675,0,0,0,2.812.208c1.207.071,2.445.023,3.647.189C303.617,422.186,303.609,421.536,303.348,421.487Z" transform="translate(-296.776 -420.963)"/></g><g transform="translate(37.236 48.12)"><path class="b" d="M303.348,403.759c-1.255-.232-2.546-.211-3.808-.335-.817-.081-1.938-.455-2.688.144-.118.095-.092.411.037.456a10.674,10.674,0,0,0,2.812.208c1.207.071,2.445.023,3.647.189C303.617,404.458,303.609,403.807,303.348,403.759Z" transform="translate(-296.776 -403.234)"/></g><g transform="translate(35.168 35.432)"><path class="b" d="M290.163,302.8a8.529,8.529,0,0,0-3.321-.293,27.04,27.04,0,0,1-3.314-.2c-.817-.1-1.8-.512-2.425.227a3.837,3.837,0,0,0-.553,1.907c-.189,1.458-.086,2.92-.159,4.383a64.742,64.742,0,0,0,0,6.942c.086,1.48-.333,3.289,1.4,3.91a15.876,15.876,0,0,0,5.467.517c1.514.008,3.061.191,3.562-1.587a13.913,13.913,0,0,0,.174-2.9c.078-1.244.062-2.484.128-3.726.1-1.841.168-3.7.157-5.547C291.277,305.247,291.445,303.428,290.163,302.8Zm-.036,14.349c.012,1.213-.152,2.074-1.544,2.238a8.886,8.886,0,0,1-1.182-.006c-.855-.014-1.716.034-2.575.008-.888-.027-2.765-.156-3.339-.924-.56-.75-.3-2.313-.336-3.2-.087-2.067-.072-4.137,0-6.2.046-1.29,0-2.586.125-3.873.121-1.217.231-2.366,1.761-2.139.948.141,1.876.2,2.827.253s1.949-.037,2.894.1c.878.127,1.563.4,1.637,1.394.015.2.01.417.02.622C290.617,309.327,290.088,313.246,290.128,317.154Z" transform="translate(-280.301 -302.108)"/></g><g transform="translate(39.797 54.233)"><path class="b" d="M318.959,452.459a.715.715,0,0,0-.762-.507.91.91,0,0,0-.5.165.746.746,0,0,0-.5.742.915.915,0,0,0,.605.81A.978.978,0,0,0,318.959,452.459Z" transform="translate(-317.195 -451.951)"/></g></g></g></svg>