<svg xmlns="http://www.w3.org/2000/svg" width="80" height="80" viewBox="0 0 80 80"><defs><style>.a{fill:none;}.b{fill:#0e1013;}</style></defs><g transform="translate(-937.878 -1458.878)"><rect class="a" width="80" height="80" transform="translate(937.878 1458.878)"/><g transform="translate(942.594 1467.997)"><g transform="translate(0 0)"><g transform="translate(0 0)"><path class="b" d="M70.56,46.506c-.025-2.3-.188-4.616-.322-6.914-.078-1.34-.159-2.982-1.214-3.968a9.457,9.457,0,0,0-5.257-1.9c-2.123-.2-4.293-.344-6.427-.369-3.834-.046-7.666.148-11.5.128-3.812-.02-7.623-.215-11.437-.215-8.435,0-16.813.227-25.234.639-3.149.154-6.683.6-7.834,3.955a25.692,25.692,0,0,0-.83,5.718C.339,45.448.154,47.3.086,49.173c-.28,7.721.221,15.438.144,23.168a33.456,33.456,0,0,0,.338,5.337,3.825,3.825,0,0,0,2.634,3.2c3.408,1.437,7.791,1.2,11.422,1.226q4.87.035,9.737.11a37.039,37.039,0,0,0-.139,5.413,4.367,4.367,0,0,0,.42,2c-.374-.037-.747-.07-1.121-.094-1.47-.092-3.352-.023-4.4,1.212a2.083,2.083,0,0,0,.684,3.232c1.741.807,4.046.69,5.915.681,5.1-.024,10.217-.193,15.315-.149,2.451.021,5.174.345,7.589-.085,1.453-.259,2.784-1.1,2.322-2.77-.554-2-2.95-2.225-4.683-2.14-.314.015-.625.034-.935.055a4.878,4.878,0,0,0,.6-2.744,31.623,31.623,0,0,0-.075-4.405c2.308,0,4.617,0,6.916.084,3.425.123,7.809.832,11.024-.64,3.394-1.555,4.229-5.241,4.969-8.56A74.592,74.592,0,0,0,70.214,60.74C70.438,56.023,70.611,51.226,70.56,46.506ZM48.084,90.885c.464.14,1.512.437,1.488,1.1a.784.784,0,0,1-.236.464c-.778.883-1.414.727-2.5.728-4.538,0-9.068.06-13.606.063-2.241,0-4.476.009-6.715.075-1.626.048-4.406.416-5.853-.444-1.7-1.01.412-1.87,1.392-1.989a26.175,26.175,0,0,1,6.783.428,41.388,41.388,0,0,0,6.538.279c1.713-.03,3.436.035,5.145-.067C42.994,91.373,45.587,90.241,48.084,90.885ZM25.457,82.228c4.979.071,9.957.148,14.938.19,1.3.011,2.6.009,3.909.005.027.953.1,1.913.115,2.865.032,1.78.39,3.591-1.636,4.335-2.3.843-5.242.469-7.671.5a28.218,28.218,0,0,1-7.69-.568c-1.172-.317-1.545-.494-1.729-1.7a12.666,12.666,0,0,1-.083-1.563C25.573,84.94,25.574,83.579,25.457,82.228ZM67.042,74.1c-.422,1.8-.852,3.795-2.163,5.192-2.619,2.792-7.315,1.747-10.719,1.752-2.987,0-5.986-.106-8.977-.075a.761.761,0,0,0-.382,0c-.535.008-1.071.019-1.6.039-7.5.272-15.055-.276-22.559-.272-3.856,0-7.712-.106-11.565-.267a13.924,13.924,0,0,1-5.578-1.022c-2-1.024-1.685-3.526-1.807-5.462-.02-.313-.033-.628-.047-.942a43.418,43.418,0,0,0,6.524-.305c2.72-.149,5.437-.159,8.161-.152,3.076.008,6.152-.007,9.228,0,2.9.009,5.772.357,8.667.418,5.73.122,11.459.069,17.186.27,2.866.1,5.73.086,8.6.024,2.409-.052,4.825.093,7.226-.073C67.168,73.517,67.11,73.806,67.042,74.1ZM68.82,56.779A109.02,109.02,0,0,1,68.08,67.9c-.111,1.051-.009,3.578-1.008,4.073-.863.428-2.251.006-3.178.01-1.3,0-2.594-.016-3.89.016-2.867.072-5.732.087-8.6-.009-5.63-.188-11.264-.162-16.9-.238-2.786-.037-5.558-.394-8.344-.4-3.073-.011-6.147.02-9.22.028-2.738.007-5.474,0-8.208.16-2.364.138-4.764.523-7.136.46-.089-3.069.02-6.182-.007-9.234-.028-3.291-.274-6.575-.273-9.867a93.5,93.5,0,0,1,.566-9.866c.181-1.7.243-4.267,1.283-5.7,1.209-1.666,4.108-1.834,6-1.942,8.412-.477,16.8-.785,25.234-.848,7.091-.053,14.146.421,21.241.193,3.374.161,7.11-.16,10.311.965a4.442,4.442,0,0,1,2.349,1.479,5.525,5.525,0,0,1,.433,2.418c.1,1.911.191,3.818.3,5.727C69.27,49.125,68.834,52.97,68.82,56.779Z" transform="translate(0 -33.273)"/></g></g><g transform="translate(32.178 40.792)"><g transform="translate(0 0)"><path class="b" d="M239.072,330.452a2.941,2.941,0,0,0-2.241-1.209,2.52,2.52,0,0,0-1.692.6,2.908,2.908,0,0,0-.728.469.19.19,0,0,0-.014.013,2.714,2.714,0,0,0-.875,2.6c.348,1.7,2.81,2.95,4.327,2.013A3.268,3.268,0,0,0,239.072,330.452Zm-1.143,3.216a1.818,1.818,0,0,1-1.775.626,2.974,2.974,0,0,1-1.726-1.2c-.659-1.085.058-2.02.983-2.63a2.572,2.572,0,0,1,1.859-.212A2.057,2.057,0,0,1,237.929,333.669Z" transform="translate(-233.465 -329.238)"/></g></g><g transform="translate(9.682 2.457)"><g transform="translate(0 0)"><path class="b" d="M120.969,56.189c0-.021,0-.042,0-.063-.112-1.457.259-2.991-.818-4.24-.9-1.041-3.2-.727-4.4-.764-4.117-.127-8.256.271-12.385.155-8.837-.249-17.745-.01-26.577.309-.959.035-1.918.095-2.876.142a5.833,5.833,0,0,0-1.926.171,1.927,1.927,0,0,0-1.067,1.531,10.091,10.091,0,0,0-.147,2.954,15.546,15.546,0,0,0-.24,2.112c-.473,6.2-.187,12.464-.235,18.677-.012,1.509-.019,3.06.078,4.565.054.837.013,1.718.755,2.258a4.6,4.6,0,0,0,2.348.549c1.515.106,3.048.07,4.567.071,5.983,0,11.969.232,17.952.26,1.619.007,3.239.149,4.858.176,1.556.026,3.127-.129,4.678-.017a84.151,84.151,0,0,0,9.549.542c1.486-.063,4.567.651,5.386-1.138a10.009,10.009,0,0,0,.443-3.46c.044-1.48.065-2.954.069-4.436q0-.266,0-.532c.02-4.423.155-8.844.145-13.267C121.115,60.567,121.133,58.364,120.969,56.189Zm-.945,1.665c-4.059.009-8.151-.138-12.206-.315-2.462-.108-4.925-.281-7.39-.315a20.808,20.808,0,0,0-3.89.177c-.092.016-.185.027-.277.041-.014-1.134-.047-2.266-.133-3.371,1.561-.034,3.126-.028,4.7.038,3.149.133,6.3.24,9.442.418,2.028.114,4.058.206,6.078.425.911.1,1.918.136,2.8.294s.8.826.832,1.564C120,57.158,120.01,57.506,120.024,57.854ZM95.432,52.165c4.581.044,9.159-.006,13.74.018,2.106.011,4.209-.18,6.312-.16,1.189.012,3.5-.232,4.182.936.819,1.4-.4,1.344-1.41,1.259-1.466-.123-2.937-.147-4.4-.276-1.79-.157-3.583-.268-5.377-.368-2.347-.13-4.7-.23-7.044-.329-6.528-.275-12.876.417-19.375.8l-.27.015c-.011-.308-.074-.636-.1-.932a8.893,8.893,0,0,0-.12-.934C86.186,52.088,90.809,52.121,95.432,52.165Zm.661,26.372a30.605,30.605,0,0,0,4.932.288c.906.021,1.8-.006,2.706-.01.936,0,2.846-.308,2.782,1.084-.081,1.751-4.309,1.194-5.489,1.223-.933.022-1.858.038-2.791.02a8.821,8.821,0,0,1-2.044-.027.464.464,0,0,0-.116-.031C96.082,80.231,96.083,79.377,96.093,78.537ZM80.973,52.2h.013c-.042.331-.019.672-.036,1a6.945,6.945,0,0,0-.007.9c-.8.044-1.593.084-2.389.111-.043-.26-.028-.556-.054-.8a5.283,5.283,0,0,0-.322-1.089C79.11,52.275,80.041,52.228,80.973,52.2Zm-5.559.292c.778-.044,1.557-.093,2.336-.14.01.5.053,1.006.073,1.5.005.129,0,.258.007.381-.917.016-1.854-.05-2.787-.075a7.5,7.5,0,0,0-.173-.785,5.445,5.445,0,0,0-.132-.876C74.976,52.505,75.206,52.508,75.414,52.5Zm-3.5,1.22a2.252,2.252,0,0,1,1.064-1.082A4.143,4.143,0,0,1,74.2,52.5a3.851,3.851,0,0,0-.02.976c.031.226.055.456.093.683A11.7,11.7,0,0,0,73,54.228C72.431,54.295,71.541,54.639,71.918,53.716ZM95.354,69.337c-.027,2.658-.089,5.335-.172,7.994-.067,2.165-.009,4.426-.2,6.586v0c-4.106-.092-8.217-.114-12.321-.144-2.477-.018-4.972-.069-7.447-.144-1.505-.046-3.395.216-3.87-1.6a18.446,18.446,0,0,1-.093-4c-.1-5.371-.141-10.812.012-16.183.034-1.2.129-2.392.232-3.585a7.083,7.083,0,0,1,.321-2.157c.465-.968,1.46-.939,2.361-.938,2.719,0,5.41-.029,8.125-.215,4.352-.3,8.651-.72,12.982-.855a46.85,46.85,0,0,0,.032,7.243C95.361,64,95.381,66.674,95.354,69.337Zm24.7,3.261c-.056,2.479-.055,4.962-.146,7.438-.06,1.628.366,4.271-1.845,4.571-1.043.141-2.168-.036-3.224,0a73.931,73.931,0,0,1-8.568-.48c-2.588-.21-5.214-.026-7.815-.114-.834-.028-1.67-.047-2.5-.068.054-.66.082-1.332.1-2.007a6.283,6.283,0,0,0,1.88.069c1.4.039,2.778-.04,4.174-.054,1.314-.013,4.764.582,5.142-1.1.552-2.459-.857-2.8-2.919-2.822-1.43-.018-2.859.019-4.289.011a39.191,39.191,0,0,0-3.941-.014c0-.032,0-.065,0-.1.057-2.775.175-5.557.213-8.33q.014-1.019.013-2.04c2.779-.252,5.566-.02,8.341-.29.786-.077,2.4-.041,2.947-.648.621-.687.241-2.488.257-3.332.017-.867.326-2.273-.544-2.794-.459-.275-1.25-.019-1.748,0-.69.022-1.391.034-2.08.019-1.674-.035-3.348-.1-5.023-.129a13.055,13.055,0,0,0-2.206-.02c0-.786,0-1.582-.007-2.377a14.061,14.061,0,0,1,2.609-.049c1.177-.022,2.355.027,3.53.082,2.1.1,4.194.2,6.292.29,3.773.155,7.584.353,11.359.371C120.211,63.318,120.163,67.95,120.058,72.6Zm-13.03-6.9c-.225.469-.464.407-.992.5a30.937,30.937,0,0,1-3.784.323c-1.979.092-3.943-.071-5.926.109-.007-1.664-.03-3.329-.046-4.991,0-.247,0-.5,0-.746a22.208,22.208,0,0,1,2.495.155q1.594.036,3.186.093c1.208.041,2.418.08,3.627.046.841-.024,1.387-.448,1.563.857a11.886,11.886,0,0,1-.1,1.768A6.538,6.538,0,0,1,107.027,65.7Z" transform="translate(-70.248 -51.098)"/></g></g><g transform="translate(12.731 9.98)"><path class="b" d="M95.613,110.276a10.716,10.716,0,0,0-1.14-1.01c-.207-.186-.4-.386-.6-.581-.135-.132-.462-.319-.379-.541.131-.349.762-.65,1.025-.933s.5-.681.768-.937a.348.348,0,0,0-.42-.544,7.287,7.287,0,0,0-1.51,1.339c-.319.328-1.056.785-.979,1.336.073.524.848,1.035,1.2,1.366A4.258,4.258,0,0,0,95.192,111,.436.436,0,0,0,95.613,110.276Z" transform="translate(-92.37 -105.685)"/></g><g transform="translate(17.109 8.446)"><g transform="translate(0 0)"><path class="b" d="M126.757,94.864c-.4,1.168-1.245,2.216-1.729,3.361a6.53,6.53,0,0,0-.888,2.862c.021.2.287.377.45.186A14.079,14.079,0,0,0,126,98.211a15.276,15.276,0,0,0,1.615-3.11A.447.447,0,0,0,126.757,94.864Z" transform="translate(-124.13 -94.549)"/></g></g><g transform="translate(20.495 10.536)"><g transform="translate(0 0)"><path class="b" d="M150.928,110.97c-.556-.4-1.158-1.114-1.855-1.252a.224.224,0,0,0-.272.154c-.176.961,1.334,1.651,2.075,2.281a7.691,7.691,0,0,1-1.1,1.09,5.306,5.306,0,0,0-1.03,1.16.374.374,0,0,0,.319.555c.652.066,1.223-.836,1.628-1.256.359-.373,1.3-1.044,1.243-1.659C151.9,111.568,151.275,111.218,150.928,110.97Z" transform="translate(-148.701 -109.713)"/></g></g><g transform="translate(12.731 25.002)"><g transform="translate(0 0)"><path class="b" d="M95.613,219.263a10.711,10.711,0,0,0-1.14-1.01c-.207-.186-.4-.386-.6-.581-.135-.132-.462-.319-.379-.541.131-.349.762-.65,1.025-.933s.5-.681.768-.937a.348.348,0,0,0-.42-.544,7.286,7.286,0,0,0-1.51,1.339c-.319.328-1.056.785-.979,1.336.073.525.848,1.035,1.2,1.366a4.257,4.257,0,0,0,1.62,1.226A.436.436,0,0,0,95.613,219.263Z" transform="translate(-92.37 -214.672)"/></g></g><g transform="translate(17.109 23.467)"><g transform="translate(0 0)"><path class="b" d="M126.757,203.852c-.4,1.168-1.245,2.216-1.729,3.361a6.53,6.53,0,0,0-.888,2.862c.021.2.287.377.45.186A14.079,14.079,0,0,0,126,207.2a15.277,15.277,0,0,0,1.615-3.11A.447.447,0,0,0,126.757,203.852Z" transform="translate(-124.13 -203.537)"/></g></g><g transform="translate(20.495 25.557)"><path class="b" d="M150.928,219.957c-.556-.4-1.158-1.114-1.855-1.252a.224.224,0,0,0-.272.154c-.176.961,1.334,1.651,2.075,2.281a7.693,7.693,0,0,1-1.1,1.09,5.309,5.309,0,0,0-1.03,1.16.374.374,0,0,0,.319.555c.652.066,1.223-.836,1.628-1.256.359-.373,1.3-1.044,1.243-1.659C151.9,220.555,151.275,220.205,150.928,219.957Z" transform="translate(-148.701 -218.7)"/></g><g transform="translate(13.245 17.961)"><path class="b" d="M99.432,166.579a8.349,8.349,0,0,1-1.374.119c-.524-.085-1.094-.339-1.009-.958a1.555,1.555,0,0,1,.945-1.125c.218-.1,1.076-.3,1.28-.1a.3.3,0,0,0,.469-.362c-.344-.69-1.447-.645-2.054-.417a2.515,2.515,0,0,0-1.563,1.816c-.336,1.81,2.389,2.806,3.516,1.533A.3.3,0,0,0,99.432,166.579Z" transform="translate(-96.099 -163.589)"/></g><g transform="translate(17.561 18.477)"><path class="b" d="M131.057,168.354c-.406-1.027-1.193-1.2-2.186-.88a1.915,1.915,0,0,0-1.456,1.674,1.8,1.8,0,0,0,2.065,1.9,2.1,2.1,0,0,0,1.493-.887A2.193,2.193,0,0,0,131.057,168.354Zm-1.625,1.82a.965.965,0,0,1-1.211-.821,1.215,1.215,0,0,1,.728-1.279c.645-.309,1.025-.07,1.3.554A1.084,1.084,0,0,1,129.433,170.175Z" transform="translate(-127.415 -167.33)"/></g><g transform="translate(21.951 14.694)"><g transform="translate(0 0)"><path class="b" d="M163.456,140.179a.416.416,0,0,0-.813.11c-.095,1.079-.073,2.224-.1,3.31,0,.123-.008.25-.013.379-.013-.013-.024-.027-.037-.04-1.5-1.426-3.864,1-3.079,2.644.631,1.322,2.359,1.012,3.317.272a3.152,3.152,0,0,0,.795-2.639A15.59,15.59,0,0,0,163.456,140.179Zm-1.936,6.476c-.642.236-1.685,0-1.61-.88.049-.569.815-1.506,1.4-1.534a.96.96,0,0,1,.817.5A1.232,1.232,0,0,1,161.52,146.655Z" transform="translate(-159.261 -139.883)"/></g></g><g transform="translate(27.165 18.044)"><g transform="translate(0 0)"><path class="b" d="M200.384,167.413a2.63,2.63,0,0,1-1.918-.213.989.989,0,0,1-.222-.185,3.1,3.1,0,0,0,.809-.168,1.944,1.944,0,0,0,1.372-1.033c.482-1.3-1.02-1.884-2.037-1.519a2.18,2.18,0,0,0-1.053,2.979,2.643,2.643,0,0,0,3.332.813A.371.371,0,0,0,200.384,167.413Zm-2.011-2.159c.472-.4,1.808-.192,1.068.535-.4.391-.993.4-1.467.626A1.267,1.267,0,0,1,198.373,165.254Z" transform="translate(-197.091 -164.188)"/></g></g><g transform="translate(36.45 20.492)"><g transform="translate(0 0)"><path class="b" d="M275.449,182.055c-1.695-.15-3.436-.094-5.136-.095a42.586,42.586,0,0,1-5.414.034.352.352,0,0,0-.187.678c1.546.516,3.682.2,5.291.2,1.651,0,3.961.452,5.531-.189A.321.321,0,0,0,275.449,182.055Z" transform="translate(-264.461 -181.95)"/></g></g><g transform="translate(36.45 22.581)"><path class="b" d="M275.449,197.208c-1.695-.151-3.436-.094-5.136-.095a42.592,42.592,0,0,1-5.414.034.352.352,0,0,0-.187.678c1.546.515,3.682.2,5.291.2,1.651,0,3.961.452,5.531-.189A.32.32,0,0,0,275.449,197.208Z" transform="translate(-264.461 -197.103)"/></g><g transform="translate(36.45 24.669)"><g transform="translate(0 0)"><path class="b" d="M275.449,212.361c-1.695-.151-3.436-.094-5.136-.095a42.592,42.592,0,0,1-5.414.034.352.352,0,0,0-.187.678c1.546.516,3.682.2,5.291.2,1.651,0,3.961.452,5.531-.189A.32.32,0,0,0,275.449,212.361Z" transform="translate(-264.461 -212.256)"/></g></g><g transform="translate(36.45 26.758)"><path class="b" d="M275.449,227.514c-1.695-.15-3.436-.094-5.136-.095a42.6,42.6,0,0,1-5.414.034.352.352,0,0,0-.187.678c1.546.515,3.682.195,5.291.2,1.651,0,3.961.452,5.531-.189A.321.321,0,0,0,275.449,227.514Z" transform="translate(-264.461 -227.41)"/></g><g transform="translate(49.129 12.178)"><g transform="translate(0 0)"><path class="b" d="M364.654,121.732a32.79,32.79,0,0,0-3.833-.095,23.744,23.744,0,0,1-4.04.034c-.326-.059-.469.53-.139.678,1.154.515,2.747.195,3.948.2,1.232,0,2.956.452,4.128-.189C364.965,122.223,364.932,121.765,364.654,121.732Z" transform="translate(-356.454 -121.628)"/></g></g><g transform="translate(49.129 14.266)"><path class="b" d="M364.654,136.886a32.787,32.787,0,0,0-3.833-.095,23.739,23.739,0,0,1-4.04.034c-.326-.059-.469.53-.139.678,1.154.515,2.747.2,3.948.2,1.232,0,2.956.452,4.128-.189C364.965,137.377,364.932,136.919,364.654,136.886Z" transform="translate(-356.454 -136.781)"/></g><g transform="translate(49.129 16.355)"><g transform="translate(0 0)"><path class="b" d="M364.654,152.04a32.79,32.79,0,0,0-3.833-.095,23.741,23.741,0,0,1-4.04.034c-.326-.059-.469.53-.139.678,1.154.515,2.747.2,3.948.2,1.232,0,2.956.452,4.128-.189C364.965,152.531,364.932,152.073,364.654,152.04Z" transform="translate(-356.454 -151.935)"/></g></g><g transform="translate(49.129 18.444)"><g transform="translate(0 0)"><path class="b" d="M364.654,167.193a32.79,32.79,0,0,0-3.833-.095,23.741,23.741,0,0,1-4.04.034c-.326-.059-.469.53-.139.678,1.154.515,2.747.195,3.948.2,1.232,0,2.956.452,4.128-.189C364.965,167.684,364.932,167.226,364.654,167.193Z" transform="translate(-356.454 -167.089)"/></g></g><g transform="translate(49.129 20.492)"><g transform="translate(0 0)"><path class="b" d="M364.654,182.054a32.784,32.784,0,0,0-3.833-.095,23.742,23.742,0,0,1-4.04.034c-.326-.059-.469.53-.139.678,1.154.515,2.747.2,3.948.2,1.232,0,2.956.452,4.128-.189C364.965,182.545,364.932,182.087,364.654,182.054Z" transform="translate(-356.454 -181.949)"/></g></g><g transform="translate(49.129 22.54)"><path class="b" d="M364.654,196.917a32.794,32.794,0,0,0-3.833-.095,23.739,23.739,0,0,1-4.04.034c-.326-.059-.469.53-.139.678,1.154.515,2.747.2,3.948.2,1.232,0,2.956.452,4.128-.189C364.965,197.408,364.932,196.95,364.654,196.917Z" transform="translate(-356.454 -196.812)"/></g><g transform="translate(49.129 24.589)"><g transform="translate(0 0)"><path class="b" d="M364.654,211.779a32.79,32.79,0,0,0-3.833-.095,23.738,23.738,0,0,1-4.04.034c-.326-.059-.469.53-.139.678,1.154.515,2.747.195,3.948.2,1.232,0,2.956.452,4.128-.189C364.965,212.27,364.932,211.812,364.654,211.779Z" transform="translate(-356.454 -211.674)"/></g></g><g transform="translate(48.566 26.591)"><g transform="translate(0 0)"><path class="b" d="M361.031,226.687c-.908-.637-2.584-.52-3.893-.347-.636-.039-1.256-.064-1.81-.1-1.115-.064-2.089.027-2.551,1.114a8.9,8.9,0,0,0-.15,4.854c.305,1.2,1.291,1.436,2.407,1.607a11.406,11.406,0,0,0,4.807-.016c1.332-.417,1.621-1.5,1.77-2.793C361.736,229.934,362.11,227.444,361.031,226.687Zm-.281,4.7c-.441,2-2.115,1.866-3.8,1.789a7.681,7.681,0,0,1-2.494-.288c-1.572-.676-1.967-5.476.093-5.852a15.629,15.629,0,0,1,3.382.245,9.129,9.129,0,0,1,2.18.016c.471.145.637.626.738,1.093A7.246,7.246,0,0,1,360.75,231.392Z" transform="translate(-352.364 -226.204)"/></g></g></g></g></svg>