<svg xmlns="http://www.w3.org/2000/svg" width="160" height="160" viewBox="0 0 160 160"><defs><style>.a{fill:none;}.b{fill:#0e1013;}</style></defs><g transform="translate(-937.194 -1458.194)"><rect class="a" width="160" height="160" transform="translate(937.194 1458.194)"/><g transform="translate(952.914 1482.299)"><g transform="translate(78.833 0)"><g transform="translate(0 0)"><path class="b" d="M360.519,41.988c-4.13-5.391-9.83-8.805-16.65-9.065-6.857-.261-14.359,2.893-18.532,8.452a7.861,7.861,0,0,0-1.32,2.534,11.082,11.082,0,0,0-3.814,4.678,10.971,10.971,0,0,0-.763,4.2c.031.977.421,2.01.38,2.978-.086,2.053-.957,2.244-2.39,3.183-1.309.858-3.812,2.256-3.433,4.21.626,3.226,6.117.677,6.493,4.338.311,3.027.608,6.329,1.932,9.129,1.154,2.439,3.528,2.939,6.018,3.029,2.255.082,3.924-.55,4.85,1.926a16.417,16.417,0,0,0,1.523,3.626c1.554,2.218,4.745,1.95,7.111,1.494a60.4,60.4,0,0,0,10.489-3.4c2.3-.915,3.745-2.341,3.178-4.913-.329-1.5-1.461-2.885-1.724-4.317-.381-2.08,2.047-3.695,3.186-5.063a27.319,27.319,0,0,0,5.253-9.085C364.247,53.919,364.544,47.243,360.519,41.988Zm-8.165,37.924c-.834,1.19-2.351,1.362-3.67,1.84-2.72.986-6.172,2.742-9.122,2.585-3.787-.2-3.027-3.589-4.891-5.851-1.154-1.4-2.87-1.392-4.543-1.383a11.112,11.112,0,0,1-3.889-.213c-1.807-.7-2.03-2.431-2.444-4.043-.161-.627-.323-1.262-.471-1.9a7.492,7.492,0,0,0,2.263-.176c1.068-.22,2.785-.416,3.576-1.215a.724.724,0,0,0-.506-1.221,10.344,10.344,0,0,0-3.074.738,16.1,16.1,0,0,1-2.573.311c-.057-.356-.106-.713-.137-1.07a8.135,8.135,0,0,0-.5-3.171c-.827-1.625-3.051-2.264-4.759-2.411a3.992,3.992,0,0,1-.8-.135,9.423,9.423,0,0,1,1.925-1.408,12.31,12.31,0,0,0,2.651-2.013c1.473-1.735.782-3.668.586-5.72a10.724,10.724,0,0,1,2.094-7.257,3.533,3.533,0,0,0,1.308,1.59c2.489,1.759,5.638,1.506,8.611,1.3a5.933,5.933,0,0,0-1.751,3.233,3.668,3.668,0,0,0,2.045,3.92c.932.542,2.2.569,3.072,1.119,1.546.969.579,3.064.358,4.594-.26,1.8-.161,3.487,1.761,4.254,1.628.65,4.741.889,6.346.085,2.447-1.225.574-4.722,2.268-6.459,1.233-1.263,2.972-.333,3.284,1.253a6.834,6.834,0,0,1-.694,3.615,5.752,5.752,0,0,0-.734,2.675,4.664,4.664,0,0,0,2.167,3.293,5.243,5.243,0,0,0-.322,5.386C352.462,77.585,353.363,78.472,352.354,79.912Zm4.125-14.4a33.7,33.7,0,0,1-2.769,3.168c-2.58-.693-.171-4.611-.086-6.375a6.437,6.437,0,0,0-1.638-4.826c-2.735-2.548-6.432.249-7.1,3.173-.136.6-.029,2.529-.356,3-.817,1.17-3.152.412-3.795-.319-1.5-1.708.594-4.2-.193-6.291-.638-1.7-2.246-1.837-3.778-2.38-4.4-1.56-.261-4.331.959-6.293a1.251,1.251,0,0,0-1.07-1.865c-2.3-.035-6.717,1.213-8.717-.3-3.362-2.535,2.2-6.12,4.158-7.367,4.9-3.127,12.134-4.62,17.633-2.145,4.888,2.2,9.69,6.478,10.989,11.838C362.136,54.383,359.865,60.784,356.479,65.516Z" transform="translate(-313.958 -32.908)"/></g></g><g transform="translate(89.858 21.88)"><path class="b" d="M360.861,120.742a1.482,1.482,0,0,0-.684-.585,1.417,1.417,0,0,0-1.786.585,3.04,3.04,0,0,0-.525,1.421,1.314,1.314,0,0,0,1.305,1.305,2.883,2.883,0,0,0,.422-.08,1.379,1.379,0,0,0,.884-.4,2.968,2.968,0,0,0,.528-1.146A1.425,1.425,0,0,0,360.861,120.742Z" transform="translate(-357.865 -120.048)"/></g><g transform="translate(4.633 3.238)"><g transform="translate(0 0)"><path class="b" d="M96.871,95.247a28.325,28.325,0,0,0-5.99-6.294A8.324,8.324,0,0,1,88.1,84.219c-.049-2.517.091-5.122.2-7.519.194-4.268.481-8.534.663-12.806.232-5.448,1.554-12.509-4.875-14.64-3.334-1.1-7.009-1.288-10.478-1.615-4.254-.4-8.474-.91-12.742-1.2-8.409-.567-16.822-.661-25.249-.635a35.2,35.2,0,0,0-10.746,1.568,6.933,6.933,0,0,0-5.084,5.495c-1.909,7.214-1.249,14.617-1.131,21.973a70.314,70.314,0,0,0,.776,10.937c.543,3.008,3.566,3.709,6.292,4.141,3.847.61,7.827.458,11.709.6,4.165.148,8.319.033,12.48.194,4.831.187,9.711-.042,14.548-.04,4.056,0,8.986-.5,12.9.548,3.706,1,7.506,2.341,11.1,3.7,1.82.688,5.989,3.16,7.951,2.1A1.309,1.309,0,0,0,96.871,95.247Zm-8.218-3.021c-2.868-1.058-5.826-1.858-8.721-2.835-5.75-1.939-12.294-1.318-18.324-1.319-7,0-14.045.225-21.033-.047-3.465-.135-6.942-.124-10.4-.279a28.56,28.56,0,0,1-4.948-.553c-.942-.212-2.665-.546-3.195-1.45-.51-.871-.225-2.789-.275-3.738-.347-6.541-.759-12.981-.635-19.532a35.366,35.366,0,0,1,1.4-9.7c1.121-3.627,7.583-4.142,10.769-4.3,14.3-.723,28.779.552,42.98,2.051a38.718,38.718,0,0,1,6.172.994c2.389.657,3.534,1.774,3.952,4.261.592,3.517.05,7.411-.181,10.953-.249,3.838-.551,7.749-.495,11.595.011.723,0,1.461,0,2.2-.452,2.648-.346,5.962,1.075,8.052,1.3,1.917,3.27,3.272,5.044,4.82Z" transform="translate(-18.451 -45.802)"/></g></g><g transform="translate(0 57.321)"><g transform="translate(0 0)"><path class="b" d="M46.257,287.233c-1.433-.939-2.3-1.13-2.39-3.183-.04-.968.349-2,.38-2.978a10.334,10.334,0,0,0-4.577-8.878,7.862,7.862,0,0,0-1.321-2.534c-4.173-5.559-11.675-8.713-18.533-8.452-6.82.26-12.52,3.674-16.65,9.065C-.859,275.528-.561,282.2,1.379,288.211A27.317,27.317,0,0,0,6.632,297.3c1.139,1.369,3.567,2.983,3.186,5.063-.262,1.431-1.394,2.822-1.724,4.317-.567,2.572.88,4,3.178,4.913a60.4,60.4,0,0,0,10.489,3.4c2.365.456,5.557.724,7.111-1.494a16.418,16.418,0,0,0,1.523-3.626c.925-2.477,2.595-1.845,4.849-1.926,2.491-.09,4.865-.591,6.018-3.029,1.324-2.8,1.621-6.1,1.932-9.129.377-3.661,5.868-1.113,6.494-4.338C50.069,289.488,47.566,288.091,46.257,287.233ZM9.976,296.97A33.749,33.749,0,0,1,7.207,293.8c-3.386-4.733-5.657-11.133-4.239-16.982,1.3-5.359,6.1-9.637,10.989-11.838,5.5-2.475,12.728-.982,17.633,2.145,1.955,1.246,7.52,4.832,4.158,7.367-2,1.508-6.413.26-8.717.3a1.25,1.25,0,0,0-1.07,1.865c1.22,1.962,5.359,4.733.959,6.294-1.532.543-3.14.685-3.778,2.38-.786,2.092,1.308,4.583-.193,6.291-.642.731-2.977,1.488-3.795.319-.326-.467-.219-2.4-.356-3-.666-2.924-4.363-5.722-7.1-3.173a6.438,6.438,0,0,0-1.638,4.826C10.148,292.359,12.556,296.277,9.976,296.97Zm36.095-5.954c-1.708.147-3.932.786-4.759,2.411a8.129,8.129,0,0,0-.5,3.171c-.031.357-.079.714-.137,1.07a16.088,16.088,0,0,1-2.573-.311,10.344,10.344,0,0,0-3.074-.738.724.724,0,0,0-.506,1.221c.791.8,2.508.994,3.576,1.215a7.5,7.5,0,0,0,2.263.176c-.148.638-.31,1.274-.471,1.9-.414,1.612-.636,3.343-2.444,4.043a11.112,11.112,0,0,1-3.889.213c-1.673-.009-3.389-.017-4.543,1.383-1.863,2.261-1.1,5.648-4.891,5.851-2.95.158-6.4-1.6-9.122-2.584-1.318-.478-2.836-.649-3.67-1.84-1.009-1.44-.107-2.328.565-3.85a5.243,5.243,0,0,0-.321-5.386,4.665,4.665,0,0,0,2.167-3.293,5.759,5.759,0,0,0-.734-2.675,6.832,6.832,0,0,1-.694-3.615c.312-1.586,2.051-2.516,3.283-1.253,1.694,1.736-.179,5.233,2.268,6.459,1.6.8,4.718.564,6.346-.086,1.921-.767,2.02-2.453,1.761-4.254-.221-1.53-1.188-3.625.358-4.594.876-.549,2.14-.576,3.072-1.119a3.668,3.668,0,0,0,2.045-3.919,5.933,5.933,0,0,0-1.751-3.233c2.973.2,6.122.454,8.611-1.3a3.535,3.535,0,0,0,1.308-1.59,10.723,10.723,0,0,1,2.094,7.257c-.2,2.052-.887,3.985.586,5.72a12.3,12.3,0,0,0,2.651,2.013,9.424,9.424,0,0,1,1.925,1.408A4,4,0,0,1,46.071,291.016Z" transform="translate(0 -261.193)"/></g></g><g transform="translate(35.507 79.202)"><path class="b" d="M144.079,349.028a1.417,1.417,0,0,0-1.786-.586,1.479,1.479,0,0,0-.684.585,1.423,1.423,0,0,0-.144,1.1,2.971,2.971,0,0,0,.528,1.146,1.378,1.378,0,0,0,.884.4,2.927,2.927,0,0,0,.422.08,1.315,1.315,0,0,0,1.305-1.305A3.037,3.037,0,0,0,144.079,349.028Z" transform="translate(-141.409 -348.334)"/></g><g transform="translate(45.336 60.559)"><g transform="translate(0 0)"><path class="b" d="M257.809,281.155a6.933,6.933,0,0,0-5.084-5.495,35.2,35.2,0,0,0-10.746-1.568c-8.427-.026-16.84.067-25.249.635-4.267.288-8.487.8-12.741,1.2-3.469.327-7.145.509-10.478,1.615-6.429,2.131-5.107,9.192-4.875,14.64.182,4.271.469,8.537.663,12.806.109,2.4.249,5,.2,7.519a8.322,8.322,0,0,1-2.782,4.734,28.333,28.333,0,0,0-5.99,6.294,1.309,1.309,0,0,0,.464,1.77c1.962,1.06,6.131-1.411,7.951-2.1,3.591-1.358,7.392-2.7,11.1-3.7,3.91-1.05,8.84-.546,12.9-.548,4.837,0,9.717.227,14.548.04,4.161-.161,8.315-.045,12.48-.194,3.882-.138,7.862.013,11.709-.6,2.726-.432,5.749-1.133,6.292-4.141a70.272,70.272,0,0,0,.776-10.936C259.058,295.772,259.718,288.37,257.809,281.155Zm-2.243,32.873c-.53.9-2.253,1.238-3.195,1.45a28.571,28.571,0,0,1-4.948.553c-3.46.155-6.936.144-10.4.279-6.988.273-14.032.046-21.033.047-6.03,0-12.574-.621-18.324,1.319-2.9.977-5.853,1.777-8.721,2.835l-3.182,1.172c1.774-1.548,3.741-2.9,5.044-4.82,1.421-2.09,1.527-5.4,1.075-8.052-.006-.742-.014-1.48,0-2.2.056-3.846-.246-7.757-.495-11.595-.23-3.542-.772-7.436-.181-10.953.418-2.487,1.563-3.6,3.952-4.261a38.706,38.706,0,0,1,6.172-.994c14.2-1.5,28.683-2.774,42.98-2.051,3.186.161,9.648.676,10.769,4.3a35.372,35.372,0,0,1,1.4,9.7c.124,6.551-.288,12.991-.635,19.532C255.79,311.24,256.075,313.158,255.565,314.029Z" transform="translate(-180.553 -274.088)"/></g></g><g transform="translate(30.336 12.11)"><g transform="translate(0 0)"><path class="b" d="M140.257,87.591c-1.219-3.016-5.421-5.556-8.482-6.225a8.6,8.6,0,0,0-8.817,2.921c-1.96,2.624-2.879,6.77-1.447,9.821a9.416,9.416,0,0,0,2.643,3.245c1.112.914,1.209.753,1.538,1.963a5.754,5.754,0,0,1,.154.993,4.694,4.694,0,0,0-.091,1.294,7.205,7.205,0,0,0,.217,3.712c.613,1.546,2.79,2.347,4.328,2.339a3.9,3.9,0,0,0,3.651-2.556,5.071,5.071,0,0,0,.546-3.3c.281-1.268-.374-2.828.281-3.922.506-.845,2.454-1.746,3.216-2.476C140.141,93.337,141.447,90.535,140.257,87.591Zm-8.03,17.07a2.4,2.4,0,0,1-3.228.971,2.207,2.207,0,0,1-1.612-2.348c.025,0,.048.011.074.016,1.489.245,3.191-.207,4.709-.181.189,0,.357.013.517.02A3.947,3.947,0,0,1,132.226,104.661Zm-2.678-7.526c-.272-1.623-1.216-3.241-1.312-4.9a14.7,14.7,0,0,1,3.032-.508c.939.02.51-.309.379.627a21.319,21.319,0,0,1-.508,2.245c-.389,1.519-.877,2.994-1.247,4.5C129.784,98.427,129.654,97.763,129.549,97.135Zm9.065-5.484c-1.013,2.3-3.168,3.182-4.958,4.69-1.5,1.261-.384,2.5-.917,4.128-.342,1.044-.466.8-1.624.821a2.251,2.251,0,0,0-.291.028c.582-1.77.882-3.8,1.374-5.566.4-1.418,1.238-3.561.784-5.032a.632.632,0,0,0-.445-.445c-1.5-.263-3.428.661-4.946.8a.66.66,0,0,0-.636.636c-.177,1.655.688,3.112,1.095,4.678.451,1.738.609,3.523,1.078,5.258a1.406,1.406,0,0,1-.729-.085c-.8-.4-.529-1.025-.581-1.757-.181-2.543-1.579-2.9-3.164-4.448a6.452,6.452,0,0,1-1.853-5.783c.554-4.032,3.442-7.077,7.74-6.661C134.292,83.274,140.559,87.223,138.614,91.65Z" transform="translate(-120.814 -81.136)"/></g></g><g transform="translate(70.291 68.096)"><path class="b" d="M317.612,315.4c-2.6-1.435-6.805-.75-9.956-.193q-1.855-.022-3.718.014c-1.172-6.637-6.886-12.694-14.59-10.755-5.643,1.421-8.888,6.46-9.229,11.866a11.593,11.593,0,0,0,.644,6.342c2.629,6.651,10.61,8.147,16.728,5.481a10.993,10.993,0,0,0,4.338-3.292c3.246.022,6.477-.257,9.728-.447,2.229-.13,6.486.284,7.4-2.35C319.594,320.228,319.557,316.476,317.612,315.4ZM286.093,326.32c-4.429-2.6-5.219-7.971-3.578-12.506,1.795-4.958,6.054-8.852,11.626-7.6a9.168,9.168,0,0,1,5.3,3.542,42.479,42.479,0,0,1,2.692,5.526c-.443.017-.885.033-1.331.057-2.015.106-6.518-.752-7.861,1.066-.543.735-.435,1.965-.529,2.829-.138,1.266-.73,3.071.039,4.241,1.074,1.633,4.486,1.315,6.479,1.317A11.074,11.074,0,0,1,286.093,326.32Zm16.219-8.555a9.581,9.581,0,0,1-1.832,5.3c-.692-.018-1.383-.044-2.073-.083-1.954-.111-4.288.5-4.5-1.724-.12-1.24.133-3.389,1.378-3.968.876-.407,2.716-.1,3.7-.143l3.325-.133C302.318,317.262,302.321,317.514,302.312,317.765Zm14.966,3.169c-.571,1.615-2.026,1.441-3.6,1.58-3.558.312-7.142.551-10.719.57a12.236,12.236,0,0,0,1.182-6.147l2.291-.092s.007,0,.011,0l.051,0q4.34-.17,8.687-.311a.527.527,0,0,0,.06-.013,2.819,2.819,0,0,1,1,.328C317.339,317.534,317.705,319.727,317.278,320.935Z" transform="translate(-279.938 -304.103)"/></g><g transform="translate(93.923 68.778)"><path class="b" d="M388.922,307.154a77.738,77.738,0,0,0-14.367,0c-.519.047-.739.9-.134.991a57.524,57.524,0,0,0,14.5.314A.653.653,0,0,0,388.922,307.154Z" transform="translate(-374.056 -306.821)"/></g><g transform="translate(95.701 71.74)"><path class="b" d="M396,318.952a77.732,77.732,0,0,0-14.367,0c-.519.047-.739.9-.134.991a57.511,57.511,0,0,0,14.5.314A.653.653,0,0,0,396,318.952Z" transform="translate(-381.134 -318.619)"/></g><g transform="translate(98.515 74.851)"><path class="b" d="M407.209,331.34a77.732,77.732,0,0,0-14.367,0c-.519.047-.739.9-.134.991a57.525,57.525,0,0,0,14.5.314A.653.653,0,0,0,407.209,331.34Z" transform="translate(-392.342 -331.007)"/></g></g></g></svg>