<svg xmlns="http://www.w3.org/2000/svg" width="80" height="80" viewBox="0 0 80 80"><defs><style>.a{fill:none;}.b{fill:#0e1013;}</style></defs><g transform="translate(-938 -1459)"><rect class="a" width="80" height="80" transform="translate(938 1459)"/><g transform="translate(942.62 1470.852)"><g transform="translate(0 0)"><g transform="translate(0 0)"><path class="b" d="M61.519,59.427c-.243-2.049-.27-5.466-2.888-5.758-3.487-.388-7.179-.055-10.691-.052-4.242,0-8.5-.033-12.737.135-1.851.073-3.694-.03-5.545.032-1.567.052-3.367-.319-4.894.076a14.006,14.006,0,0,0-5.372-.628,16.34,16.34,0,0,0-5.8,1.163c-2.023.893-2.973,3.225-5.266,3.447-1.934.188-4.293-.478-6.127.289-1.4.587-1.5,2.6-1.663,3.912A78.523,78.523,0,0,0,.016,73.02c.027,1.411.31,3.063,1.94,3.178a.47.47,0,0,0,.058,0c.048,0,.093.008.144.008a17.075,17.075,0,0,0,2.912-.541A12.436,12.436,0,0,1,8.891,75.6a13.686,13.686,0,0,1,6.386,3.238c1.438,1.229,2.96,2.393,4.942,2.445a2.681,2.681,0,0,0,2.994-2.68,4.112,4.112,0,0,0-.037-.707c2.664-.031,5.305-.316,7.977-.308,3.33.01,6.653-.264,9.983-.309,3.592-.048,7.191-.155,10.783-.08,1.481.031,2.965.1,4.447.056,1.155-.038,2.976.231,4.018-.405a2.683,2.683,0,0,0,1.038-2.235c.177-1.659.186-3.328.227-4.993A71.33,71.33,0,0,0,61.519,59.427ZM19.6,79.793c-2.484-.463-4.121-2.913-6.319-4.032a13.694,13.694,0,0,0-6.832-1.507c-.231-.009-.46-.013-.685-.007-.947.022-2.008.52-2.924.441C.792,74.509,1.406,71.334,1.411,69.8c0-1.71.247-3.413.321-5.122a29.366,29.366,0,0,1,.231-3.021c.18-1.22.438-2.262,1.854-2.341,1.915-.107,4.106.362,5.961-.285,1.612-.563,2.379-2.283,3.809-3.111a13.637,13.637,0,0,1,6.676-1.3c2.219.006,5.01.169,5.916,2.434-.918.031-1.825.12-2.635.175a45.632,45.632,0,0,0-7.776,1.178.271.271,0,0,0,.072.53c3.058.082,6.106-.32,9.163-.346,1.241-.011,3.21-.345,4.335.281a1.618,1.618,0,0,1,.014,2.64c-1.056.69-2.423.552-3.622.557-1.392.006-2.8.188-4.19.328a17.118,17.118,0,0,0-4.31.607.427.427,0,0,0,.113.835c3.756.032,7.483-.549,11.238-.288a6.458,6.458,0,0,1,2.673.47c1.238.849-.634,1.909-1.453,2.165a12.23,12.23,0,0,1-2.03.411c-.416-.069-.827-.114-1.206-.148a28.908,28.908,0,0,0-7.989.672c-.477.1-.352.82.112.828,2.518.046,5.073-.37,7.586-.156.942.08,4.683.4,3.1,2.451-.625.807-3.052.987-4.01,1.094-2.143.239-4.641.076-6.683.835-1.267.471-1.788,1.647-.66,2.591a20.9,20.9,0,0,0,2.19,1.195,4.122,4.122,0,0,1,1.324,1.3A1.694,1.694,0,0,1,19.6,79.793ZM60.282,67.919c-.1,1.393-.117,2.8-.128,4.193-.01,1.219.237,3.523-1.307,3.641-2.859.218-5.757.016-8.621,0-3.128-.022-6.262.05-9.39.1-3.326.051-6.644.312-9.97.3-2.728-.011-5.42.313-8.143.312-.016,0-.029,0-.044,0a5.191,5.191,0,0,0-1.744-1.745c-.418-.265-.89-.432-1.326-.662a1.753,1.753,0,0,1-.408-.214c-.151-.153-.244-.153-.261-.15a.559.559,0,0,0,.21-.15c.262-.251,1.1-.245,1.425-.294.832-.124,1.668-.221,2.506-.3,1.916-.175,10.182-.626,8.127-4.43a3.046,3.046,0,0,0-1.124-1.149,5.632,5.632,0,0,0,1.225-.448C32.576,66.267,34.183,64.1,32.5,63a5.719,5.719,0,0,0-2.212-.781,3.854,3.854,0,0,0,.979-1.035,2.44,2.44,0,0,0-1.282-3.6,7.408,7.408,0,0,0-2.77-.531,2.883,2.883,0,0,0-.894-2.248c.742.074,1.5.21,2.2.242,1.477.067,2.963.028,4.442.081,3.225.117,6.474-.1,9.7-.112,3.309-.007,6.617.006,9.926.008q2.425,0,4.851,0a2.126,2.126,0,0,1,1.927.7,8.851,8.851,0,0,1,.658,3.135A44.98,44.98,0,0,1,60.282,67.919Z" transform="translate(0 -53.205)"/></g></g><g transform="translate(9.154 28.098)"><path class="b" d="M127.834,264.318c-.027-1.411-.31-3.063-1.94-3.178a.465.465,0,0,0-.058,0c-.048,0-.093-.008-.144-.008a17.1,17.1,0,0,0-2.912.541,12.436,12.436,0,0,1-3.821.063,13.686,13.686,0,0,1-6.386-3.238c-1.438-1.229-2.96-2.393-4.942-2.445a2.681,2.681,0,0,0-2.994,2.68,4.11,4.11,0,0,0,.037.707c-2.664.031-5.305.316-7.977.308-3.33-.01-6.653.264-9.983.309-3.592.048-7.191.155-10.783.08-1.481-.031-2.965-.1-4.447-.056-1.155.038-2.976-.231-4.018.405a2.683,2.683,0,0,0-1.038,2.235c-.177,1.659-.186,3.328-.227,4.993a71.351,71.351,0,0,0,.13,10.2c.243,2.049.27,5.466,2.888,5.758,3.487.388,7.179.055,10.691.053,4.242,0,8.5.033,12.737-.135,1.851-.073,3.694.03,5.545-.032,1.567-.052,3.367.319,4.894-.076a14.006,14.006,0,0,0,5.372.628,16.339,16.339,0,0,0,5.8-1.163c2.023-.893,2.973-3.225,5.266-3.447,1.934-.188,4.293.478,6.127-.289,1.4-.587,1.5-2.6,1.663-3.912A78.522,78.522,0,0,0,127.834,264.318ZM99.334,282.3c-1.477-.067-2.963-.028-4.442-.081-3.225-.117-6.474.1-9.7.112-3.309.007-6.617-.006-9.926-.008q-2.425,0-4.851,0a2.126,2.126,0,0,1-1.927-.7,8.855,8.855,0,0,1-.658-3.135,44.99,44.99,0,0,1-.261-9.066c.1-1.393.117-2.8.128-4.193.01-1.219-.237-3.523,1.307-3.641,2.859-.218,5.757-.016,8.621,0,3.128.022,6.262-.05,9.39-.1,3.326-.051,6.644-.312,9.97-.3,2.728.011,5.42-.313,8.143-.312.016,0,.029,0,.044,0a5.191,5.191,0,0,0,1.744,1.745c.418.265.89.432,1.327.662a1.754,1.754,0,0,1,.408.214c.151.153.244.153.261.15a.555.555,0,0,0-.21.15c-.263.251-1.1.245-1.425.294-.832.124-1.668.221-2.506.3-1.915.175-10.182.626-8.127,4.43a3.046,3.046,0,0,0,1.124,1.149,5.633,5.633,0,0,0-1.225.448c-1.268.655-2.875,2.817-1.188,3.925a5.719,5.719,0,0,0,2.212.781,3.854,3.854,0,0,0-.979,1.035,2.44,2.44,0,0,0,1.282,3.6,7.406,7.406,0,0,0,2.77.531,2.883,2.883,0,0,0,.894,2.248C100.791,282.463,100.038,282.327,99.334,282.3Zm27.105-14.754c0,1.71-.247,3.413-.321,5.122a29.368,29.368,0,0,1-.231,3.021c-.18,1.22-.438,2.262-1.854,2.341-1.915.107-4.106-.362-5.961.285-1.612.563-2.379,2.283-3.809,3.111a13.637,13.637,0,0,1-6.676,1.3c-2.219-.006-5.01-.169-5.916-2.434.918-.031,1.825-.12,2.635-.175a45.631,45.631,0,0,0,7.776-1.178.271.271,0,0,0-.072-.53c-3.058-.082-6.106.32-9.163.346-1.241.011-3.21.345-4.335-.281a1.713,1.713,0,0,1-.651-1.744c.4-1.634,3.045-1.448,4.258-1.453,1.392-.006,2.8-.188,4.19-.328a17.117,17.117,0,0,0,4.31-.607.427.427,0,0,0-.113-.835c-3.756-.032-7.483.549-11.238.288a6.458,6.458,0,0,1-2.673-.47c-1.238-.849.634-1.909,1.453-2.165a12.232,12.232,0,0,1,2.03-.411c.416.069.827.114,1.206.148a28.908,28.908,0,0,0,7.989-.672c.477-.1.352-.82-.112-.828-2.518-.046-5.073.37-7.586.156-.942-.08-4.683-.4-3.1-2.452.625-.807,3.052-.987,4.01-1.094,2.143-.239,4.641-.076,6.683-.835,1.267-.471,1.788-1.647.66-2.591a20.886,20.886,0,0,0-2.19-1.195,4.121,4.121,0,0,1-1.324-1.3,1.694,1.694,0,0,1,1.934-2.533c2.484.463,4.121,2.913,6.319,4.032a13.693,13.693,0,0,0,6.832,1.507c.231.009.46.013.685.007.947-.022,2.008-.52,2.924-.441C127.058,262.829,126.444,266,126.439,267.542Z" transform="translate(-66.083 -256.05)"/></g><g transform="translate(25.436 37.235)"><g transform="translate(0 0)"><path class="b" d="M194.526,326.828a6.57,6.57,0,0,0-3.059-4.228c-4.627-2.483-8.251,3.45-7.8,7.465a5.364,5.364,0,0,0,6.83,4.473C193.578,333.616,195.317,329.809,194.526,326.828Zm-4.472,6.933c-3.325.827-5.822-2.064-5.55-5.242.274-3.2,2.907-7.136,6.5-5.129a5.765,5.765,0,0,1,2.641,3.68C194.3,329.616,192.8,333.076,190.054,333.761Z" transform="translate(-183.627 -322.011)"/></g></g><g transform="translate(12.541 48.459)"><g transform="translate(0 0)"><path class="b" d="M98.65,405.5a2.644,2.644,0,0,0-.83-2.1c-.9-.64-2.695-.2-3.739-.2-.83,0-2.176-.232-2.952.218a.941.941,0,0,0-.249.216.128.128,0,0,0-.014.016,4.043,4.043,0,0,0,.046,3.287c.594.977,2.529.678,3.467.681a9.925,9.925,0,0,0,3.481-.253C98.679,407,98.711,406.3,98.65,405.5Zm-.84.44c-.33,1.134-3.057.867-3.99.841-1.034-.028-2.494-.229-2.532-1.527-.049-1.7,1.957-1.159,3.045-1.159a17.726,17.726,0,0,1,1.879-.049C97.08,404.142,98.115,404.886,97.81,405.936Z" transform="translate(-90.536 -403.046)"/></g></g><g transform="translate(12.789 35.057)"><path class="b" d="M106.517,306.328a24.379,24.379,0,0,0-3.563.179c-1.2.043-2.4.109-3.6.108-2.259,0-4.529-.053-6.78-.007a.26.26,0,0,0-.069.509,8.165,8.165,0,0,0,3.215.306c1.211-.009,2.423.019,3.634.022a40.769,40.769,0,0,0,7.232-.575C106.922,306.811,106.8,306.36,106.517,306.328Z" transform="translate(-92.329 -306.292)"/></g><g transform="translate(12.789 37.109)"><g transform="translate(0 0)"><path class="b" d="M104.444,321.138a17.791,17.791,0,0,0-3.042.18c-1.024.043-2.046.109-3.07.108-1.929,0-3.867-.053-5.789-.007-.264.006-.281.4-.059.508a6.005,6.005,0,0,0,2.745.307c1.034-.009,2.069.019,3.1.022a29.849,29.849,0,0,0,6.175-.575C104.79,321.622,104.685,321.17,104.444,321.138Z" transform="translate(-92.329 -321.102)"/></g></g><g transform="translate(35.458 34.455)"><path class="b" d="M267.818,302.139c-1.951-.39-4.166-.055-6.159-.1a37.047,37.047,0,0,0-5.43.245.261.261,0,0,0,0,.523,48.923,48.923,0,0,0,5.43.139,25.456,25.456,0,0,0,6.159-.309A.261.261,0,0,0,267.818,302.139Z" transform="translate(-255.978 -301.947)"/></g><g transform="translate(40.758 3.68)"><path class="b" d="M308.479,90.374c-1.163-1.964-2.5-3.824-3.608-5.827a23.038,23.038,0,0,0-2.6-4.141c-.633-.726-1.089-.967-1.51.043-.335.8-.626,1.624-1.037,2.4-.554,1.043-1.183,2.046-1.741,3.087a58.916,58.916,0,0,0-3.625,7.363c-.478,1.313.6,1.474,1.651,1.842,1.175.409,2.353.816,3.534,1.207a6.659,6.659,0,0,0,2.422.707,9.579,9.579,0,0,0,2.721-1.49c1.066-.61,2.155-1.188,3.215-1.8C309.437,92.865,309.375,91.888,308.479,90.374Zm-8.968,4.949c-.821-.266-1.631-.559-2.451-.826-.99-.322-1.845-.491-1.5-1.7a17.861,17.861,0,0,1,1.086-2.236c.794-1.785,1.657-3.548,2.567-5.277.5-.953,1.036-1.883,1.475-2.867-.008.309-.016.613-.032.9-.083,1.489-.182,3.01-.164,4.5.032,2.677.146,5.318.312,7.983C300.35,95.651,299.888,95.446,299.511,95.323Zm7.517-2.208c-.777.426-1.546.861-2.315,1.3a10.064,10.064,0,0,1-2.835,1.538c-.041.006-.085,0-.127,0-.18-2.517-.288-5-.339-7.527-.029-1.453.035-2.9.092-4.357a27.761,27.761,0,0,1,.156-2.878,24.269,24.269,0,0,1,2,3.165c.918,1.612,1.847,3.216,2.859,4.773.373.574.776,1.139,1.12,1.73C308.3,92,308.151,92.5,307.028,93.115Z" transform="translate(-294.245 -79.775)"/></g></g></g></svg>