<svg xmlns="http://www.w3.org/2000/svg" width="160" height="160" viewBox="0 0 160 160"><defs><style>.a{fill:none;}.b{fill:#0e1013;}</style></defs><g transform="translate(-937.962 -1458.962)"><rect class="a" width="160" height="160" transform="translate(937.962 1458.962)"/><g transform="translate(957.91 1479.35)"><g transform="translate(0 0)"><g transform="translate(0)"><path class="b" d="M118.225,25.677c-1.794-3.141-4.568-5.751-6.871-8.506-2.6-3.109-5.4-6.075-8-9.182-2.085-2.483-4.214-5.387-7.266-6.771C93.211-.085,90.109-.1,87.054.08c-4.4.255-8.847.59-13.253.588-2.135,0-4.234.119-6.329.245-.341,0-.681.012-1.022.01C57.439.855,48.43.959,39.419.988c-7.847.025-15.7-.566-23.544-.208-2.923.133-5.908.344-8.385,2.06C4.916,4.623,4.31,7.5,3.907,10.42A190.641,190.641,0,0,0,2.59,33.557c-.131,8.478-.382,16.908-.709,25.379Q1.406,71.237.864,83.528c-.349,8.143-.91,16.844.126,24.951a10.572,10.572,0,0,0,3.391,6.9c2.313,1.949,5.639,1.889,8.5,2.083,8.36.565,16.616.031,24.975,0,17.406-.06,34.825.7,52.216,1.287,4.1.137,8.21.078,12.315.241,2.812.112,6.366.737,8.963-.73,2.538-1.434,3.133-4.761,3.526-7.374.577-3.849.919-7.767,1.2-11.647,1.214-16.67,1.549-33.35,2.438-50.024.244-4.569.567-9.132.728-13.7C119.36,32.174,119.953,28.7,118.225,25.677ZM25.632,35.3c.294-5.51.491-11.035.464-16.559-.024-4.827.771-9.876.44-14.72,3.7.1,7.4.265,11.083.225C46.364,4.154,55.112,4.016,63.858,4c3.023-.006,6.025-.122,9.034-.265,2.639.008,5.282-.021,7.947-.123,2.463-.1,4.949-.165,7.414-.2-.217,1.719.255,3.5.394,5.29.235,3.028.287,6.046.291,9.082.009,6.114.8,12.862-.445,18.886a18.681,18.681,0,0,1-1.314,4.455c-1.251,2.443-3.34,2.5-5.767,2.725-2.745.257-5.506.4-8.259.616-5.912.472-11.882.235-17.814.248-5.635.013-11.278-.265-16.916-.325-3.266-.034-6.707.215-9.914-.561C24.562,42.869,25.459,38.534,25.632,35.3Zm67.88,42.542c-.423,6.6-.468,13.268-.687,19.89-.192,5.82.346,11.814-.06,17.629-6.093-.071-12.189-.052-18.28-.29-7.778-.3-15.531-.863-23.318-.953-7.274-.084-14.55-.117-21.82.171q-2.255.089-4.509.129c.1-2.134-.576-4.71-.765-6.617-.107-1.069-.2-2.129-.284-3.189-.007-1.636,0-3.276.054-4.921.212-6.088.291-12.177.539-18.263.236-5.8-.241-11.609-.025-17.4a14.287,14.287,0,0,1,.343-3.46c.732-2.5,2.9-2.873,5.285-3.186,2.918-.383,5.942-.34,8.88-.5,12.168-.678,24.261-.708,36.44-.533,2.971.042,5.928-.006,8.9.115,3.128.127,6.941-.695,8.678,2.537,1.452,2.7.732,6.909.728,9.876C93.6,71.863,93.7,74.867,93.512,77.845Zm22.113-37.669q-.995,20.958-1.951,41.917c-.348,7.832-.724,15.729-1.613,23.519-.341,2.989-.085,9.039-3.607,10-3.354.913-7.755-.1-11.2-.176-.745-.017-1.491-.022-2.236-.034.4-5.827-.159-11.831.021-17.664.209-6.8.278-13.625.686-20.406.194-3.231.03-6.516.025-9.754,0-2.83.375-5.9-.613-8.618-2.039-5.611-7.808-4.515-12.748-4.66-13.893-.409-27.807-.206-41.683.5-3.187.162-6.39.282-9.572.529-2.257.175-5.083.122-6.812,1.834-3.145,3.113-1.822,9.6-1.768,13.455.107,7.576-.322,15.133-.419,22.705,0,.373.008,1.337.031,2.666.049,2.747-.5,5.523-.4,8.317.118,3.209-.121,6.973.743,10.068a23.642,23.642,0,0,1-4.54,0c-3.19-.126-8.928.491-11.514-1.667-2.866-2.392-2.236-7.346-2.336-10.665C4,98.262,4.02,94.484,4.07,90.705c.1-7.317.592-14.606.978-21.908.781-14.751.41-29.536,1.139-44.281.188-3.806.4-7.621.794-11.412a21.29,21.29,0,0,1,.89-5.367C8.993,4.865,11.743,4.475,14.44,4.23a90.443,90.443,0,0,1,9.948-.255c-1.609,9.261-1.093,18.917-1.383,28.262-.112,3.613-1.545,9.364.86,12.494,2.166,2.819,8.369,2.514,11.481,2.513,10.959,0,21.907.339,32.869.373a121.942,121.942,0,0,0,15.472-1.029c4.15-.528,5.884-2.9,7.069-6.738,1.727-5.6,1.28-11.644,1.231-17.437-.028-3.306.054-6.627-.119-9.928-.075-1.432-.124-2.865-.256-4.294a27.508,27.508,0,0,1-.457-4.66,11.715,11.715,0,0,1,7.36,4.046c4.147,4.42,7.928,9.268,11.935,13.824,1.96,2.229,5.044,5.03,5.474,8.086C116.4,32.835,115.785,36.794,115.624,40.175Z" transform="translate(-0.395 0)"/></g></g><g transform="translate(59.267 12.407)"><path class="b" d="M275.229,53.832a40.536,40.536,0,0,0-7.986-.392c-1.831-.1-3.678-.148-5.575-.158-3.911-.021-5.658.91-6.478,4.834a18.429,18.429,0,0,0-.045,6.095c.287,2.379.065,5.091.61,7.428.895,3.837,4.682,3.374,7.91,3.539,2.789.143,5.513.323,8.317.27,1.7-.032,3.211-.1,4.315-1.543,2.628-3.42,1.854-8.7,2.095-12.679C278.6,57.89,279.161,54.454,275.229,53.832Zm.682,6.406c-.182,3.207.284,6.99-.853,10.019-.5,1.321-.935,2.264-2.238,2.581a12.176,12.176,0,0,1-2.622.046c-2.867.021-7.795.868-10.444-.384-1.746-.824-1.7-2.882-1.852-4.615-.276-3.095-.994-6.195-.348-9.283.812-3.885,4.859-2.908,7.981-2.945,1.263-.015,2.533.024,3.8.064.569.051,1.138.1,1.708.167a17.581,17.581,0,0,1,3.546.412C276.254,56.884,276,58.618,275.91,60.238Z" transform="translate(-254.913 -53.282)"/></g><g transform="translate(94.943 24.374)"><path class="b" d="M420.834,106.621c-.848-2.036-3.5-1.742-5.228-1.734-1.811.008-5.5-.848-6.926.806-1.069,1.236-.355,4.47.084,6.422.085.885.187,1.769.272,2.651.207,2.144.725,3.071,2.832,3.1,1.536.019,3.105.074,4.641,0a13.111,13.111,0,0,0,3.09-.173c1.556-.5,1.532-2.92,1.65-4.351C421.407,111.408,421.6,108.466,420.834,106.621Zm-1.747,7.516c-.2,1.592-.082,1.419-1.557,1.517-1.6.106-4.127.622-5.663.124-1.283-.416-1.177-2.939-1.308-4.2-.108-1.031-.583-2.859.014-3.845.9-1.483,3.514-.7,5.033-.7.757,0,2.138-.24,2.808.181.834.524.774,1.334.823,2.25A26.656,26.656,0,0,1,419.087,114.137Z" transform="translate(-408.12 -104.672)"/></g><g transform="translate(26.213 61.117)"><path class="b" d="M176.985,271.1c-.172-3.442-.468-6.221-3.987-7.469-3.92-1.391-8.181-1.161-12.282-1.133-2.672.019-5.344.121-8.011.284-2.03-.022-4.054-.031-6.064-.05-4.039-.038-8.114-.079-12.144.184-3.679.241-7.378.01-11.042.509-7.131.971-9.5,6.8-9.736,13.471-.158,4.419-.211,8.822-.254,13.243-.04,4.171-1.056,8.587-.082,12.7,1.826,7.711,9.148,7.8,15.753,8.273,8.456.6,16.861.806,25.338.806,7.031,0,16.567,1,19.547-6.955,2.423-6.469,1.844-14.28,2.3-21.076C176.6,279.642,177.2,275.364,176.985,271.1Zm-2.457,8.38c-.5,5.714-.4,11.506-1.1,17.2-.473,3.857-.568,9.352-4.406,11.572-3.507,2.028-8.9,1.625-12.847,1.585-6.964-.07-13.879-.089-20.832-.416-3.062-.144-6.124-.377-9.179-.626-4.412-.36-8.929-.718-10.515-5.611-1.085-3.348-.4-7.32-.2-10.773.217-3.809.054-7.628.153-11.435a34.38,34.38,0,0,1,1.3-10.161c1.509-4.454,5.242-5.329,9.5-5.6a215.325,215.325,0,0,1,21.918-.423c7.569.3,15.159.1,22.725.432a4.984,4.984,0,0,1,3.825,4.722A57.347,57.347,0,0,1,174.528,279.476Z" transform="translate(-112.963 -262.463)"/></g><g transform="translate(41.072 68.885)"><path class="b" d="M214.851,300.69c-.3-1.251-1.074-3.678-2.2-4.491-.868-.629-1.353-.377-2.148.065a53.616,53.616,0,0,0-6.112,4.649c-3.95,3.056-7.892,6.1-11.722,9.309-1.64,1.374-3.2,3.943-5.245,2.036-1.141-1.063-1.808-3-3.171-3.76-.823-.461-1.163-.265-1.986.1-1.468.653-4.229,1.95-5.069,3.48-1.687,3.076,2.072,7.308,3.864,9.455a32.02,32.02,0,0,0,3.735,4.136c2.179,1.812,3.861.513,5.845-1.092,3.928-3.177,7.754-6.568,11.5-9.964,2.13-1.932,4.384-3.709,6.524-5.626,1.791-1.605,4.183-3.409,5.584-5.329A3.167,3.167,0,0,0,214.851,300.69Zm-2.221,2.347a2.808,2.808,0,0,1-.3.392c-.857.938-2.361,1.483-3.266,2.369-3.507,3.428-7.373,6.575-11.091,9.775q-2.688,2.314-5.376,4.62c-1.391,1.2-3.521,4.476-5.628,4.252-1.743-.186-3.261-3.248-4.119-4.542-1.3-1.957-2.368-3.993-3.614-5.98-.006-.01-.016-.014-.023-.024a1.667,1.667,0,0,1-.178-.76c.285-1.145,3.123-2.018,4.031-2.477a.412.412,0,0,1,.645.138c1.226,1.615,2.611,3.919,4.544,4.729.962.344,1.2-.026,1.938-.458,1.878-1.094,3.511-3.023,5.224-4.389,3.745-2.987,7.449-6.01,11.233-8.951,1.049-.816,3.951-3.7,5.276-2.789A3.138,3.138,0,0,1,212.631,303.038Z" transform="translate(-176.777 -295.822)"/></g></g></g></svg>