<svg xmlns="http://www.w3.org/2000/svg" width="80" height="80" viewBox="0 0 80 80"><defs><style>.a{fill:none;}.b{fill:#0e1013;}</style></defs><g transform="translate(-938.188 -1459.188)"><rect class="a" width="80" height="80" transform="translate(938.188 1459.188)"/><g transform="translate(948.077 1469.298)"><g transform="translate(0 0)"><g transform="translate(0)"><path class="b" d="M59.477,12.875A31.361,31.361,0,0,0,56.032,8.61c-1.3-1.559-2.705-3.046-4.013-4.6-1.045-1.245-2.113-2.7-3.644-3.4A9.425,9.425,0,0,0,43.847.04c-2.206.128-4.436.3-6.645.295-1.07,0-2.123.06-3.173.123-.171,0-.342.006-.512,0C29,.428,24.481.481,19.962.5,16.028.508,12.09.212,8.157.391a7.738,7.738,0,0,0-4.2,1.033c-1.29.894-1.595,2.336-1.8,3.8a95.591,95.591,0,0,0-.66,11.6C1.43,21.077,1.3,25.3,1.14,29.552Q.9,35.719.63,41.882A75.264,75.264,0,0,0,.693,54.393a5.3,5.3,0,0,0,1.7,3.462c1.16.977,2.827.947,4.262,1.044,4.192.283,8.332.016,12.523,0,8.728-.03,17.462.353,26.182.645,2.058.069,4.117.039,6.175.121,1.41.056,3.192.37,4.494-.366,1.272-.719,1.571-2.387,1.768-3.7.29-1.93.461-3.894.6-5.84.609-8.358.777-16.723,1.222-25.083.122-2.291.284-4.579.365-6.87C60.046,16.132,60.344,14.392,59.477,12.875ZM13.049,17.7c.148-2.763.246-5.533.232-8.3-.012-2.42.387-4.952.221-7.381,1.855.052,3.71.133,5.557.113,4.385-.047,8.772-.116,13.157-.124,1.516,0,3.021-.061,4.53-.133,1.323,0,2.649-.01,3.985-.062,1.235-.048,2.482-.083,3.718-.1a13.513,13.513,0,0,0,.2,2.652c.118,1.518.144,3.032.146,4.554,0,3.066.4,6.449-.223,9.47a9.367,9.367,0,0,1-.659,2.234c-.627,1.225-1.675,1.253-2.892,1.366-1.376.129-2.761.2-4.141.309-2.964.237-5.958.118-8.932.124-2.825.006-5.655-.133-8.482-.163a22.219,22.219,0,0,1-4.971-.281C12.513,21.5,12.963,19.322,13.049,17.7ZM47.085,39.033c-.212,3.311-.235,6.653-.344,9.973-.1,2.918.174,5.924-.03,8.84-3.055-.035-6.112-.026-9.166-.145-3.9-.152-7.788-.433-11.692-.478-3.647-.042-7.3-.058-10.941.086q-1.131.045-2.261.065a23.85,23.85,0,0,0-.384-3.318c-.053-.536-.1-1.067-.142-1.6,0-.82,0-1.642.027-2.468.106-3.052.146-6.106.27-9.157.118-2.908-.121-5.821-.013-8.723a7.164,7.164,0,0,1,.172-1.735c.367-1.252,1.454-1.441,2.65-1.6,1.463-.192,2.979-.171,4.453-.253,6.1-.34,12.165-.355,18.272-.267,1.49.021,2.973,0,4.462.058,1.569.064,3.481-.348,4.351,1.272.728,1.355.367,3.464.365,4.952S47.181,37.54,47.085,39.033ZM58.173,20.145q-.5,10.509-.978,21.018c-.175,3.927-.363,7.887-.809,11.793-.171,1.5-.043,4.532-1.809,5.013-1.682.458-3.888-.049-5.617-.089-.374-.009-.747-.011-1.121-.017.2-2.922-.08-5.932.011-8.857.1-3.409.14-6.832.344-10.232.1-1.62.015-3.267.013-4.891a12.71,12.71,0,0,0-.307-4.321c-1.023-2.814-3.915-2.264-6.392-2.337-6.966-.205-13.943-.1-20.9.251-1.6.081-3.2.142-4.8.265-1.132.088-2.549.061-3.416.92-1.577,1.561-.914,4.816-.886,6.747.054,3.8-.161,7.588-.21,11.385,0,.187,0,.671.016,1.337.025,1.377-.251,2.77-.2,4.17a22.709,22.709,0,0,0,.372,5.048,11.855,11.855,0,0,1-2.277,0c-1.6-.063-4.477.246-5.774-.836-1.437-1.2-1.121-3.684-1.171-5.348-.057-1.894-.048-3.789-.023-5.684.048-3.669.3-7.324.49-10.985.391-7.4.206-14.81.571-22.2.094-1.908.2-3.821.4-5.722a10.675,10.675,0,0,1,.446-2.691c.563-1.44,1.942-1.635,3.294-1.759a45.35,45.35,0,0,1,4.988-.128c-.807,4.643-.548,9.485-.693,14.171-.056,1.812-.775,4.7.431,6.265,1.086,1.414,4.2,1.261,5.757,1.26,5.495,0,10.984.17,16.481.187a61.144,61.144,0,0,0,7.758-.516c2.081-.265,2.95-1.452,3.545-3.378.866-2.806.642-5.838.617-8.743-.014-1.658.027-3.323-.06-4.978-.038-.718-.062-1.437-.129-2.153A13.793,13.793,0,0,1,45.9,1.771,5.874,5.874,0,0,1,49.595,3.8c2.079,2.216,3.975,4.647,5.984,6.932.983,1.118,2.529,2.522,2.745,4.054A30.376,30.376,0,0,1,58.173,20.145Z" transform="translate(-0.395 0)"/></g></g><g transform="translate(29.718 6.221)"><path class="b" d="M265.1,53.558a20.326,20.326,0,0,0-4-.2c-.918-.05-1.844-.074-2.8-.079-1.961-.01-2.837.456-3.248,2.424a9.24,9.24,0,0,0-.023,3.056,35.692,35.692,0,0,0,.306,3.725c.449,1.924,2.348,1.692,3.966,1.775,1.4.072,2.764.162,4.171.135a2.447,2.447,0,0,0,2.164-.774c1.318-1.715.93-4.364,1.05-6.358C266.788,55.593,267.072,53.869,265.1,53.558Zm.342,3.212c-.091,1.608.142,3.5-.428,5.024-.248.663-.469,1.135-1.122,1.294a6.105,6.105,0,0,1-1.314.023c-1.437.011-3.908.435-5.237-.192-.875-.413-.851-1.445-.928-2.314a15.755,15.755,0,0,1-.175-4.655c.407-1.948,2.436-1.458,4-1.477.633-.008,1.27.012,1.908.032.285.026.571.05.856.084a8.815,8.815,0,0,1,1.778.207C265.613,55.088,265.488,55.957,265.441,56.77Z" transform="translate(-254.913 -53.282)"/></g><g transform="translate(47.606 12.222)"><path class="b" d="M414.495,105.649c-.425-1.021-1.756-.873-2.622-.87-.908,0-2.756-.425-3.473.4-.536.62-.178,2.242.042,3.22.043.444.094.887.136,1.329.1,1.075.363,1.54,1.42,1.553.77.01,1.557.037,2.327,0a6.574,6.574,0,0,0,1.55-.087c.78-.25.768-1.464.827-2.182A8.219,8.219,0,0,0,414.495,105.649Zm-.876,3.769c-.1.8-.041.711-.781.76a8.951,8.951,0,0,1-2.84.062c-.643-.209-.59-1.474-.656-2.1-.054-.517-.292-1.434.007-1.928.45-.744,1.762-.353,2.524-.353.379,0,1.072-.12,1.408.091.418.263.388.669.413,1.128A13.365,13.365,0,0,1,413.619,109.418Z" transform="translate(-408.12 -104.672)"/></g><g transform="translate(13.143 30.645)"><path class="b" d="M145.065,266.792c-.086-1.726-.235-3.119-2-3.745a17.914,17.914,0,0,0-6.159-.568c-1.34.009-2.679.061-4.017.142-1.018-.011-2.033-.016-3.04-.025-2.025-.019-4.069-.04-6.089.092-1.845.121-3.7.005-5.537.255-3.576.487-4.762,3.411-4.882,6.754-.079,2.216-.106,4.424-.127,6.64-.02,2.091-.53,4.306-.041,6.37.915,3.867,4.587,3.911,7.9,4.148,4.24.3,8.455.4,12.7.4,3.526,0,8.307.5,9.8-3.487,1.215-3.243.925-7.16,1.152-10.568A55.15,55.15,0,0,0,145.065,266.792Zm-1.232,4.2c-.253,2.865-.2,5.769-.551,8.623-.237,1.934-.285,4.689-2.209,5.8-1.758,1.017-4.464.815-6.442.795-3.492-.035-6.959-.045-10.445-.209-1.535-.072-3.071-.189-4.6-.314-2.212-.18-4.477-.36-5.272-2.813-.544-1.679-.2-3.67-.1-5.4.109-1.91.027-3.825.076-5.734a17.239,17.239,0,0,1,.653-5.095c.757-2.233,2.629-2.672,4.765-2.806a107.973,107.973,0,0,1,10.99-.212c3.8.152,7.6.049,11.395.217a2.5,2.5,0,0,1,1.918,2.368A28.753,28.753,0,0,1,143.833,270.994Z" transform="translate(-112.963 -262.463)"/></g><g transform="translate(20.594 34.54)"><path class="b" d="M195.868,298.263a4.574,4.574,0,0,0-1.1-2.252c-.435-.315-.678-.189-1.077.032a26.883,26.883,0,0,0-3.065,2.331c-1.981,1.532-3.957,3.059-5.878,4.668-.823.689-1.6,1.977-2.63,1.021-.572-.533-.907-1.5-1.59-1.885-.413-.231-.583-.133-1,.051a5.96,5.96,0,0,0-2.542,1.745c-.846,1.542,1.039,3.665,1.938,4.741a16.056,16.056,0,0,0,1.873,2.074c1.093.908,1.936.257,2.931-.547,1.97-1.593,3.888-3.293,5.764-5,1.068-.969,2.2-1.86,3.271-2.821a20.071,20.071,0,0,0,2.8-2.672A1.588,1.588,0,0,0,195.868,298.263Zm-1.114,1.177a1.408,1.408,0,0,1-.151.2c-.43.47-1.184.744-1.638,1.188-1.758,1.719-3.7,3.3-5.561,4.9q-1.348,1.16-2.7,2.316c-.7.6-1.766,2.244-2.822,2.132-.874-.093-1.635-1.629-2.065-2.277-.651-.981-1.187-2-1.812-3,0-.005-.008-.007-.011-.012a.836.836,0,0,1-.089-.381c.143-.574,1.566-1.012,2.021-1.242a.207.207,0,0,1,.323.069c.615.81,1.309,1.965,2.278,2.371.482.172.6-.013.972-.23a24.752,24.752,0,0,0,2.619-2.2c1.878-1.5,3.735-3.014,5.632-4.488.526-.409,1.981-1.855,2.646-1.4A1.573,1.573,0,0,1,194.755,299.44Z" transform="translate(-176.777 -295.822)"/></g></g></g></svg>