<svg xmlns="http://www.w3.org/2000/svg" xmlns:xlink="http://www.w3.org/1999/xlink" width="18.001" height="18.001" viewBox="0 0 18.001 18.001"><defs><style>.a{fill:url(#a);}.b{fill:url(#b);}.c{fill:url(#c);}.d{fill:url(#d);}.e{fill:url(#e);}.f{fill:url(#f);}.g{fill:#fff;}</style><linearGradient id="a" x1="0.332" y1="0.141" x2="0.585" y2="0.682" gradientUnits="objectBoundingBox"><stop offset="0" stop-color="#0077b5"/><stop offset="1" stop-color="#0066b2"/></linearGradient><linearGradient id="b" x1="0.738" y1="0.628" x2="-0.899" y2="-0.25" gradientUnits="objectBoundingBox"><stop offset="0" stop-color="#0066b2" stop-opacity="0"/><stop offset="1" stop-color="#07485e"/></linearGradient><linearGradient id="c" x1="0.5" y1="0.059" x2="0.5" y2="1.106" xlink:href="#b"/><linearGradient id="d" x1="0.438" y1="0.439" x2="-0.037" y2="-0.037" xlink:href="#b"/><linearGradient id="e" x1="0.795" y1="0.804" x2="-0.29" y2="0.216" xlink:href="#b"/><linearGradient id="f" x1="0.892" y1="0.936" x2="-0.003" y2="0.073" xlink:href="#b"/></defs><g transform="translate(0 0.001)"><path class="a" d="M14.781,17.692a54.37,54.37,0,0,1-11.561,0A3.278,3.278,0,0,1,.308,14.78a54.368,54.368,0,0,1,0-11.561A3.278,3.278,0,0,1,3.22.308a54.368,54.368,0,0,1,11.561,0,3.278,3.278,0,0,1,2.912,2.911,54.369,54.369,0,0,1,0,11.561,3.278,3.278,0,0,1-2.911,2.912Zm0,0" transform="translate(0 0)"/><path class="b" d="M44.534,31.691a2.908,2.908,0,0,0-2.584-2.584,48.264,48.264,0,0,0-10.259,0,2.909,2.909,0,0,0-2.584,2.584,48.263,48.263,0,0,0,0,10.259,2.909,2.909,0,0,0,2.584,2.584,48.244,48.244,0,0,0,10.259,0,2.908,2.908,0,0,0,2.584-2.584,48.244,48.244,0,0,0,0-10.259Zm0,0" transform="translate(-27.82 -27.821)"/><path class="c" d="M7.672,409.8q.019.187.038.373a3.278,3.278,0,0,0,2.912,2.911,54.362,54.362,0,0,0,11.561,0,3.277,3.277,0,0,0,2.911-2.911q.02-.187.039-.373Zm0,0" transform="translate(-7.402 -395.398)"/><path class="d" d="M109.057,109.49,97.441,97.873a1.419,1.419,0,1,0-1.989,1.989l11.576,11.576a3.281,3.281,0,0,0,2.029-1.948Zm0,0" transform="translate(-91.559 -93.895)"/><path class="e" d="M103.735,204.5h-2.384v7.389l3.382,3.382a54.373,54.373,0,0,0,7.835-.269,3.268,3.268,0,0,0,1.263-.405Zm0,0" transform="translate(-97.788 -197.315)"/><path class="f" d="M216.5,200.758a2.377,2.377,0,0,0-1.762-.778,3.355,3.355,0,0,0-2.24.748l-.467-.589h-2.2v7.389l3.392,3.392q2.007-.065,4.011-.279a3.278,3.278,0,0,0,2.911-2.911q.164-1.54.241-3.081Zm0,0" transform="translate(-202.455 -192.95)"/><g transform="translate(3.336 3.421)"><path class="g" d="M101.355,204.5h2.384v7.389h-2.384Zm0,0" transform="translate(-101.128 -200.736)"/><path class="g" d="M214.736,199.98a3.094,3.094,0,0,0-2.707,1.266v-1.107h-2.2v7.389h2.384v-3.712c0-1.073.494-1.907,1.43-1.907s1.09,1.039,1.09,2.316v3.3h2.384v-5.165a2.384,2.384,0,0,0-2.384-2.384Zm0,0" transform="translate(-205.791 -196.371)"/><path class="g" d="M97.732,98.736a1.419,1.419,0,1,1-1.419-1.419A1.419,1.419,0,0,1,97.732,98.736Zm0,0" transform="translate(-94.894 -97.317)"/></g></g></svg>