<svg xmlns="http://www.w3.org/2000/svg" width="160" height="160" viewBox="0 0 160 160"><defs><style>.a{fill:none;}.b{fill:#0e1013;}</style></defs><g transform="translate(-937.757 -1458.757)"><rect class="a" width="160" height="160" transform="translate(937.757 1458.757)"/><g transform="translate(959.261 1479.709)"><g transform="translate(8.554 8.658)"><path class="b" d="M47.307,55.276c.2-4.353.7-8.93.523-13.273-.131-3.235-2.811-4.719-6.038-4.436-3.546.311-2.9,5.939-2.956,8.457-.032,1.425-.122,2.851-.231,4.278q-.213,2.242-.424,4.483c-.519,5.565-.242,11.2-.248,16.779,0,2.423-.276,4.792-.045,7.207.115,1.2.217,3.279,1.058,4.182.807.867,1.83.608,2.955.61,1.483,0,3.57.357,4.468-1.081.781-1.252.442-3.267.384-4.645-.11-2.641-.057-5.247.037-7.887C46.962,65.06,47.087,60.166,47.307,55.276Zm-7.72,14.2c1.182.205,2.418.035,3.609.175a4.579,4.579,0,0,0,1.823.022c-.1,1.792-.173,3.6-.164,5.4-.945,0-1.9.025-2.839.043-.878.017-1.681-.071-2.526,0,.028-1.522.119-3.052.1-4.577C39.585,70.184,39.589,69.83,39.586,69.477Zm5.449,10.542a2.769,2.769,0,0,1-3.751,1.718c-1.948-.656-1.7-2.851-1.779-4.549-.01-.214-.006-.429-.01-.644a18.777,18.777,0,0,0,3.131.271,13.288,13.288,0,0,0,2.266-.009A11.831,11.831,0,0,1,45.035,80.019Zm-.5-11.922c-.485-.048-4.954-.411-4.954-.021q-.006-3.035.041-6.065a10.938,10.938,0,0,0,2.941.265,16.861,16.861,0,0,0,2.7-.073C44.681,63,46.137,68.257,44.536,68.1Zm.935-12.281c-.051,1.565-.09,3.13-.129,4.694-1.789.041-3.977-.15-5.7.385q.059-3.075.146-6.148c.014-.208.025-.416.039-.624.788.041,1.56-.092,2.381.009A11.073,11.073,0,0,0,45.561,54C45.527,54.608,45.491,55.216,45.471,55.816Zm.179-3.305c-1.26-.181-2.565,0-3.843-.1a6.523,6.523,0,0,0-1.884.178c.085-1.346.172-2.692.25-4.033.058-.989.083-2,.123-3.019a12.887,12.887,0,0,0,2.559.186,21.206,21.206,0,0,0,3.192.1C45.984,48.038,45.8,50.287,45.65,52.511Zm-2.323-8.446a25.433,25.433,0,0,0-2.953-.018,23.388,23.388,0,0,1,.284-2.48c.279-1.58.256-2.177,2.736-2.046,2.138.113,2.585,1.466,2.655,3.407.015.425.018.853.019,1.282A11.491,11.491,0,0,0,43.327,44.065Z" transform="translate(-37.794 -37.533)"/></g><g transform="translate(8.955 61.303)"><path class="b" d="M89.362,271.731c-.078-1.726.255-4.787-1.725-5.684-1.046-.474-2.488-.123-3.578-.067q-2.574.132-5.153.2c-3.65.1-7.318.078-10.964.229a201.621,201.621,0,0,1-24.11-.574c-1.48-.116-3.084-.3-3.418,1.5a10.092,10.092,0,0,0-.056,2.284c-.635,6.183-.461,12.417-.6,18.629-.074,3.314-.239,6.63-.2,9.945.038,3.015-.239,6.5.4,9.457.393,1.834,1.363,2.191,3.135,2.415a93.608,93.608,0,0,0,11.686.609c7.771-.009,15.538-.879,23.305-.836,2.37.013,5.813.593,8.062-.361,1.915-.812,2.133-3.148,2.344-4.951A186.178,186.178,0,0,0,89.637,282.3C89.623,278.756,89.523,275.266,89.362,271.731Zm-18,15.781c.689,1.4,2.392,1.843,3.113,3.359a9.982,9.982,0,0,1,.546,3.365c-.212-.044-.425-.078-.635-.129-3.579-.88-7.053-3.524-10.162-6.094,1.905-1.034,3.775-2.24,5.6-3.391a9.531,9.531,0,0,1,3.025-1.633C71.786,284.279,70.622,286.006,71.361,287.512Zm-6.121,3.142a41.173,41.173,0,0,0,5.7,3.91c-3.255-.038-6.516-.189-9.762-.117-3.481.078-6.961.365-10.44.634,1.207-1.53,3.117-3.06,2.868-4.867-.157-1.137-1.038-1.47-1.724-2.226-1.959-2.161.206-4.047,1.515-6.031,2.5.174,4.589,3.08,6.423,4.578C61.575,287.969,63.437,289.283,65.24,290.655Zm-15.33-2.521c.547.63,1.342.819,1.866,1.516,1.05,1.4-.107,2.07-1.048,3.329a25.282,25.282,0,0,0-1.617,2.227c-2.588.192-5.175.355-7.761.393.024-2.157.1-4.313.152-6.471a29.769,29.769,0,0,0,4-2.6c2.022-1.252,4.212-3.51,6.42-4.348C50.156,283.828,48.378,286.369,49.909,288.134Zm37.218,8.873c-.189,2.729.216,6.241-.689,8.842-1.076,3.09-6.218,2.147-8.911,2.146-6.086,0-12.2.49-18.29.688-2.982.1-5.908.136-8.889-.012-2.871-.142-8.016.768-8.721-2.779a41.864,41.864,0,0,1-.307-8.637c6.582.062,13.26-1.028,19.854-1.192,4.006-.1,8.017.289,12.029.136,1.215-.047,2.437-.014,3.659.025a54.748,54.748,0,0,0,10.288.391C87.143,296.747,87.137,296.876,87.128,297.007Zm.13-2.117c-2.361-.169-4.764-.077-7.148-.134-.95-.084-1.905-.138-2.854-.169-.249-.026-.5-.065-.744-.1-.41-1.837-.251-3.614-1.429-5.229-1-1.376-2.532-1.883-2.207-4.045a7.36,7.36,0,0,1,1.159-2.123,4.87,4.87,0,0,1,1.281.657c2.137,1.467,4.286,2.915,6.414,4.4,1.339.933,2.813,1.657,4.133,2.617.5.365,1.369.877,1.562,1.488A9.4,9.4,0,0,1,87.258,294.89Zm.256-4.831c-1.267-1.274-3.229-2.2-4.641-3.162-2.653-1.806-5.531-4.512-8.506-5.718-1.635-.663-2.806.42-4.166,1.31a46.134,46.134,0,0,0-6.865,4.788c-.8-.672-1.582-1.328-2.326-1.931-2.4-1.947-5.548-6.812-9.022-5.115-2.46,1.2-4.567,3.18-6.864,4.651-1.26.807-2.43,1.719-3.593,2.639,0-.112.005-.224.006-.337,0-5.559-.177-11.117-.139-16.683.006-.9.123-1.994.936-2.39a2.463,2.463,0,0,1,1.2-.142c2.874.144,5.772.14,8.621.281,3.3.163,6.6.25,9.908.2,5.8-.08,11.59-.267,17.386-.435,1.406-.041,2.813-.107,4.218-.173,1.869-.088,3.229.15,3.791,2.139a20.16,20.16,0,0,1,.175,3.7c.119,1.741.147,3.457.146,5.2C87.781,282.635,87.683,286.344,87.514,290.059Z" transform="translate(-39.533 -265.769)"/></g><g transform="translate(29.437 66.516)"><path class="b" d="M134.968,288.69a4.373,4.373,0,0,0-5.517,2.013,3.487,3.487,0,0,0-.387,4.682,5,5,0,0,0,7.353.137A4.253,4.253,0,0,0,134.968,288.69Zm.628,5.352a3.559,3.559,0,0,1-5.132.97c-2.256-1.709,0-4.494,2.032-5.064A2.766,2.766,0,0,1,135.6,294.042Z" transform="translate(-128.327 -288.37)"/></g><path class="b" d="M117.674,85.762c-2.036-4.315-5.288-8.333-8.089-12.181-2.743-3.769-5.532-7.5-8.189-11.338-1.2-1.737-3.76-4.485-2.9-6.708.68-1.756,2.24-3.369,3.106-5.091a36.851,36.851,0,0,0,3.962-10.9c1.224-8.366-4.712-17.6-11.807-21.7A26.835,26.835,0,0,0,83.5,14.277c.255-2.423.694-4.843.977-7.263.19-1.624.573-3.929-.561-5.333C82.641.106,79.975.114,78.14.044c-3.045-.116-6.119.033-9.168.033-12.3,0-24.492.216-36.748,1.3-5.719.507-11.43.688-17.153,1.053-3.6.23-8.9-.009-11.354,3.2C2.316,7.47,2.4,10.19,2.251,12.383c-.2,2.839-.431,5.684-.456,8.531-.054,6.247-.23,12.5-.469,18.747C.853,52.034.877,64.508.78,76.9.733,82.953.614,88.97.857,95.027c.21,5.215-.227,10.666.5,15.832.754,5.338,5.738,5.879,10.3,6.168,5.9.374,11.807.426,17.715.647,11.487.427,22.974.651,34.46.09,3.058-.149,6.125-.3,9.177-.546,2.547-.2,5.78-.405,7.94-1.9,1.988-1.375,2.368-3.864,2.725-6.113.468-2.952.59-5.983.781-8.963.8-12.409-1.147-24.718-1-37.1,1.33-.3,2.609-.416,3.36.291,1.258,1.183,1.977,4.291,2.781,5.843,1.152,2.221,2.36,4.423,3.655,6.564,2.414,3.991,4.988,7.877,7.109,12.04,1.543,3.028,2.849,8.073,6.246,9.619,3.031,1.379,7.1-1.625,9.252-3.545C118.523,91.587,119.212,89.02,117.674,85.762Zm-36.6,19.963c-.247,3-.3,7.038-3.858,7.879a45.392,45.392,0,0,1-7.545.853c-9.61.617-19.528,1.218-29.155.644-5.165-.308-10.39-.4-15.566-.433a110.928,110.928,0,0,1-16.1-.914c-1.619-.254-2.569-.3-3.644-1.672-1.056-1.344-1.128-2.626-1.194-4.32-.089-2.3.086-4.622.022-6.93C3.9,95.8,3.716,90.76,3.529,85.727c-.4-10.64.556-21.391.5-32.049-.054-10.919.555-21.843.649-32.765C4.7,18.6,4.9,16.3,5.058,14c.22-3.2-.155-7.016,3.631-7.958,4.293-1.068,9.111-.733,13.5-.948C33.933,4.52,45.595,2.9,57.377,3c6.032.052,12.067.068,18.1,0a21.031,21.031,0,0,1,4.907.2c1.943.453,1.381,1.963,1.231,3.627-.215,2.392-.508,4.8-.623,7.2a17.066,17.066,0,0,0-3.99.154c-.516.089-1.1.182-1.69.3C67.23,15.021,60.652,20.87,56.68,27.75,52.6,34.815,52.753,44.115,56,51.489c3.012,6.852,10.6,11.272,17.778,12.293a25.3,25.3,0,0,0,6.239.184c.181-.02.377-.055.581-.1-.273,8.993,1.125,18.015,1.119,27.01C81.708,95.834,81.482,100.785,81.075,105.725Zm30.691-12.341c-1.541.962-3.155,2.038-5.127.312a8.881,8.881,0,0,1-1.408-2.347c-.779-1.462-1.368-3.006-2.1-4.487a110.438,110.438,0,0,0-5.88-10.152,94.023,94.023,0,0,1-5.821-10.3c-1.058-2.237-1.881-6.051-4.8-6.565a7.455,7.455,0,0,0-3.143.487,23.324,23.324,0,0,1-6.9.852,22.946,22.946,0,0,1-10.649-3.129c-8.093-4.608-10.784-14.181-9.154-22.99C58.8,24.112,69.061,15.758,80.213,16.624a24.155,24.155,0,0,1,10.215,2.618c6.441,3.5,12.355,10.2,12.462,17.9.047,3.411-1.441,7.248-2.909,10.264-.63,1.294-1.255,2.65-2.007,3.881-.944,1.546-2.444,2.931-2.69,4.814-.355,2.72,2.216,5.508,3.647,7.579,2.163,3.129,4.454,6.162,6.659,9.259s4.415,6.194,6.546,9.349c1.136,1.682,3.079,3.842,3.455,5.9C116.041,90.64,113.492,92.306,111.766,93.383Z" transform="translate(-0.709 0)"/><g transform="translate(60.275 20.528)"><path class="b" d="M293.195,94.747c-3.153-3.224-6.733-5.387-11.333-5.7-3.97-.269-7.733.474-10.581,3.127-5.406,3.246-9.348,8.863-9.257,15.3.122,8.648,4.5,16.905,13.769,18.3,8.143,1.226,17.029-2.128,20.746-9.815C300.136,108.521,298.982,100.665,293.195,94.747Zm-4.337,26.843c-8.532,5.064-21.377,2.5-24.29-7.85-1.327-4.717-1.479-10.107,1.3-14.318a22.674,22.674,0,0,1,7.781-7.028,11.834,11.834,0,0,1,2.989-1.195,18,18,0,0,1,5.776-.172c4.55.468,8.109,3.3,10.927,6.719C299.38,105.071,296.933,116.8,288.858,121.589Z" transform="translate(-262.022 -88.997)"/></g><g transform="translate(22.392 12.377)"><path class="b" d="M124.151,54.008a112.943,112.943,0,0,0-13.556-.286,92.711,92.711,0,0,0-12.53.423.392.392,0,0,0,0,.751,92.638,92.638,0,0,0,12.53.423,112.946,112.946,0,0,0,13.556-.286A.513.513,0,0,0,124.151,54.008Z" transform="translate(-97.786 -53.66)"/></g><g transform="translate(22.392 18.238)"><path class="b" d="M124.151,79.415a112.946,112.946,0,0,0-13.556-.286,92.713,92.713,0,0,0-12.53.423.392.392,0,0,0,0,.751,92.631,92.631,0,0,0,12.53.423,112.943,112.943,0,0,0,13.556-.286A.513.513,0,0,0,124.151,79.415Z" transform="translate(-97.786 -79.067)"/></g><g transform="translate(22.392 24.099)"><path class="b" d="M124.151,104.825a112.95,112.95,0,0,0-13.556-.286,92.716,92.716,0,0,0-12.53.423.392.392,0,0,0,0,.751,92.633,92.633,0,0,0,12.53.423,112.937,112.937,0,0,0,13.556-.286A.513.513,0,0,0,124.151,104.825Z" transform="translate(-97.786 -104.477)"/></g><g transform="translate(22.392 29.959)"><path class="b" d="M124.151,130.233a112.943,112.943,0,0,0-13.556-.286,92.686,92.686,0,0,0-12.53.423.392.392,0,0,0,0,.751,92.641,92.641,0,0,0,12.53.423,112.943,112.943,0,0,0,13.556-.286A.513.513,0,0,0,124.151,130.233Z" transform="translate(-97.786 -129.885)"/></g><g transform="translate(22.392 35.82)"><path class="b" d="M124.151,155.641a112.95,112.95,0,0,0-13.556-.286,92.721,92.721,0,0,0-12.53.423.392.392,0,0,0,0,.751,92.641,92.641,0,0,0,12.53.423,112.949,112.949,0,0,0,13.556-.286A.513.513,0,0,0,124.151,155.641Z" transform="translate(-97.786 -155.293)"/></g><g transform="translate(22.392 41.681)"><path class="b" d="M124.151,181.05a112.943,112.943,0,0,0-13.556-.286,92.721,92.721,0,0,0-12.53.423.392.392,0,0,0,0,.751,92.641,92.641,0,0,0,12.53.423,112.943,112.943,0,0,0,13.556-.286A.513.513,0,0,0,124.151,181.05Z" transform="translate(-97.786 -180.702)"/></g><g transform="translate(22.392 47.542)"><path class="b" d="M124.151,206.458a112.95,112.95,0,0,0-13.556-.286,92.716,92.716,0,0,0-12.53.423.392.392,0,0,0,0,.751,92.656,92.656,0,0,0,12.53.423,112.924,112.924,0,0,0,13.556-.286A.513.513,0,0,0,124.151,206.458Z" transform="translate(-97.786 -206.11)"/></g><g transform="translate(22.392 53.402)"><path class="b" d="M124.151,231.865a112.956,112.956,0,0,0-13.556-.286,92.671,92.671,0,0,0-12.53.423.392.392,0,0,0,0,.751,92.651,92.651,0,0,0,12.53.423,112.943,112.943,0,0,0,13.556-.286A.513.513,0,0,0,124.151,231.865Z" transform="translate(-97.786 -231.518)"/></g></g></g></svg>