<svg xmlns="http://www.w3.org/2000/svg" width="80" height="80" viewBox="0 0 80 80"><defs><style>.a{fill:none;}.b{fill:#0e1013;}</style></defs><g transform="translate(-937.757 -1458.757)"><rect class="a" width="80" height="80" transform="translate(937.757 1458.757)"/><g transform="translate(948.509 1469.233)"><g transform="translate(4.277 4.329)"><path class="b" d="M42.55,46.4c.1-2.177.349-4.465.262-6.637-.066-1.618-1.406-2.36-3.019-2.218-1.773.155-1.449,2.97-1.478,4.229-.016.713-.061,1.426-.116,2.139q-.107,1.121-.212,2.242c-.259,2.783-.121,5.6-.124,8.39,0,1.211-.138,2.4-.023,3.6a4.065,4.065,0,0,0,.529,2.091c.4.433.915.3,1.478.305.741,0,1.785.179,2.234-.541a4.355,4.355,0,0,0,.192-2.322c-.055-1.32-.028-2.623.018-3.943C42.378,51.3,42.44,48.85,42.55,46.4Zm-3.86,7.1c.591.1,1.209.017,1.8.088a2.29,2.29,0,0,0,.912.011c-.049.9-.087,1.8-.082,2.7-.473,0-.948.012-1.419.021-.439.008-.84-.036-1.263,0,.014-.761.059-1.526.05-2.288C38.69,53.859,38.691,53.682,38.69,53.505Zm2.725,5.271a1.385,1.385,0,0,1-1.876.859c-.974-.328-.851-1.426-.89-2.274,0-.107,0-.215,0-.322a9.388,9.388,0,0,0,1.566.136,6.644,6.644,0,0,0,1.133,0A5.915,5.915,0,0,1,41.415,58.776Zm-.25-5.961a9.364,9.364,0,0,0-2.477-.01q0-1.518.02-3.033a5.469,5.469,0,0,0,1.471.132,8.431,8.431,0,0,0,1.349-.036C41.237,50.265,41.965,52.9,41.165,52.815Zm.468-6.14c-.026.783-.045,1.565-.065,2.347a10.963,10.963,0,0,0-2.849.193q.029-1.537.073-3.074c.007-.1.012-.208.019-.312.394.021.78-.046,1.19,0a5.537,5.537,0,0,0,1.676-.066C41.66,46.071,41.642,46.375,41.633,46.675Zm.089-1.653c-.63-.09-1.283,0-1.921-.05a3.261,3.261,0,0,0-.942.089c.042-.673.086-1.346.125-2.017.029-.495.041-1,.061-1.509a6.443,6.443,0,0,0,1.279.093,10.6,10.6,0,0,0,1.6.049C41.889,42.786,41.8,43.91,41.722,45.022ZM40.56,40.8a12.717,12.717,0,0,0-1.477-.009,11.694,11.694,0,0,1,.142-1.24c.14-.79.128-1.088,1.368-1.023,1.069.057,1.293.733,1.328,1.7.008.212.009.426.01.641A5.745,5.745,0,0,0,40.56,40.8Z" transform="translate(-37.794 -37.533)"/></g><g transform="translate(4.478 30.651)"><path class="b" d="M64.447,268.75c-.039-.863.128-2.394-.863-2.842a4.075,4.075,0,0,0-1.789-.034q-1.287.066-2.577.1c-1.825.052-3.659.039-5.482.114a100.8,100.8,0,0,1-12.055-.287c-.74-.058-1.542-.151-1.709.752a5.046,5.046,0,0,0-.028,1.142c-.318,3.092-.231,6.209-.3,9.315-.037,1.657-.12,3.315-.1,4.973a25.025,25.025,0,0,0,.2,4.728c.2.917.682,1.1,1.568,1.208a46.8,46.8,0,0,0,5.843.3c3.886,0,7.769-.439,11.653-.418,1.185.006,2.907.3,4.031-.181.957-.406,1.066-1.574,1.172-2.475a93.089,93.089,0,0,0,.574-11.118C64.578,272.263,64.528,270.517,64.447,268.75Zm-9,7.891c.344.7,1.2.922,1.556,1.679A4.991,4.991,0,0,1,57.276,280c-.106-.022-.212-.039-.318-.065a13.985,13.985,0,0,1-5.081-3.047c.953-.517,1.887-1.12,2.8-1.7a4.766,4.766,0,0,1,1.513-.817C55.659,275.024,55.077,275.888,55.447,276.641Zm-3.061,1.571a20.587,20.587,0,0,0,2.849,1.955c-1.627-.019-3.258-.095-4.881-.058-1.74.039-3.48.182-5.22.317.6-.765,1.559-1.53,1.434-2.434-.079-.568-.519-.735-.862-1.113-.979-1.08.1-2.023.758-3.016,1.248.087,2.294,1.54,3.212,2.289C50.554,276.869,51.485,277.526,52.386,278.212Zm-7.665-1.26c.273.315.671.409.933.758.525.7-.053,1.035-.524,1.664a12.641,12.641,0,0,0-.809,1.113c-1.294.1-2.588.178-3.881.2.012-1.078.051-2.157.076-3.235a14.884,14.884,0,0,0,2-1.3,22.44,22.44,0,0,1,3.21-2.174C44.845,274.8,43.955,276.069,44.721,276.952Zm18.609,4.437c-.094,1.364.108,3.121-.344,4.421-.538,1.545-3.109,1.074-4.455,1.073-3.043,0-6.1.245-9.145.344-1.491.049-2.954.068-4.445-.006-1.435-.071-4.008.384-4.36-1.39a20.932,20.932,0,0,1-.153-4.318c3.291.031,6.63-.514,9.927-.6,2-.05,4.008.145,6.014.068.607-.023,1.218-.007,1.829.012a27.374,27.374,0,0,0,5.144.2C63.338,281.258,63.335,281.323,63.33,281.388Zm.065-1.059c-1.181-.085-2.382-.039-3.574-.067-.475-.042-.953-.069-1.427-.084-.124-.013-.248-.033-.372-.052a6.2,6.2,0,0,0-.714-2.614c-.5-.688-1.266-.941-1.1-2.023a3.68,3.68,0,0,1,.579-1.062,2.435,2.435,0,0,1,.641.328c1.069.734,2.143,1.457,3.207,2.2.669.466,1.407.828,2.067,1.309.251.183.685.438.781.744A4.7,4.7,0,0,1,63.4,280.33Zm.128-2.415a15.48,15.48,0,0,0-2.32-1.581,25.887,25.887,0,0,0-4.253-2.859c-.817-.331-1.4.21-2.083.655a23.067,23.067,0,0,0-3.433,2.394c-.4-.336-.791-.664-1.163-.965-1.2-.973-2.774-3.406-4.511-2.558a36.424,36.424,0,0,0-3.432,2.326c-.63.4-1.215.86-1.8,1.319,0-.056,0-.112,0-.168,0-2.78-.089-5.558-.069-8.342,0-.452.061-1,.468-1.195a1.231,1.231,0,0,1,.6-.071c1.437.072,2.886.07,4.311.14,1.65.081,3.3.125,4.954.1,2.9-.04,5.8-.133,8.693-.217.7-.02,1.407-.053,2.109-.086.934-.044,1.614.075,1.9,1.07a10.08,10.08,0,0,1,.088,1.848c.06.871.074,1.729.073,2.6C63.657,274.2,63.608,276.057,63.523,277.914Z" transform="translate(-39.533 -265.769)"/></g><g transform="translate(14.718 33.258)"><path class="b" d="M131.648,288.53a2.187,2.187,0,0,0-2.759,1.007,1.743,1.743,0,0,0-.193,2.341,2.5,2.5,0,0,0,3.677.069A2.126,2.126,0,0,0,131.648,288.53Zm.314,2.676a1.78,1.78,0,0,1-2.566.485c-1.128-.854,0-2.247,1.016-2.532A1.383,1.383,0,0,1,131.962,291.206Z" transform="translate(-128.327 -288.37)"/></g><path class="b" d="M59.192,42.881a39.919,39.919,0,0,0-4.045-6.091c-1.371-1.884-2.766-3.752-4.094-5.669-.6-.868-1.88-2.242-1.45-3.354.34-.878,1.12-1.684,1.553-2.546a18.425,18.425,0,0,0,1.981-5.448c.612-4.183-2.356-8.8-5.9-10.851A13.417,13.417,0,0,0,42.1,7.138c.127-1.212.347-2.421.488-3.631.095-.812.287-1.965-.281-2.666-.637-.788-1.97-.784-2.887-.819-1.523-.058-3.06.016-4.584.016-6.149,0-12.246.108-18.374.652-2.86.254-5.715.344-8.577.527-1.8.115-4.451,0-5.677,1.6-.7.918-.657,2.278-.733,3.374-.1,1.419-.216,2.842-.228,4.265-.027,3.124-.115,6.252-.234,9.374C.781,26.017.793,32.254.745,38.448c-.024,3.028-.083,6.037.039,9.065.1,2.608-.113,5.333.252,7.916.377,2.669,2.869,2.939,5.15,3.084,2.951.187,5.9.213,8.858.323,5.744.214,11.487.326,17.23.045,1.529-.075,3.063-.152,4.589-.273a8.377,8.377,0,0,0,3.97-.95c.994-.687,1.184-1.932,1.363-3.057.234-1.476.295-2.991.39-4.482.4-6.2-.573-12.359-.5-18.55a1.879,1.879,0,0,1,1.68.145c.629.591.988,2.146,1.391,2.921.576,1.111,1.18,2.212,1.827,3.282,1.207,2,2.494,3.939,3.555,6.02.772,1.514,1.425,4.037,3.123,4.809,1.516.69,3.549-.812,4.626-1.772A3.138,3.138,0,0,0,59.192,42.881Zm-18.3,9.982c-.124,1.5-.152,3.519-1.929,3.939a22.7,22.7,0,0,1-3.772.426,119.173,119.173,0,0,1-14.578.322c-2.582-.154-5.195-.2-7.783-.216a55.464,55.464,0,0,1-8.048-.457c-.81-.127-1.284-.152-1.822-.836a3.291,3.291,0,0,1-.6-2.16c-.044-1.152.043-2.311.011-3.465C2.3,47.9,2.213,45.38,2.119,42.863c-.2-5.32.278-10.7.252-16.024-.027-5.459.278-10.922.324-16.383C2.7,9.3,2.8,8.152,2.884,7c.11-1.6-.077-3.508,1.815-3.979a35.682,35.682,0,0,1,6.75-.474c5.873-.288,11.7-1.1,17.595-1.049,3.016.026,6.033.034,9.049,0a10.515,10.515,0,0,1,2.454.1c.971.227.69.981.616,1.813-.107,1.2-.254,2.4-.311,3.6a8.533,8.533,0,0,0-1.995.077c-.258.044-.552.091-.845.15-4.041.272-7.329,3.2-9.316,6.637a13.516,13.516,0,0,0-.342,11.87c1.506,3.426,5.3,5.636,8.889,6.147a12.651,12.651,0,0,0,3.119.092c.09-.01.189-.027.29-.048-.136,4.5.563,9.008.559,13.5C41.209,47.917,41.1,50.393,40.892,52.862Zm15.345-6.171c-.77.481-1.577,1.019-2.563.156a4.44,4.44,0,0,1-.7-1.173c-.389-.731-.684-1.5-1.052-2.244a55.219,55.219,0,0,0-2.94-5.076,47.011,47.011,0,0,1-2.91-5.151c-.529-1.118-.94-3.026-2.4-3.282a3.727,3.727,0,0,0-1.571.244,11.662,11.662,0,0,1-3.452.426,11.473,11.473,0,0,1-5.325-1.564c-4.046-2.3-5.392-7.091-4.577-11.495a11.328,11.328,0,0,1,11.719-9.22,12.078,12.078,0,0,1,5.107,1.309c3.221,1.748,6.178,5.1,6.231,8.952A12.263,12.263,0,0,1,50.345,23.7c-.315.647-.628,1.325-1,1.941A6.619,6.619,0,0,0,48,28.052c-.177,1.36,1.108,2.754,1.824,3.789,1.082,1.565,2.227,3.081,3.329,4.63s2.207,3.1,3.273,4.675a9.307,9.307,0,0,1,1.728,2.948C58.375,45.32,57.1,46.153,56.238,46.692Z" transform="translate(-0.709 0)"/><g transform="translate(30.137 10.264)"><path class="b" d="M277.609,91.872a8.551,8.551,0,0,0-5.667-2.849,6.792,6.792,0,0,0-5.29,1.563,8.982,8.982,0,0,0-4.629,7.648c.061,4.324,2.251,8.453,6.884,9.15,4.072.613,8.514-1.064,10.373-4.907A8.975,8.975,0,0,0,277.609,91.872Zm-2.169,13.421c-4.266,2.532-10.689,1.249-12.145-3.925-.664-2.359-.739-5.054.652-7.159a11.337,11.337,0,0,1,3.891-3.514,5.917,5.917,0,0,1,1.495-.6,9,9,0,0,1,2.888-.086,8.334,8.334,0,0,1,5.463,3.36A8.187,8.187,0,0,1,275.44,105.293Z" transform="translate(-262.022 -88.997)"/></g><g transform="translate(11.196 6.189)"><path class="b" d="M110.969,53.834a56.472,56.472,0,0,0-6.778-.143,46.355,46.355,0,0,0-6.265.212.2.2,0,0,0,0,.375,46.319,46.319,0,0,0,6.265.212,56.473,56.473,0,0,0,6.778-.143A.257.257,0,0,0,110.969,53.834Z" transform="translate(-97.786 -53.66)"/></g><g transform="translate(11.196 9.119)"><path class="b" d="M110.969,79.241a56.473,56.473,0,0,0-6.778-.143,46.357,46.357,0,0,0-6.265.212.2.2,0,0,0,0,.375,46.316,46.316,0,0,0,6.265.212,56.472,56.472,0,0,0,6.778-.143A.257.257,0,0,0,110.969,79.241Z" transform="translate(-97.786 -79.067)"/></g><g transform="translate(11.196 12.049)"><path class="b" d="M110.969,104.651a56.475,56.475,0,0,0-6.778-.143,46.358,46.358,0,0,0-6.265.212.2.2,0,0,0,0,.375,46.317,46.317,0,0,0,6.265.212,56.469,56.469,0,0,0,6.778-.143A.257.257,0,0,0,110.969,104.651Z" transform="translate(-97.786 -104.477)"/></g><g transform="translate(11.196 14.98)"><path class="b" d="M110.969,130.059a56.472,56.472,0,0,0-6.778-.143,46.343,46.343,0,0,0-6.265.212.2.2,0,0,0,0,.375,46.321,46.321,0,0,0,6.265.212,56.472,56.472,0,0,0,6.778-.143A.257.257,0,0,0,110.969,130.059Z" transform="translate(-97.786 -129.885)"/></g><g transform="translate(11.196 17.91)"><path class="b" d="M110.969,155.467a56.475,56.475,0,0,0-6.778-.143,46.36,46.36,0,0,0-6.265.212.2.2,0,0,0,0,.375,46.321,46.321,0,0,0,6.265.212,56.475,56.475,0,0,0,6.778-.143A.257.257,0,0,0,110.969,155.467Z" transform="translate(-97.786 -155.293)"/></g><g transform="translate(11.196 20.841)"><path class="b" d="M110.969,180.876a56.472,56.472,0,0,0-6.778-.143,46.36,46.36,0,0,0-6.265.212.2.2,0,0,0,0,.375,46.321,46.321,0,0,0,6.265.212,56.472,56.472,0,0,0,6.778-.143A.257.257,0,0,0,110.969,180.876Z" transform="translate(-97.786 -180.702)"/></g><g transform="translate(11.196 23.771)"><path class="b" d="M110.969,206.284a56.475,56.475,0,0,0-6.778-.143,46.358,46.358,0,0,0-6.265.212.2.2,0,0,0,0,.375,46.328,46.328,0,0,0,6.265.212,56.462,56.462,0,0,0,6.778-.143A.257.257,0,0,0,110.969,206.284Z" transform="translate(-97.786 -206.11)"/></g><g transform="translate(11.196 26.701)"><path class="b" d="M110.969,231.692a56.478,56.478,0,0,0-6.778-.143,46.336,46.336,0,0,0-6.265.211.2.2,0,0,0,0,.375,46.326,46.326,0,0,0,6.265.212,56.472,56.472,0,0,0,6.778-.143A.257.257,0,0,0,110.969,231.692Z" transform="translate(-97.786 -231.518)"/></g></g></g></svg>