<svg xmlns="http://www.w3.org/2000/svg" width="238" height="70" viewBox="0 0 238 70"><defs><style>.a{fill:none;}.b{fill:#282828;}.c{fill:#ff3200;}.d{fill:#7d7d7d;}</style></defs><g transform="translate(-724.179 -626.193)"><rect class="a" width="238" height="70" transform="translate(724.179 626.193)"/><g transform="translate(804.716 641.677)"><path class="b" d="M514.012,1273.383a17.676,17.676,0,0,1-5.648-1c-.158-.1-.38-.221-.285-.443l.348-1.646c.063-.222.19-.348.348-.348a.618.618,0,0,1,.221.032,17.1,17.1,0,0,0,4.794.807c2.089,0,3.465-.649,3.465-2.31,0-2.12-1.5-1.993-3.623-2.437-2.215-.348-5.4-.933-5.4-4.857,0-4.272,3.8-4.984,6.55-4.984a18.868,18.868,0,0,1,5.047.68.4.4,0,0,1,.348.475l-.285,1.677c-.032.222-.19.317-.443.285a25.6,25.6,0,0,0-4.24-.522c-1.74,0-3.465.443-3.465,2.152,0,1.772,1.709,2.025,3.623,2.278,2.595.411,5.4.839,5.4,4.952C520.783,1272.227,517.666,1273.383,514.012,1273.383Z" transform="translate(-508.055 -1249.52)"/><path class="b" d="M641.888,1272.6a.419.419,0,0,1-.474.475h-2.563c-.348,0-.506-.158-.506-.475v-11.186c0-1.962-.744-2.563-2.626-2.563a22.084,22.084,0,0,0-4.62.649v13.1a.419.419,0,0,1-.475.474h-2.595a.419.419,0,0,1-.475-.474v-11.186c0-1.962-.712-2.563-2.595-2.563a23.308,23.308,0,0,0-4.683.649v13.1a.419.419,0,0,1-.475.474h-2.595c-.348,0-.506-.158-.506-.474v-13.243c0-1.155.443-1.677,2.088-2.183a25.307,25.307,0,0,1,6.424-.871,6.506,6.506,0,0,1,4.209,1.124,21.85,21.85,0,0,1,6.614-1.124c3.8,0,5.759,1.06,5.759,4.652V1272.6Z" transform="translate(-599.51 -1249.605)"/><path class="b" d="M819.066,1269.7c0,2.278-.617,2.737-2.769,3.243a18.1,18.1,0,0,1-4.209.443c-3.117,0-7.389-.222-7.389-5.237,0-4.082,2.437-4.4,5.174-4.889l5.68-.933v-1.156c0-.965-.063-1.614-.965-1.993a7.019,7.019,0,0,0-2.563-.317,22.559,22.559,0,0,0-5.458.87.718.718,0,0,1-.222.031.411.411,0,0,1-.38-.285l-.38-1.709c-.1-.348.127-.443.348-.538a23.73,23.73,0,0,1,6.708-1.028,9.851,9.851,0,0,1,4.652.839c1.614.9,1.772,2.374,1.772,4.019Zm-8.259-4.145c-1.281.253-2.5.38-2.5,2.532,0,2.642,2.215,2.864,3.861,2.864a9.937,9.937,0,0,0,3.37-.506v-5.68Z" transform="translate(-757.765 -1249.52)"/><path class="b" d="M924.216,1259.39c0-1.281.554-1.645,1.9-2.12a20.65,20.65,0,0,1,6.139-.87c.38,0,.712.063.712.538v1.772c0,.253-.063.475-.443.475a17.793,17.793,0,0,0-4.763.506V1272.7a.42.42,0,0,1-.475.475h-2.611a.42.42,0,0,1-.475-.475V1259.39Z" transform="translate(-858.358 -1249.689)"/><path class="b" d="M1017.693,1244.7c.095.411-.063.554-.316.649a11.513,11.513,0,0,1-3.861.554c-3.37,0-5.016-1.313-5.016-4.683v-16.455c0-.285.158-.475.506-.522l2.531-.538c.38-.095.538.19.538.475v5.047h4.731a.419.419,0,0,1,.474.474v1.709a.42.42,0,0,1-.474.475h-4.731v9.382c0,1.5.68,2.026,2.31,2.026a12.694,12.694,0,0,0,2.563-.348c.253-.063.411.032.475.316Z" transform="translate(-929.32 -1222.147)"/><path class="b" d="M1158.63,1237.845a20.857,20.857,0,0,1-5.522-.712c-1.614-.506-1.709-1.344-1.709-2.595v-19.476a.505.505,0,0,1,.475-.554l2.563-.506c.38-.095.538.19.538.474v5.174l-.016,1.741a17.527,17.527,0,0,1,4.541-.713c5.016,0,6.708,2.437,6.708,8.449C1166.162,1235.123,1164.643,1237.845,1158.63,1237.845Zm.143-14.588a20.851,20.851,0,0,0-3.829.586v11.028a12.443,12.443,0,0,0,3.465.443c3.117,0,4.145-1.313,4.145-6.107C1162.554,1224.459,1161.779,1223.257,1158.773,1223.257Z" transform="translate(-1049.61 -1213.982)"/><path class="b" d="M1288.583,1265.234a5.257,5.257,0,0,1-.032.744.551.551,0,0,1-.522.585h-10.853a3.992,3.992,0,0,0,1.155,3.117c.87.839,2.152,1.123,4.019,1.123a15.916,15.916,0,0,0,4.462-.744.466.466,0,0,1,.221-.032c.221,0,.317,0,.412.348l.316,1.408a.555.555,0,0,1,.032.19.5.5,0,0,1-.348.443,15.59,15.59,0,0,1-5.554.965c-6.107,0-8.29-2.595-8.29-8.544,0-5.617,1.408-8.639,7.547-8.639,3.212,0,5.078.87,6.2,2.5.965,1.408,1.25,3.339,1.25,5.791v.744Zm-3.592-1.123a11.19,11.19,0,0,0-.285-2.958c-.475-1.867-1.472-2.437-3.591-2.437-2.279,0-3.275.617-3.687,2.373a13.637,13.637,0,0,0-.285,3.022Z" transform="translate(-1152.477 -1249.52)"/><path class="b" d="M1412.183,1265.234a5.277,5.277,0,0,1-.031.744.551.551,0,0,1-.522.585h-10.854a3.994,3.994,0,0,0,1.155,3.117c.87.839,2.152,1.123,4.019,1.123a15.913,15.913,0,0,0,4.462-.744.467.467,0,0,1,.221-.032c.222,0,.317,0,.412.348l.316,1.408a.557.557,0,0,1,.032.19.5.5,0,0,1-.348.443,15.587,15.587,0,0,1-5.554.965c-6.107,0-8.291-2.595-8.291-8.544,0-5.617,1.408-8.639,7.547-8.639,3.212,0,5.079.87,6.2,2.5.965,1.408,1.25,3.339,1.25,5.791v.744Zm-3.592-1.123a11.2,11.2,0,0,0-.285-2.958c-.475-1.867-1.471-2.437-3.591-2.437-2.279,0-3.276.617-3.687,2.373a13.579,13.579,0,0,0-.284,3.022Z" transform="translate(-1256.521 -1249.52)"/></g><rect class="a" width="74" height="70" transform="translate(724.179 626.193)"/><g transform="translate(725.551 627.963)"><path class="c" d="M1029.32,1052.278a.954.954,0,0,0-.826-.478h-5.811a.955.955,0,0,0-.827.478l-2.905,5.036a.969.969,0,0,0,0,.955l2.905,5.036a.955.955,0,0,0,.827.478h5.811a.954.954,0,0,0,.826-.478l2.906-5.036a.969.969,0,0,0,0-.955Zm-1.369,9.595h-4.713l-2.35-4.081,2.35-4.081h4.713l2.35,4.081Z" transform="translate(-980.938 -997.048)"/><path class="c" d="M796.212,643.231l-8.626-14.954a.954.954,0,0,0-.826-.478H769.508a.357.357,0,0,0-.116.013h-.013a.3.3,0,0,0-.1.026h-.026c-.026.013-.052.013-.077.026a.013.013,0,0,0-.013.013h-.013a.38.38,0,0,0-.1.052h0a.229.229,0,0,0-.09.065h-.013l-.013.013c-.026.013-.039.039-.065.052l-.013.013a.013.013,0,0,1-.013.013.345.345,0,0,0-.065.078h0c-.026.026-.039.065-.065.09v.013h0l-8.355,14.476H743.526a.047.047,0,0,0-.039.013c-.026,0-.052.013-.077.013a.045.045,0,0,0-.026.013.807.807,0,0,1-.09.026c-.013,0-.013.013-.026.013a.618.618,0,0,1-.09.039c-.013,0-.013.013-.026.013s-.052.039-.077.052l-.013.013a1.174,1.174,0,0,0-.232.271h0l-8.652,14.966-8.626,14.941a.969.969,0,0,0,0,.955l8.626,14.941a.954.954,0,0,0,.826.478h17.239a.954.954,0,0,0,.826-.478l8.355-14.463h16.7a.954.954,0,0,0,.826-.478l8.626-14.94,8.626-14.941h0A.939.939,0,0,0,796.212,643.231Zm-2.479-.478H778.7l-7.529-13.042h15.044Zm-40.922,14.928-3.37-5.837-4.145-7.18h15.044l7.516,13.016Zm16.7-27.014,7.516,13.042-7.516,13.016-7.516-13.016Zm-33.665,28.461,7.787-13.507,6.25,10.808,1.278,2.221L742.8,673.113l-7.787,13.507-7.528-13.029ZM751.7,687.575H736.669l7.787-13.507,7.8-13.507,7.528,13.029Zm25.878-14.941H761.437l-3.022-5.23-4.507-7.812h15.767a1.1,1.1,0,0,0,.439-.181l.013-.013.039-.039.039-.039c.026-.026.052-.065.078-.09a.284.284,0,0,0,.065-.1h0l7.787-13.494,7.528,13.03Zm9.181-15.9-6.973-12.074h13.946Z" transform="translate(-725.425 -627.8)"/></g><path class="d" d="M1.19,0V-9.94H5.334a2.7,2.7,0,0,1,1.211.273,3.046,3.046,0,0,1,.952.728A3.474,3.474,0,0,1,8.12-7.917a3.119,3.119,0,0,1,.224,1.155,3.437,3.437,0,0,1-.21,1.19,3.284,3.284,0,0,1-.6,1.022,2.892,2.892,0,0,1-.924.714,2.668,2.668,0,0,1-1.2.266H2.45V0ZM2.45-4.69h2.9a1.531,1.531,0,0,0,.707-.161A1.6,1.6,0,0,0,6.594-5.3a2.2,2.2,0,0,0,.35-.665,2.507,2.507,0,0,0,.126-.8,2.221,2.221,0,0,0-.147-.812,2.2,2.2,0,0,0-.392-.658,1.732,1.732,0,0,0-.574-.434,1.615,1.615,0,0,0-.693-.154H2.45ZM23.786.07a4.241,4.241,0,0,1-1.911-.427A4.716,4.716,0,0,1,20.4-1.491a5.156,5.156,0,0,1-.952-1.617A5.336,5.336,0,0,1,19.11-4.97a5.167,5.167,0,0,1,.357-1.9,5.249,5.249,0,0,1,.987-1.61A4.747,4.747,0,0,1,21.945-9.6a4.265,4.265,0,0,1,1.869-.413,4.088,4.088,0,0,1,1.9.441,4.876,4.876,0,0,1,1.47,1.155A5.263,5.263,0,0,1,28.14-6.8a5.241,5.241,0,0,1,.336,1.841,5.167,5.167,0,0,1-.357,1.9,5.231,5.231,0,0,1-.98,1.6A4.716,4.716,0,0,1,25.655-.343,4.265,4.265,0,0,1,23.786.07Zm-3.4-5.04a4.437,4.437,0,0,0,.245,1.463,4.042,4.042,0,0,0,.693,1.253,3.355,3.355,0,0,0,1.078.868,3.031,3.031,0,0,0,1.4.322,2.937,2.937,0,0,0,1.428-.343A3.488,3.488,0,0,0,26.3-2.3a4,4,0,0,0,.672-1.253A4.486,4.486,0,0,0,27.2-4.97a4.437,4.437,0,0,0-.245-1.463,3.881,3.881,0,0,0-.7-1.246,3.5,3.5,0,0,0-1.078-.861A2.958,2.958,0,0,0,23.8-8.862a2.987,2.987,0,0,0-1.428.336,3.445,3.445,0,0,0-1.071.882A4.027,4.027,0,0,0,20.622-6.4,4.408,4.408,0,0,0,20.384-4.97ZM40.068,0V-9.94h4.256a2.7,2.7,0,0,1,1.211.273,3.046,3.046,0,0,1,.952.728,3.474,3.474,0,0,1,.623,1.022,3.119,3.119,0,0,1,.224,1.155,3.419,3.419,0,0,1-.147,1,3.1,3.1,0,0,1-.42.875,2.812,2.812,0,0,1-.658.672,2.566,2.566,0,0,1-.861.406L47.656,0H46.228L43.96-3.57H41.328V0Zm1.26-4.69h3.01a1.479,1.479,0,0,0,.707-.168,1.681,1.681,0,0,0,.539-.455,2.2,2.2,0,0,0,.35-.665,2.463,2.463,0,0,0,.126-.784,2.128,2.128,0,0,0-.147-.791,2.322,2.322,0,0,0-.392-.658,1.774,1.774,0,0,0-.574-.448,1.557,1.557,0,0,0-.693-.161H41.328ZM66.192-8.82h-3.43V0H61.5V-8.82h-3.43V-9.94h8.12ZM77.462,0V-9.94h6.566v1.12H78.722V-5.5h4.466v1.05H78.722V0ZM99.316.07A4.241,4.241,0,0,1,97.4-.357a4.716,4.716,0,0,1-1.477-1.134,5.156,5.156,0,0,1-.952-1.617A5.336,5.336,0,0,1,94.64-4.97,5.167,5.167,0,0,1,95-6.874a5.249,5.249,0,0,1,.987-1.61A4.747,4.747,0,0,1,97.475-9.6a4.265,4.265,0,0,1,1.869-.413,4.088,4.088,0,0,1,1.9.441,4.876,4.876,0,0,1,1.47,1.155A5.263,5.263,0,0,1,103.67-6.8a5.241,5.241,0,0,1,.336,1.841,5.167,5.167,0,0,1-.357,1.9,5.231,5.231,0,0,1-.98,1.6,4.716,4.716,0,0,1-1.484,1.106A4.265,4.265,0,0,1,99.316.07Zm-3.4-5.04a4.437,4.437,0,0,0,.245,1.463,4.042,4.042,0,0,0,.693,1.253,3.355,3.355,0,0,0,1.078.868,3.031,3.031,0,0,0,1.4.322,2.938,2.938,0,0,0,1.428-.343,3.488,3.488,0,0,0,1.071-.9,4,4,0,0,0,.672-1.253,4.486,4.486,0,0,0,.231-1.414,4.437,4.437,0,0,0-.245-1.463,3.881,3.881,0,0,0-.7-1.246,3.5,3.5,0,0,0-1.078-.861,2.958,2.958,0,0,0-1.379-.322,2.987,2.987,0,0,0-1.428.336,3.445,3.445,0,0,0-1.071.882A4.027,4.027,0,0,0,96.152-6.4,4.408,4.408,0,0,0,95.914-4.97ZM115.6,0V-9.94h1.26v8.82H122.4V0Zm18.018,0V-9.94h1.26V0Zm.07-11.34v-1.484h1.12v1.484ZM151.13.07a4.241,4.241,0,0,1-1.911-.427,4.716,4.716,0,0,1-1.477-1.134,5.156,5.156,0,0,1-.952-1.617,5.336,5.336,0,0,1-.336-1.862,5.167,5.167,0,0,1,.357-1.9,5.248,5.248,0,0,1,.987-1.61A4.747,4.747,0,0,1,149.289-9.6a4.265,4.265,0,0,1,1.869-.413,4.088,4.088,0,0,1,1.9.441,4.877,4.877,0,0,1,1.47,1.155,5.263,5.263,0,0,1,.952,1.617,5.241,5.241,0,0,1,.336,1.841,5.167,5.167,0,0,1-.357,1.9,5.231,5.231,0,0,1-.98,1.6A4.716,4.716,0,0,1,153-.343,4.265,4.265,0,0,1,151.13.07Zm-3.4-5.04a4.437,4.437,0,0,0,.245,1.463,4.042,4.042,0,0,0,.693,1.253,3.354,3.354,0,0,0,1.078.868,3.031,3.031,0,0,0,1.4.322,2.937,2.937,0,0,0,1.428-.343,3.488,3.488,0,0,0,1.071-.9,4,4,0,0,0,.672-1.253,4.486,4.486,0,0,0,.231-1.414,4.437,4.437,0,0,0-.245-1.463,3.881,3.881,0,0,0-.7-1.246,3.5,3.5,0,0,0-1.078-.861,2.958,2.958,0,0,0-1.379-.322,2.987,2.987,0,0,0-1.428.336,3.445,3.445,0,0,0-1.071.882,4.027,4.027,0,0,0-.679,1.246A4.408,4.408,0,0,0,147.728-4.97Z" transform="translate(804.179 681.193)"/></g></svg>