<svg xmlns="http://www.w3.org/2000/svg" width="80" height="80" viewBox="0 0 80 80"><defs><style>.a{fill:none;}.b{fill:#0e1013;}</style></defs><g transform="translate(-937.484 -1458.484)"><rect class="a" width="80" height="80" transform="translate(937.484 1458.484)"/><g transform="translate(945.227 1470.435)"><g transform="translate(39.56 0)"><g transform="translate(0 0)"><path class="b" d="M337.324,37.465a10.923,10.923,0,0,0-8.355-4.549,11.432,11.432,0,0,0-9.3,4.241,3.945,3.945,0,0,0-.663,1.272,5.561,5.561,0,0,0-1.914,2.347,5.506,5.506,0,0,0-.383,2.108c.016.49.211,1.009.191,1.494-.043,1.03-.48,1.126-1.2,1.6-.657.431-1.913,1.132-1.723,2.113.314,1.619,3.07.34,3.258,2.177a14.126,14.126,0,0,0,.97,4.581c.579,1.224,1.77,1.475,3.02,1.52,1.132.041,1.969-.276,2.434.967a8.239,8.239,0,0,0,.764,1.82c.78,1.113,2.381.978,3.568.75a30.31,30.31,0,0,0,5.264-1.7c1.153-.459,1.879-1.175,1.595-2.466-.165-.75-.733-1.448-.865-2.166-.191-1.044,1.027-1.854,1.6-2.541a13.71,13.71,0,0,0,2.636-4.559C339.194,43.452,339.344,40.1,337.324,37.465Zm-4.1,19.031c-.418.6-1.18.683-1.842.923-1.365.495-3.1,1.376-4.578,1.3-1.9-.1-1.519-1.8-2.454-2.936a2.656,2.656,0,0,0-2.28-.694,5.576,5.576,0,0,1-1.951-.107c-.907-.351-1.018-1.22-1.226-2.029-.081-.315-.162-.633-.237-.954a3.759,3.759,0,0,0,1.136-.088,3.8,3.8,0,0,0,1.795-.61.363.363,0,0,0-.254-.613,5.191,5.191,0,0,0-1.543.371,8.078,8.078,0,0,1-1.291.156c-.029-.179-.053-.358-.069-.537a4.082,4.082,0,0,0-.251-1.591,2.935,2.935,0,0,0-2.388-1.21,2,2,0,0,1-.4-.068,4.728,4.728,0,0,1,.966-.707,6.178,6.178,0,0,0,1.33-1.01c.739-.871.392-1.841.294-2.87a5.381,5.381,0,0,1,1.051-3.642,1.773,1.773,0,0,0,.656.8c1.249.883,2.829.756,4.321.655a2.977,2.977,0,0,0-.879,1.623,1.841,1.841,0,0,0,1.026,1.967c.468.272,1.1.286,1.542.561.776.487.29,1.538.18,2.305-.13.9-.081,1.75.884,2.135a4.773,4.773,0,0,0,3.185.043c1.228-.615.288-2.37,1.138-3.241a.972.972,0,0,1,1.648.629,3.429,3.429,0,0,1-.348,1.814,2.887,2.887,0,0,0-.368,1.342,2.34,2.34,0,0,0,1.087,1.653,2.631,2.631,0,0,0-.161,2.7C333.28,55.328,333.733,55.773,333.226,56.5Zm2.07-7.224a16.914,16.914,0,0,1-1.39,1.59c-1.294-.348-.086-2.314-.043-3.2a3.23,3.23,0,0,0-.822-2.422c-1.373-1.279-3.228.125-3.562,1.592a7.467,7.467,0,0,1-.178,1.5c-.41.587-1.582.207-1.9-.16-.753-.857.3-2.107-.1-3.157-.32-.851-1.127-.922-1.9-1.195-2.208-.783-.131-2.174.481-3.158a.628.628,0,0,0-.537-.936c-1.156-.018-3.371.608-4.374-.148-1.687-1.272,1.105-3.071,2.086-3.7,2.461-1.569,6.089-2.318,8.848-1.076,2.453,1.1,4.863,3.251,5.515,5.94C338.135,43.685,337,46.9,335.3,49.272Z" transform="translate(-313.958 -32.908)"/></g></g><g transform="translate(45.093 10.98)"><path class="b" d="M359.368,120.4a.744.744,0,0,0-.343-.294.711.711,0,0,0-.9.294,1.525,1.525,0,0,0-.263.713.66.66,0,0,0,.655.655,1.446,1.446,0,0,0,.212-.04.692.692,0,0,0,.443-.2,1.489,1.489,0,0,0,.265-.575A.715.715,0,0,0,359.368,120.4Z" transform="translate(-357.865 -120.048)"/></g><g transform="translate(2.325 1.625)"><g transform="translate(0 0)"><path class="b" d="M57.8,70.615A14.214,14.214,0,0,0,54.8,67.457a4.177,4.177,0,0,1-1.4-2.376c-.024-1.263.046-2.57.1-3.773.1-2.142.241-4.283.333-6.426.116-2.734.78-6.277-2.446-7.347a23.882,23.882,0,0,0-5.258-.81c-2.135-.2-4.253-.457-6.394-.6-4.22-.285-8.441-.332-12.67-.319a17.662,17.662,0,0,0-5.393.787,3.479,3.479,0,0,0-2.551,2.757c-.958,3.62-.627,7.335-.568,11.027a35.285,35.285,0,0,0,.39,5.488c.272,1.51,1.79,1.861,3.157,2.078a48.687,48.687,0,0,0,5.876.3c2.09.074,4.175.017,6.263.1,2.424.094,4.873-.021,7.3-.02,2.035,0,4.51-.252,6.471.275,1.86.5,3.767,1.175,5.569,1.857.913.345,3.005,1.586,3.99,1.053A.657.657,0,0,0,57.8,70.615ZM53.68,69.1c-1.439-.531-2.923-.932-4.377-1.423-2.885-.973-6.169-.661-9.2-.662-3.513,0-7.048.113-10.555-.024-1.739-.068-3.483-.062-5.22-.14a14.331,14.331,0,0,1-2.483-.277c-.473-.106-1.337-.274-1.6-.728a5.1,5.1,0,0,1-.138-1.876c-.174-3.282-.381-6.514-.319-9.8a17.748,17.748,0,0,1,.7-4.869c.562-1.82,3.805-2.079,5.4-2.159A139.515,139.515,0,0,1,47.466,48.17a19.429,19.429,0,0,1,3.1.5,2.354,2.354,0,0,1,1.983,2.138,24.512,24.512,0,0,1-.091,5.5c-.125,1.926-.276,3.889-.248,5.818.005.363,0,.733,0,1.106a5.9,5.9,0,0,0,.54,4.041,13.794,13.794,0,0,0,2.531,2.419Z" transform="translate(-18.451 -45.802)"/></g></g><g transform="translate(0 28.765)"><g transform="translate(0 0)"><path class="b" d="M23.213,274.26c-.719-.471-1.156-.567-1.2-1.6-.02-.486.175-1,.191-1.494a5.506,5.506,0,0,0-.383-2.108,5.561,5.561,0,0,0-1.914-2.347,3.946,3.946,0,0,0-.663-1.272,11.432,11.432,0,0,0-9.3-4.241,10.923,10.923,0,0,0-8.355,4.549c-2.02,2.637-1.871,5.987-.9,9a13.708,13.708,0,0,0,2.636,4.559c.571.687,1.79,1.5,1.6,2.541-.132.718-.7,1.416-.865,2.166-.285,1.291.442,2.007,1.595,2.466a30.314,30.314,0,0,0,5.264,1.7c1.187.229,2.788.363,3.568-.75a8.238,8.238,0,0,0,.764-1.82c.464-1.243,1.3-.926,2.434-.967,1.25-.045,2.441-.3,3.02-1.52a14.128,14.128,0,0,0,.97-4.581c.189-1.837,2.945-.558,3.259-2.177C25.126,275.392,23.87,274.691,23.213,274.26ZM5.007,279.147a16.933,16.933,0,0,1-1.39-1.59c-1.7-2.375-2.839-5.587-2.127-8.522.652-2.689,3.062-4.836,5.515-5.94,2.759-1.242,6.387-.493,8.848,1.076.981.625,3.774,2.425,2.086,3.7-1,.757-3.218.13-4.374.148a.627.627,0,0,0-.537.936c.612.984,2.689,2.375.481,3.158-.769.273-1.576.344-1.9,1.195-.395,1.05.657,2.3-.1,3.157-.322.367-1.494.747-1.9.16a7.469,7.469,0,0,1-.178-1.5c-.334-1.467-2.189-2.871-3.562-1.592a3.231,3.231,0,0,0-.822,2.422C5.092,276.833,6.3,278.8,5.007,279.147Zm18.113-2.988a2.935,2.935,0,0,0-2.388,1.21,4.079,4.079,0,0,0-.251,1.591c-.015.179-.04.358-.069.537a8.071,8.071,0,0,1-1.291-.156,5.191,5.191,0,0,0-1.543-.371.363.363,0,0,0-.254.613,3.805,3.805,0,0,0,1.795.61,3.765,3.765,0,0,0,1.136.089c-.074.32-.156.639-.237.954-.208.809-.319,1.677-1.226,2.029a5.576,5.576,0,0,1-1.951.107,2.656,2.656,0,0,0-2.28.694c-.935,1.135-.554,2.834-2.454,2.936-1.481.079-3.213-.8-4.578-1.3-.662-.24-1.423-.326-1.842-.923-.507-.723-.054-1.168.284-1.932a2.631,2.631,0,0,0-.161-2.7A2.341,2.341,0,0,0,6.9,278.494a2.89,2.89,0,0,0-.368-1.342,3.429,3.429,0,0,1-.348-1.814.972.972,0,0,1,1.648-.629c.85.871-.09,2.626,1.138,3.241a4.774,4.774,0,0,0,3.185-.043c.964-.385,1.014-1.231.884-2.135-.111-.768-.6-1.819.18-2.306.44-.276,1.074-.289,1.542-.561a1.841,1.841,0,0,0,1.026-1.967,2.977,2.977,0,0,0-.879-1.623c1.492.1,3.072.228,4.321-.655a1.774,1.774,0,0,0,.656-.8,5.381,5.381,0,0,1,1.051,3.642c-.1,1.03-.445,2,.294,2.87a6.175,6.175,0,0,0,1.33,1.01,4.729,4.729,0,0,1,.966.707A2.008,2.008,0,0,1,23.12,276.159Z" transform="translate(0 -261.193)"/></g></g><g transform="translate(17.818 39.745)"><path class="b" d="M142.749,348.682a.711.711,0,0,0-.9-.294.742.742,0,0,0-.343.294.714.714,0,0,0-.072.553,1.491,1.491,0,0,0,.265.575.691.691,0,0,0,.443.2,1.465,1.465,0,0,0,.212.04.66.66,0,0,0,.655-.655A1.524,1.524,0,0,0,142.749,348.682Z" transform="translate(-141.409 -348.334)"/></g><g transform="translate(22.75 30.39)"><g transform="translate(0 0)"><path class="b" d="M219.322,277.635a3.479,3.479,0,0,0-2.551-2.757,17.662,17.662,0,0,0-5.393-.787c-4.229-.013-8.451.034-12.67.318-2.141.145-4.259.4-6.394.6a23.872,23.872,0,0,0-5.258.81c-3.226,1.069-2.563,4.613-2.446,7.347.091,2.143.235,4.284.333,6.426.055,1.2.125,2.51.1,3.773a4.176,4.176,0,0,1-1.4,2.376,14.218,14.218,0,0,0-3.006,3.158.657.657,0,0,0,.233.888c.984.532,3.077-.708,3.99-1.053,1.8-.682,3.709-1.357,5.569-1.857,1.962-.527,4.436-.274,6.471-.275,2.427,0,4.876.114,7.3.02,2.088-.081,4.173-.023,6.263-.1a48.664,48.664,0,0,0,5.876-.3c1.368-.217,2.885-.568,3.157-2.078a35.264,35.264,0,0,0,.39-5.488C219.948,284.97,220.28,281.255,219.322,277.635Zm-1.126,16.5c-.266.454-1.13.621-1.6.728a14.335,14.335,0,0,1-2.483.277c-1.736.078-3.481.072-5.22.14-3.507.137-7.042.023-10.555.024-3.026,0-6.31-.311-9.2.662-1.453.49-2.937.892-4.376,1.423l-1.6.588a13.791,13.791,0,0,0,2.531-2.419,5.9,5.9,0,0,0,.54-4.041c0-.373-.007-.743,0-1.106.028-1.93-.123-3.892-.248-5.818a24.512,24.512,0,0,1-.091-5.5,2.354,2.354,0,0,1,1.983-2.138,19.427,19.427,0,0,1,3.1-.5,139.518,139.518,0,0,1,21.568-1.029c1.6.081,4.842.339,5.4,2.159a17.75,17.75,0,0,1,.7,4.869c.062,3.287-.145,6.519-.319,9.8A5.109,5.109,0,0,1,218.2,294.131Z" transform="translate(-180.553 -274.088)"/></g></g><g transform="translate(15.223 6.077)"><g transform="translate(0 0)"><path class="b" d="M130.571,84.375c-.612-1.513-2.721-2.788-4.256-3.124a4.317,4.317,0,0,0-4.425,1.466,5.145,5.145,0,0,0-.726,4.929,4.725,4.725,0,0,0,1.326,1.629c.558.459.607.378.772.985a2.887,2.887,0,0,1,.077.5,2.356,2.356,0,0,0-.045.649,3.616,3.616,0,0,0,.109,1.863,2.41,2.41,0,0,0,2.172,1.174,1.955,1.955,0,0,0,1.832-1.283,2.545,2.545,0,0,0,.274-1.658c.141-.636-.188-1.419.141-1.968.254-.424,1.232-.876,1.614-1.243A3.526,3.526,0,0,0,130.571,84.375Zm-4.03,8.566a1.2,1.2,0,0,1-1.62.487,1.108,1.108,0,0,1-.809-1.178l.037.008a17.1,17.1,0,0,0,2.363-.091c.095,0,.179.006.26.01A1.981,1.981,0,0,1,126.541,92.941ZM125.2,89.165a24.2,24.2,0,0,1-.659-2.458,7.374,7.374,0,0,1,1.521-.255c.471.01.256-.155.19.315A10.7,10.7,0,0,1,126,87.894c-.2.762-.44,1.5-.626,2.257C125.315,89.813,125.25,89.48,125.2,89.165Zm4.549-2.752c-.508,1.156-1.59,1.6-2.488,2.354-.751.633-.193,1.256-.46,2.071-.172.524-.234.4-.815.412a1.13,1.13,0,0,0-.146.014c.292-.888.442-1.908.689-2.793a5.2,5.2,0,0,0,.394-2.525.317.317,0,0,0-.223-.223,10.785,10.785,0,0,0-2.482.4.331.331,0,0,0-.319.319,6.611,6.611,0,0,0,.549,2.348c.226.872.306,1.768.541,2.639a.706.706,0,0,1-.366-.043c-.4-.2-.265-.515-.292-.882-.091-1.276-.793-1.458-1.588-2.232a3.238,3.238,0,0,1-.93-2.9,3.547,3.547,0,0,1,3.884-3.342C127.578,82.209,130.723,84.191,129.746,86.412Z" transform="translate(-120.814 -81.136)"/></g></g><g transform="translate(35.273 34.172)"><path class="b" d="M298.844,309.774c-1.306-.72-3.415-.376-5-.1q-.931-.011-1.866.007c-.588-3.33-3.455-6.37-7.321-5.4a6.324,6.324,0,0,0-4.632,5.954,5.818,5.818,0,0,0,.323,3.182c1.319,3.337,5.324,4.089,8.395,2.75a5.517,5.517,0,0,0,2.177-1.652c1.629.011,3.25-.129,4.882-.224,1.119-.065,3.255.143,3.713-1.18C299.839,312.2,299.82,310.312,298.844,309.774Zm-15.817,5.478c-2.222-1.306-2.619-4-1.8-6.276.9-2.488,3.038-4.442,5.834-3.816a4.6,4.6,0,0,1,2.657,1.777,21.316,21.316,0,0,1,1.351,2.773c-.222.008-.444.017-.668.028-1.011.053-3.271-.378-3.945.535a3.022,3.022,0,0,0-.266,1.42c-.069.635-.366,1.541.02,2.128.539.819,2.251.66,3.252.661A5.557,5.557,0,0,1,283.027,315.252Zm8.139-4.293a4.808,4.808,0,0,1-.919,2.658c-.347-.009-.694-.022-1.04-.042-.981-.056-2.152.25-2.26-.865-.06-.622.067-1.7.692-1.991a6.218,6.218,0,0,1,1.859-.072l1.668-.067C291.169,310.707,291.17,310.833,291.166,310.959Zm7.51,1.591c-.287.81-1.017.723-1.808.793-1.785.156-3.584.277-5.379.286a6.14,6.14,0,0,0,.593-3.085l1.15-.046h.006l.026,0q2.178-.085,4.359-.156a.267.267,0,0,0,.03-.007,1.414,1.414,0,0,1,.5.165A2,2,0,0,1,298.676,312.549Z" transform="translate(-279.938 -304.103)"/></g><g transform="translate(47.133 34.514)"><path class="b" d="M381.516,306.988a39.01,39.01,0,0,0-7.21,0c-.261.023-.371.45-.067.5a28.867,28.867,0,0,0,7.277.158A.328.328,0,0,0,381.516,306.988Z" transform="translate(-374.056 -306.821)"/></g><g transform="translate(48.025 36.001)"><path class="b" d="M388.595,318.786a39.007,39.007,0,0,0-7.21,0c-.26.023-.371.45-.067.5a28.862,28.862,0,0,0,7.277.158A.328.328,0,0,0,388.595,318.786Z" transform="translate(-381.134 -318.619)"/></g><g transform="translate(49.437 37.562)"><path class="b" d="M399.8,331.174a39.007,39.007,0,0,0-7.21,0c-.26.023-.371.45-.067.5a28.867,28.867,0,0,0,7.277.158A.328.328,0,0,0,399.8,331.174Z" transform="translate(-392.342 -331.007)"/></g></g></g></svg>